<svg width="16" height="17" viewBox="0 0 16 17" fill="none" xmlns="http://www.w3.org/2000/svg">
<path d="M14.6667 6.94676C14.6246 6.82482 14.5481 6.71772 14.4463 6.63843C14.3445 6.55915 14.2219 6.51109 14.0934 6.5001L10.3001 5.94676L8.60007 2.5001C8.54548 2.38738 8.46024 2.29232 8.35413 2.22581C8.24801 2.1593 8.1253 2.12402 8.00007 2.12402C7.87483 2.12402 7.75212 2.1593 7.64601 2.22581C7.53989 2.29232 7.45466 2.38738 7.40007 2.5001L5.70007 5.9401L1.90673 6.5001C1.78335 6.51763 1.66735 6.56941 1.5719 6.64954C1.47645 6.72967 1.40537 6.83495 1.36673 6.95343C1.33136 7.06921 1.32819 7.19244 1.35755 7.30989C1.38691 7.42734 1.4477 7.53458 1.5334 7.6201L4.28673 10.2868L3.62007 14.0734C3.59627 14.1984 3.60873 14.3276 3.65598 14.4457C3.70323 14.5639 3.7833 14.666 3.88673 14.7401C3.98754 14.8122 4.10645 14.8547 4.2301 14.863C4.35375 14.8712 4.47725 14.8448 4.58673 14.7868L8.00007 13.0068L11.4001 14.7934C11.4936 14.8462 11.5993 14.8738 11.7067 14.8734C11.848 14.8739 11.9857 14.8296 12.1001 14.7468C12.2035 14.6727 12.2836 14.5705 12.3308 14.4524C12.3781 14.3343 12.3905 14.2051 12.3667 14.0801L11.7001 10.2934L14.4534 7.62676C14.5497 7.54522 14.6208 7.43803 14.6586 7.31766C14.6963 7.19729 14.6992 7.06868 14.6667 6.94676ZM10.5667 9.61343C10.4885 9.68905 10.4301 9.78266 10.3964 9.88608C10.3627 9.9895 10.3548 10.0996 10.3734 10.2068L10.8534 13.0001L8.34673 11.6668C8.25028 11.6154 8.14268 11.5885 8.0334 11.5885C7.92412 11.5885 7.81652 11.6154 7.72007 11.6668L5.2134 13.0001L5.6934 10.2068C5.71202 10.0996 5.70414 9.9895 5.67044 9.88608C5.63674 9.78266 5.57825 9.68905 5.50007 9.61343L3.50007 7.61343L6.30673 7.20676C6.41473 7.19174 6.5174 7.15046 6.60573 7.08653C6.69407 7.02261 6.76537 6.93799 6.8134 6.8401L8.00007 4.3001L9.2534 6.84676C9.30143 6.94466 9.37273 7.02927 9.46107 7.0932C9.5494 7.15712 9.65207 7.19841 9.76007 7.21343L12.5667 7.6201L10.5667 9.61343Z" fill="#E5AC00"/>
</svg>
