<svg width="16" height="17" viewBox="0 0 16 17" fill="none" xmlns="http://www.w3.org/2000/svg">
<path d="M8.93996 8.50004L11.8066 5.64004C11.9322 5.51451 12.0027 5.34424 12.0027 5.16671C12.0027 4.98917 11.9322 4.81891 11.8066 4.69338C11.6811 4.56784 11.5108 4.49731 11.3333 4.49731C11.1558 4.49731 10.9855 4.56784 10.86 4.69338L7.99996 7.56004L5.13996 4.69338C5.01442 4.56784 4.84416 4.49731 4.66663 4.49731C4.48909 4.49731 4.31883 4.56784 4.19329 4.69338C4.06776 4.81891 3.99723 4.98917 3.99723 5.16671C3.99723 5.34424 4.06776 5.51451 4.19329 5.64004L7.05996 8.50004L4.19329 11.36C4.13081 11.422 4.08121 11.4958 4.04737 11.577C4.01352 11.6582 3.99609 11.7454 3.99609 11.8334C3.99609 11.9214 4.01352 12.0085 4.04737 12.0898C4.08121 12.171 4.13081 12.2447 4.19329 12.3067C4.25527 12.3692 4.329 12.4188 4.41024 12.4526C4.49148 12.4865 4.57862 12.5039 4.66663 12.5039C4.75463 12.5039 4.84177 12.4865 4.92301 12.4526C5.00425 12.4188 5.07798 12.3692 5.13996 12.3067L7.99996 9.44004L10.86 12.3067C10.9219 12.3692 10.9957 12.4188 11.0769 12.4526C11.1581 12.4865 11.2453 12.5039 11.3333 12.5039C11.4213 12.5039 11.5084 12.4865 11.5897 12.4526C11.6709 12.4188 11.7446 12.3692 11.8066 12.3067C11.8691 12.2447 11.9187 12.171 11.9526 12.0898C11.9864 12.0085 12.0038 11.9214 12.0038 11.8334C12.0038 11.7454 11.9864 11.6582 11.9526 11.577C11.9187 11.4958 11.8691 11.422 11.8066 11.36L8.93996 8.50004Z" fill="#E5AC00"/>
</svg>
