<svg width="16" height="16" viewBox="0 0 16 16" fill="none" xmlns="http://www.w3.org/2000/svg">
<path d="M14.6667 6.44676C14.6246 6.32482 14.5481 6.21772 14.4463 6.13843C14.3445 6.05915 14.2219 6.01109 14.0934 6.0001L10.3001 5.44676L8.60007 2.0001C8.54548 1.88738 8.46024 1.79232 8.35413 1.72581C8.24801 1.6593 8.1253 1.62402 8.00007 1.62402C7.87483 1.62402 7.75212 1.6593 7.64601 1.72581C7.53989 1.79232 7.45466 1.88738 7.40007 2.0001L5.70007 5.4401L1.90673 6.0001C1.78335 6.01763 1.66735 6.06941 1.5719 6.14954C1.47645 6.22967 1.40537 6.33495 1.36673 6.45343C1.33136 6.56921 1.32819 6.69244 1.35755 6.80989C1.38691 6.92734 1.4477 7.03458 1.5334 7.1201L4.28673 9.78676L3.62007 13.5734C3.59627 13.6984 3.60873 13.8276 3.65598 13.9457C3.70323 14.0639 3.7833 14.166 3.88673 14.2401C3.98754 14.3122 4.10645 14.3547 4.2301 14.363C4.35375 14.3712 4.47725 14.3448 4.58673 14.2868L8.00007 12.5068L11.4001 14.2934C11.4936 14.3462 11.5993 14.3738 11.7067 14.3734C11.848 14.3739 11.9857 14.3296 12.1001 14.2468C12.2035 14.1727 12.2836 14.0705 12.3308 13.9524C12.3781 13.8343 12.3905 13.7051 12.3667 13.5801L11.7001 9.79343L14.4534 7.12676C14.5497 7.04522 14.6208 6.93803 14.6586 6.81766C14.6963 6.69729 14.6992 6.56868 14.6667 6.44676Z" fill="#E5AC00"/>
</svg>
