<svg width="24" height="24" viewBox="0 0 24 24" fill="none" xmlns="http://www.w3.org/2000/svg">
<path d="M2.992 9C2.72679 9 2.47243 9.10536 2.2849 9.2929C2.09736 9.48043 1.992 9.73479 1.992 10V14C1.992 14.2652 2.09736 14.5196 2.2849 14.7071C2.47243 14.8946 2.72679 15 2.992 15C3.25722 15 3.51157 14.8946 3.69911 14.7071C3.88665 14.5196 3.992 14.2652 3.992 14V10C3.992 9.73479 3.88665 9.48043 3.69911 9.2929C3.51157 9.10536 3.25722 9 2.992 9ZM20.992 9C20.7268 9 20.4724 9.10536 20.2849 9.2929C20.0974 9.48043 19.992 9.73479 19.992 10V14C19.992 14.2652 20.0974 14.5196 20.2849 14.7071C20.4724 14.8946 20.7268 15 20.992 15C21.2572 15 21.5116 14.8946 21.6991 14.7071C21.8866 14.5196 21.992 14.2652 21.992 14V10C21.992 9.73479 21.8866 9.48043 21.6991 9.2929C21.5116 9.10536 21.2572 9 20.992 9ZM16.857 3.5C16.9274 3.38617 16.9743 3.25935 16.9948 3.12707C17.0153 2.99479 17.009 2.85973 16.9764 2.72992C16.9437 2.6001 16.8853 2.47816 16.8047 2.37133C16.724 2.2645 16.6227 2.17495 16.5068 2.10799C16.3909 2.04103 16.2627 1.99802 16.1299 1.98152C15.9971 1.96501 15.8623 1.97534 15.7335 2.0119C15.6047 2.04846 15.4846 2.1105 15.3802 2.19434C15.2759 2.27819 15.1894 2.38213 15.126 2.5L14.512 3.563C13.7235 3.19269 12.8631 3.00071 11.992 3.00071C11.1209 3.00071 10.2605 3.19269 9.472 3.563L8.857 2.5C8.79357 2.38213 8.70712 2.27819 8.60277 2.19434C8.49842 2.1105 8.37829 2.04846 8.24952 2.0119C8.12075 1.97534 7.98595 1.96501 7.85311 1.98152C7.72027 1.99802 7.5921 2.04103 7.47619 2.10799C7.36028 2.17495 7.25899 2.2645 7.17834 2.37133C7.09768 2.47816 7.03929 2.6001 7.00663 2.72992C6.97398 2.85973 6.96771 2.99479 6.98822 3.12707C7.00872 3.25935 7.05558 3.38617 7.126 3.5L7.818 4.698C7.24037 5.25572 6.78099 5.92408 6.46726 6.6632C6.15354 7.40232 5.99191 8.19706 5.992 9V17C5.992 17.2652 6.09736 17.5196 6.2849 17.7071C6.47243 17.8946 6.72679 18 6.992 18H8.992V21C8.992 21.2652 9.09736 21.5196 9.2849 21.7071C9.47243 21.8946 9.72679 22 9.992 22C10.2572 22 10.5116 21.8946 10.6991 21.7071C10.8866 21.5196 10.992 21.2652 10.992 21V18H12.992V21C12.992 21.2652 13.0974 21.5196 13.2849 21.7071C13.4724 21.8946 13.7268 22 13.992 22C14.2572 22 14.5116 21.8946 14.6991 21.7071C14.8866 21.5196 14.992 21.2652 14.992 21V18H16.992C17.2572 18 17.5116 17.8946 17.6991 17.7071C17.8866 17.5196 17.992 17.2652 17.992 17V9C17.992 8.19699 17.8302 7.40221 17.5163 6.66308C17.2024 5.92396 16.7428 5.25564 16.165 4.698L16.857 3.5ZM15.992 16H7.992V11H15.992V16ZM7.992 9C7.992 7.93914 8.41343 6.92172 9.16358 6.17157C9.91372 5.42143 10.9311 5 11.992 5C13.0529 5 14.0703 5.42143 14.8204 6.17157C15.5706 6.92172 15.992 7.93914 15.992 9H7.992Z" fill="white"/>
</svg>
