<svg width="24" height="24" viewBox="0 0 24 24" fill="none" xmlns="http://www.w3.org/2000/svg">
<path d="M18 9V21.0002C18 21.5525 17.5523 22.0002 17 22.0002C16.4477 22.0002 16 21.5525 16 21.0002V9C16 8.73478 15.8947 8.48043 15.7071 8.29289C15.5196 8.10536 15.2652 8 15 8H5.41002L7.71002 10.29C7.80375 10.383 7.87814 10.4936 7.92891 10.6154C7.97968 10.7373 8.00582 10.868 8.00582 11C8.00582 11.132 7.97968 11.2627 7.92891 11.3846C7.87814 11.5064 7.80375 11.617 7.71002 11.71C7.61706 11.8037 7.50645 11.8781 7.3846 11.9289C7.26274 11.9797 7.13203 12.0058 7.00002 12.0058C6.86801 12.0058 6.7373 11.9797 6.61544 11.9289C6.49358 11.8781 6.38298 11.8037 6.29002 11.71L2.29002 7.71C2.19898 7.61489 2.12761 7.50275 2.08002 7.38C1.98 7.13654 1.98 6.86346 2.08002 6.62C2.12761 6.49725 2.19898 6.3851 2.29002 6.29L6.29002 2.29C6.38326 2.19676 6.49395 2.1228 6.61577 2.07234C6.73759 2.02188 6.86816 1.99591 7.00002 1.99591C7.13188 1.99591 7.26245 2.02188 7.38427 2.07234C7.50609 2.1228 7.61678 2.19676 7.71002 2.29C7.80326 2.38324 7.87722 2.49393 7.92768 2.61575C7.97814 2.73757 8.00411 2.86814 8.00411 3C8.00411 3.13186 7.97814 3.26243 7.92768 3.38425C7.87722 3.50607 7.80326 3.61676 7.71002 3.71L5.41002 6H15C15.7957 6 16.5587 6.31607 17.1213 6.87868C17.6839 7.44129 18 8.20435 18 9Z" fill="white"/>
</svg>
