<svg width="16" height="17" viewBox="0 0 16 17" fill="none" xmlns="http://www.w3.org/2000/svg">
<path d="M12.473 5.30657C12.411 5.24409 12.3373 5.19449 12.256 5.16065C12.1748 5.1268 12.0876 5.10938 11.9996 5.10938C11.9116 5.10938 11.8245 5.1268 11.7433 5.16065C11.662 5.19449 11.5883 5.24409 11.5263 5.30657L6.55964 10.2799L4.47297 8.18657C4.40863 8.12441 4.33267 8.07554 4.24943 8.04274C4.16619 8.00993 4.07731 7.99385 3.98786 7.99539C3.8984 7.99694 3.81013 8.01609 3.72808 8.05176C3.64602 8.08742 3.5718 8.13889 3.50964 8.20324C3.44748 8.26759 3.39861 8.34355 3.3658 8.42679C3.333 8.51002 3.31691 8.59891 3.31846 8.68836C3.32001 8.77781 3.33916 8.86609 3.37482 8.94814C3.41049 9.03019 3.46196 9.10441 3.52631 9.16657L6.08631 11.7266C6.14828 11.7891 6.22202 11.8387 6.30326 11.8725C6.3845 11.9063 6.47163 11.9238 6.55964 11.9238C6.64765 11.9238 6.73479 11.9063 6.81603 11.8725C6.89727 11.8387 6.971 11.7891 7.03297 11.7266L12.473 6.28657C12.5406 6.22415 12.5946 6.14838 12.6316 6.06404C12.6685 5.97971 12.6876 5.88864 12.6876 5.79657C12.6876 5.70451 12.6685 5.61344 12.6316 5.5291C12.5946 5.44477 12.5406 5.369 12.473 5.30657V5.30657Z" fill="#32B62F"/>
</svg>
