<svg width="124" height="124" viewBox="0 0 124 124" fill="none" xmlns="http://www.w3.org/2000/svg">
<path d="M79.7394 59.681C71.4103 64.641 61.2498 58.7969 61.7272 58.6952C77.4727 55.2716 78.864 45.338 78.864 45.338C75.7206 37.6574 67.1522 40.13 67.1522 40.13C66.9042 51.0296 53.9313 51.6434 53.9313 51.6434C53.098 48.1069 53.1439 39.8497 53.1439 39.8497C49.2118 37.1006 48.4158 38.2675 48.4158 38.2675C49.6558 27.3555 54.6493 23.8376 54.6493 23.8376C55.4813 23.0626 59.2001 21.3204 61.1097 21.0947L61.1778 21.3973C61.1778 21.3973 59.2472 26.2184 62.9473 26.5358C66.061 26.8086 67.8304 22.9758 68.3128 21.7594C72.3614 23.0142 76.2253 25.8228 78.7958 30.5472C84.8767 41.7246 79.7394 59.681 79.7394 59.681Z" fill="#2C2F2F"/>
<path d="M80.6396 54.9775L100.878 68.3695C104.802 70.9661 104.298 76.8759 99.9935 78.7694L76.3096 89.1929C74.107 90.162 71.692 90.5479 69.2971 90.3136C66.9021 90.0793 64.6078 89.2326 62.6348 87.8549L53.5394 81.4962" stroke="#262626" stroke-width="0.5" stroke-miterlimit="10"/>
<path d="M80.6397 59.2971L79.9589 58.8457L100.881 72.6866C104.806 75.2831 104.301 81.193 99.9973 83.0865L76.3133 93.5099C74.1107 94.479 71.6958 94.865 69.3008 94.6307C66.9059 94.3963 64.6116 93.5496 62.6386 92.1719L51.0743 83.9359" stroke="#262626" stroke-width="0.5" stroke-miterlimit="10"/>
<path d="M98.2514 78.0311L76.4832 87.6126C74.4589 88.503 72.2395 88.8575 70.0386 88.6421C67.8376 88.4266 65.7291 87.6485 63.9158 86.3825L55.5743 80.5223C56.7229 79.6421 58.0098 78.959 59.3824 78.5011C62.8209 77.3331 66.1765 75.9341 69.4264 74.3136C71.8934 73.0932 74.0604 71.343 75.7726 69.1881C77.4849 67.0332 78.7001 64.5268 79.3315 61.8479C79.768 59.9941 80.1511 58.1192 80.4649 56.2344L99.6229 68.8985C103.229 71.2843 102.206 76.2926 98.2514 78.0311Z" fill="#46E9FF"/>
<path d="M42.1599 105.8C42.1599 105.8 45.9767 104.217 46.7083 103.024C46.7083 103.024 46.8459 105.733 46.1317 106.658C45.4174 107.583 41.1493 110.028 40.9199 109.722C40.6905 109.415 42.1599 105.8 42.1599 105.8Z" fill="#46E9FF"/>
<path d="M30.411 112.252C30.411 112.252 31.1054 113.194 33.5693 112.252C36.0332 111.31 41.3937 107.839 41.3937 107.839C41.3937 107.839 39.8983 111.854 39.3564 112.295C38.8145 112.737 28.5771 117.751 28.5771 117.751C28.5771 117.751 24.0002 118.402 25.7251 115.147L30.411 112.252Z" fill="#46E9FF"/>
<path d="M45.1447 59.79C39.5027 61.9861 33.5321 67.1457 35.2495 81.4342L35.7269 85.1468" stroke="#262626" stroke-width="0.5" stroke-miterlimit="10"/>
<path d="M45.136 50.4593C46.0585 49.1424 46.8918 47.7189 47.4027 46.1862C47.9136 44.6536 47.9396 42.9932 48.0822 41.3812C48.4617 37.0586 49.0494 33.4837 50.7172 29.4574C52.1618 25.973 56.5254 21.4842 60.8666 21.0589L61.2572 21.0254" stroke="#262626" stroke-width="0.5" stroke-miterlimit="10"/>
<path d="M56.048 59.4742C56.0269 59.4134 56.0058 59.3564 55.9835 59.2969" stroke="#262626" stroke-width="0.5" stroke-miterlimit="10"/>
<path d="M53.9313 51.376C53.718 50.1223 53.5593 48.9071 53.4353 47.7539C53.4357 47.7322 53.4332 47.7105 53.4279 47.6895C52.7781 41.2501 53.4353 36.5654 53.4353 36.5654" stroke="#262626" stroke-width="0.5" stroke-miterlimit="10"/>
<path d="M69.0977 12.2938L68.1057 12.6807C68.1057 12.7117 68.1057 13.0986 68.0636 13.6404C68.0175 14.2876 67.9145 14.9295 67.756 15.5587C67.8441 15.1297 67.9718 14.1104 67.4113 13.4011C67.4026 13.3866 67.3927 13.3729 67.3816 13.3602C67.0096 12.9126 66.5508 13.0899 66.1825 13.3974C65.9282 13.6126 65.706 13.8632 65.5228 14.1414C65.587 13.313 65.4385 12.482 65.0913 11.7271C64.8648 11.2122 64.5645 10.7331 64.1997 10.3048C64.7614 12.2392 64.041 13.5053 64.041 13.5053C62.1376 13.9529 60.817 13.8574 59.8324 13.6876C59.0029 12.9138 59.2906 10.1275 59.2906 10.1275C58.456 10.8095 58.6569 13.4482 58.6569 13.4482C58.5504 12.7597 58.5634 12.0579 58.6954 11.3737C58.2808 11.9599 58.0413 12.6518 58.0047 13.3689L57.9898 13.3614C57.9323 13.3467 57.8756 13.3289 57.8199 13.3081C57.7178 13.2544 57.6188 13.1948 57.5236 13.1296L56.9742 12.7576C57.8038 8.52544 60.7042 5.8644 65.1855 6.6456C65.4781 6.69602 65.7659 6.77067 66.0461 6.8688C68.9985 8.40764 69.0977 12.2938 69.0977 12.2938Z" fill="#46E9FF"/>
<path d="M43.524 53.5114L42.3944 50.1113C42.3694 50.0321 42.3246 49.9606 42.2643 49.9036C42.204 49.8465 42.1301 49.8057 42.0497 49.7852C42.0397 49.7852 42.0286 49.7852 42.0174 49.7777C42.0063 49.7703 42.0038 49.7777 41.9963 49.7777C41.9703 49.776 41.9442 49.776 41.9182 49.7777C41.7929 49.7782 41.6724 49.826 41.5809 49.9116C41.4892 49.9964 41.416 50.0992 41.3658 50.2135C41.3157 50.3279 41.2897 50.4514 41.2896 50.5763C41.2896 50.674 41.3051 50.7711 41.3354 50.864C41.5834 51.5819 42.0249 52.8777 42.2344 53.468" fill="#46E9FF"/>
<path d="M43.2686 53.5111L42.0509 49.7849C42.041 49.7849 42.0298 49.7849 42.0187 49.7774C42.0075 49.77 42.005 49.7774 41.9976 49.7774L41.359 49.6534C41.018 49.5902 40.677 49.522 40.336 49.4587C39.9268 49.3769 39.5151 49.3087 39.1072 49.2107C39.0109 49.1835 38.9119 49.1669 38.812 49.1611C38.6864 49.1608 38.5654 49.2092 38.4748 49.2963C38.3822 49.3809 38.3085 49.484 38.2583 49.5989C38.2081 49.7139 38.1826 49.838 38.1834 49.9634C38.1828 50.06 38.1983 50.1559 38.2292 50.2474C38.5033 51.0509 39.0253 52.5711 39.1915 53.0324L43.2686 53.5111Z" fill="#46E9FF"/>
<path d="M67.3444 36.5636C67.2204 37.9438 67.1559 39.614 67.1125 41.7134C67.1125 46.1774 62.1773 49.8738 57.7915 50.7195L49.7488 52.5361C48.6861 52.7419 47.745 52.0785 47.0059 51.6383C46.2458 51.1857 45.4671 50.6463 44.919 50.2458C44.1304 49.6692 42.6114 50.133 42.9226 51.5081C42.9897 51.7696 43.1162 52.0121 43.2924 52.2166C43.4686 52.4211 43.6896 52.5822 43.9382 52.6874C44.0782 52.7502 44.2224 52.8032 44.3697 52.8461C44.4246 52.8598 44.4734 52.8913 44.5085 52.9356C44.5436 52.98 44.5632 53.0347 44.564 53.0912C44.5648 53.1478 44.547 53.203 44.5132 53.2484C44.4794 53.2938 44.4316 53.3267 44.3771 53.3421C43.6803 53.5826 42.4043 53.7252 40.3459 52.9701C37.7084 51.9992 37.5038 58.0181 41.1097 59.0659H41.1234C44.4453 60.0703 48.0203 59.9414 51.4538 59.7975C55.3528 59.6498 59.2326 59.1765 63.0528 58.3827C64.9959 57.971 66.9923 57.5432 68.7704 56.664C71.8332 55.15 74.0404 53.414 76.1397 50.712C78.4957 47.6827 79.5014 43.7085 80.0693 39.9823C80.7191 35.7192 79.8213 32.1195 77.536 28.4503L77.4517 28.3164" stroke="#262626" stroke-width="0.5" stroke-miterlimit="10"/>
<path d="M43.524 53.5114L42.3944 50.1113C42.3694 50.0321 42.3246 49.9606 42.2643 49.9036C42.204 49.8465 42.1301 49.8057 42.0497 49.7852C42.0397 49.7852 42.0286 49.7852 42.0174 49.7777C42.0063 49.7703 42.0038 49.7777 41.9963 49.7777C41.9703 49.776 41.9442 49.776 41.9182 49.7777C41.7929 49.7782 41.6724 49.826 41.5809 49.9116C41.4892 49.9964 41.416 50.0992 41.3658 50.2135C41.3157 50.3279 41.2897 50.4514 41.2896 50.5763C41.2896 50.674 41.3051 50.7711 41.3354 50.864C41.5834 51.5819 42.0249 52.8777 42.2344 53.468" stroke="#262626" stroke-width="0.5" stroke-miterlimit="10"/>
<path d="M42.0509 49.7849C42.041 49.7849 42.0298 49.7849 42.0187 49.7774C42.0075 49.77 42.005 49.7774 41.9976 49.7774L41.359 49.6534C41.018 49.5902 40.677 49.522 40.336 49.4587C39.9268 49.3769 39.5151 49.3087 39.1072 49.2107C39.0109 49.1835 38.9119 49.1669 38.812 49.1611C38.6864 49.1608 38.5654 49.2092 38.4748 49.2963C38.3822 49.3809 38.3085 49.484 38.2583 49.5989C38.2081 49.7139 38.1826 49.838 38.1834 49.9634C38.1828 50.06 38.1983 50.1559 38.2292 50.2474C38.5033 51.0509 39.0253 52.5711 39.1915 53.0324" stroke="#262626" stroke-width="0.5" stroke-miterlimit="10"/>
<path d="M57.6191 13.2471C57.6191 14.8591 57.9329 16.4004 58.7066 17.8239C59.3266 18.9672 60.2368 20.1192 61.5388 20.4974C61.8273 20.5806 62.1263 20.6223 62.4266 20.6214C64.6363 20.6114 64.981 17.9938 64.981 17.9938" stroke="#262626" stroke-width="0.5" stroke-miterlimit="10"/>
<path d="M67.9892 14.1816V14.1891C67.8868 14.9889 67.7108 15.7776 67.4634 16.5451C67.1679 17.4606 67.0982 18.4339 67.2601 19.3822L67.6035 21.3798C67.6192 21.4688 67.6596 21.5516 67.7201 21.6187C67.7807 21.6859 67.8589 21.7346 67.9458 21.7593C72.3056 23.0253 76.1757 25.819 78.4275 29.8528C81.2361 34.8896 81.7482 40.9557 81.5213 46.6101C81.3217 51.5118 80.5293 56.385 79.4046 61.1553C78.7171 64.0708 77.3943 66.7985 75.5308 69.1437C73.6672 71.4889 71.3089 73.3937 68.6241 74.7222C65.0911 76.4863 61.4425 78.0088 57.7034 79.2792C55.7241 79.9347 53.9157 81.023 52.4097 82.4651C50.9037 83.9071 49.738 85.6666 48.9974 87.6157L40.2107 110.98C39.8878 111.842 39.2509 112.551 38.4276 112.964L30.008 117.193C28.9448 117.726 27.7319 117.88 26.5695 117.63C26.2681 117.565 25.9932 117.411 25.7808 117.187C25.5683 116.964 25.4281 116.681 25.3783 116.377C25.3285 116.073 25.3715 115.761 25.5017 115.481C25.6319 115.202 25.8432 114.968 26.1082 114.81L30.4085 112.252L36.3221 82.1051C36.7382 79.4156 37.7319 76.8481 39.2348 74.5791C40.7376 72.3101 42.714 70.3936 45.0281 68.9611C45.3366 68.7731 45.6582 68.6073 45.9904 68.4651L58.8095 62.8988" stroke="#262626" stroke-width="0.5" stroke-miterlimit="10"/>
<path d="M64.4651 6.35411C63.7798 6.19077 63.0703 6.15463 62.3719 6.24747C62.3433 6.2481 62.3147 6.25059 62.2864 6.25491" stroke="#262626" stroke-width="0.5" stroke-miterlimit="10"/>
<path d="M61.3601 21.0986C61.3601 21.0986 59.0922 26.298 63.1482 26.5546C66.7876 26.7878 68.1231 21.8426 68.1231 21.8426" stroke="#262626" stroke-width="0.5" stroke-miterlimit="10"/>
<path d="M67.704 15.7481C67.73 15.6526 68.1206 14.2427 67.3741 13.3549C66.6276 12.4671 65.6158 13.9898 65.5141 14.1423C65.7125 11.9562 64.1935 10.2983 64.1935 10.2983C64.754 12.2339 64.0323 13.4987 64.0323 13.4987C61.2584 14.1485 59.732 13.6537 58.6495 13.4405C58.543 12.7522 58.5565 12.0508 58.6892 11.3672C58.2735 11.9519 58.0339 12.6433 57.9985 13.3599H57.9811C57.569 13.2503 57.1783 13.0722 56.8254 12.8329L56.2761 12.4609C57.1069 8.22998 60.006 5.56646 64.4874 6.34766C68.9688 7.12886 69.094 12.2823 69.094 12.2823L68.0958 12.6704C68.0958 12.6704 68.1045 14.3717 67.704 15.7481Z" stroke="#262626" stroke-width="0.5" stroke-miterlimit="10"/>
<path d="M59.3575 15.5273V17.5845C59.3577 17.6096 59.3638 17.6342 59.3753 17.6565C59.3867 17.6788 59.4032 17.698 59.4235 17.7127C59.4438 17.7275 59.4672 17.7372 59.4919 17.7412C59.5167 17.7452 59.542 17.7434 59.5659 17.7358C59.7277 17.6822 59.8764 17.5952 60.0023 17.4803" stroke="#262626" stroke-width="0.5" stroke-miterlimit="10"/>
<path d="M58.1273 17.0894C58.7762 16.8364 59.0171 15.8999 58.6654 14.9977C58.3136 14.0955 57.5024 13.5692 56.8535 13.8222C56.2046 14.0752 55.9637 15.0117 56.3155 15.9139C56.6673 16.8161 57.4784 17.3424 58.1273 17.0894Z" stroke="#262626" stroke-width="0.5" stroke-miterlimit="10"/>
<path d="M62.0321 17.6773C62.681 17.4243 62.9219 16.4878 62.5702 15.5856C62.2184 14.6834 61.4072 14.1571 60.7583 14.4101C60.1094 14.6631 59.8685 15.5995 60.2203 16.5018C60.572 17.404 61.3832 17.9302 62.0321 17.6773Z" stroke="#262626" stroke-width="0.5" stroke-miterlimit="10"/>
<path d="M58.812 15.6335C58.812 15.6335 59.1964 15.1945 60.0024 15.7091" stroke="#262626" stroke-width="0.5" stroke-miterlimit="10"/>
<path d="M61.1779 20.3672C61.1779 20.3672 61.4569 21.3121 62.2777 24.3749" stroke="#262626" stroke-width="0.5" stroke-miterlimit="10"/>
<path d="M40.6261 109.877L45.4621 107.267C45.7393 107.116 45.9755 106.901 46.1504 106.638C46.3252 106.376 46.4333 106.075 46.4653 105.761C47.2688 97.8687 47.0233 92.8789 47.0233 92.8789" stroke="#262626" stroke-width="0.5" stroke-miterlimit="10"/>
<path d="M36.2365 69.3999L17.6254 56.3936" stroke="#262626" stroke-width="0.5" stroke-miterlimit="10"/>
<path d="M35.1825 72.9839L17.6254 60.7129" stroke="#262626" stroke-width="0.5" stroke-miterlimit="10"/>
<path d="M106.375 48.2618V58.9096C106.375 59.3979 106.233 59.8757 105.967 60.2849C105.7 60.6941 105.321 61.0171 104.874 61.2148L91.6683 67.0626L87.6308 73.1982C87.527 73.3503 87.3774 73.4655 87.2037 73.5269C87.03 73.5884 86.8413 73.5931 86.6648 73.5402C86.4883 73.4873 86.3333 73.3796 86.222 73.2327C86.1108 73.0859 86.0492 72.9074 86.0461 72.7232V69.5538L84.692 70.1527C84.3909 70.2844 84.0617 70.3392 83.7341 70.3122C83.4065 70.2852 83.0907 70.1772 82.8152 69.9979C82.5397 69.8187 82.313 69.5737 82.1556 69.2852C81.9981 68.9966 81.9148 68.6735 81.9132 68.3448V59.4528C81.9134 58.3437 82.2378 57.2589 82.8465 56.3318C83.4552 55.4047 84.3217 54.6758 85.3393 54.2348L103.488 46.367C103.802 46.2306 104.145 46.1746 104.487 46.2039C104.828 46.2332 105.157 46.3469 105.443 46.5349C105.729 46.7228 105.964 46.9791 106.127 47.2806C106.29 47.582 106.375 47.9192 106.375 48.2618Z" fill="#EBF2F4"/>
<path d="M90.1749 62.1796C90.8254 60.9247 90.6493 59.5428 89.7817 59.0931C88.9141 58.6433 87.6834 59.2961 87.0329 60.551C86.3824 61.8059 86.5584 63.1878 87.4261 63.6376C88.2937 64.0873 89.5244 63.4346 90.1749 62.1796Z" fill="white"/>
<path d="M95.8149 59.7656C96.4654 58.5106 96.2893 57.1287 95.4217 56.679C94.5541 56.2293 93.3234 56.882 92.6729 58.1369C92.0224 59.3919 92.1985 60.7738 93.0661 61.2235C93.9337 61.6732 95.1644 61.0205 95.8149 59.7656Z" fill="white"/>
<path d="M101.265 57.1581C101.916 55.9032 101.74 54.5213 100.872 54.0716C100.004 53.6219 98.7737 54.2746 98.1233 55.5295C97.4728 56.7844 97.6488 58.1663 98.5164 58.6161C99.384 59.0658 100.615 58.4131 101.265 57.1581Z" fill="white"/>
</svg>
