<svg width="124" height="124" viewBox="0 0 124 124" fill="none" xmlns="http://www.w3.org/2000/svg">
<path d="M28.52 52.5987C28.52 52.5987 21.8451 32.848 45.1274 35.2586C68.4096 37.6691 57.2856 28.9271 66.0834 23.5021C74.8812 18.0771 100.803 34.9548 89.9583 51.2335C79.1133 67.5122 107.29 52.6211 113.167 77.1011C116.794 92.2081 107.796 103.327 100.372 109.63" stroke="#DEEAED" stroke-width="0.5" stroke-miterlimit="10"/>
<path d="M102.642 90.756C100.893 80.624 94.6976 71.5571 84.6325 68.312C82.0577 67.4866 79.4249 66.8545 76.756 66.421V66.4347C76.6169 67.2758 76.2874 68.074 75.7926 68.7683C74.7435 70.2055 73.2977 71.386 71.6237 72.001C69.915 72.6334 67.7983 72.7153 66.2123 71.7208C65.2575 71.1231 64.3312 70.0703 64.1638 68.9345C63.9729 67.6548 64.6251 66.4433 65.5427 65.5977C57.7654 65.6609 50.4494 66.9406 44.5867 68.3976C44.7899 69.2484 45.0714 70.0786 45.4274 70.8776C45.9257 71.9915 46.63 73.0012 47.5032 73.8536C48.5923 72.7747 49.5458 71.5671 50.3428 70.2576C51.1052 70.5072 51.7774 70.9753 52.2759 71.6039C52.7744 72.2324 53.0771 72.9936 53.1464 73.7928V73.8337C53.454 76.7366 50.659 78.9177 48.3104 80.2594C45.5973 81.8193 42.573 82.9874 39.6019 83.9583C38.3768 84.3601 36.7846 84.7023 35.4913 84.2832C35.352 84.2389 35.2161 84.1846 35.0846 84.1208C33.795 83.4884 32.932 82.1628 32.2586 80.9513C30.3404 77.5103 29.0929 73.7593 28.2472 69.9091C22.3783 70.6593 21.7062 66.6851 21.3578 65.7105L16.337 79.7461C16.0737 80.755 16.0452 81.8108 16.2538 82.8325C16.4623 83.8541 16.9024 84.8143 17.54 85.6393C18.1777 86.4643 18.9961 87.1321 19.9322 87.5913C20.8684 88.0506 21.8973 88.289 22.94 88.2884H43.7249L53.1663 112.506L55.8422 119.379H71.1264C69.8864 119.379 69.2082 119.076 68.7159 118.583C68.2075 118.074 67.9212 117.385 67.9198 116.666C67.9198 115.178 69.1412 113.958 71.1264 113.958H71.2666C71.1165 113.958 70.9727 113.944 70.8226 113.93C70.9156 113.92 71.0079 113.905 71.0992 113.884C71.0009 113.882 70.9028 113.875 70.8053 113.862C71.7007 113.756 72.5305 113.339 73.1495 112.684C73.7685 112.028 74.1374 111.176 74.1917 110.276C74.1942 110.229 74.1942 110.183 74.1917 110.136V110.064C74.1703 109.141 73.8177 108.257 73.1982 107.573C72.5787 106.889 71.7337 106.45 70.8177 106.338C70.9218 106.329 71.021 106.32 71.1215 106.32C71.031 106.298 70.9305 106.285 70.8363 106.271C70.9851 106.257 71.1351 106.247 71.279 106.247L82.4613 106.307L84.5184 106.316H86.96C87.0728 106.316 87.1869 106.316 87.2948 106.329L90.9218 106.348L93.3448 106.361C94.3574 106.37 95.3255 106.779 96.0372 107.499C96.749 108.22 97.1465 109.193 97.1429 110.205C97.1416 110.778 97.0088 111.343 96.7548 111.856C97.7943 111.723 98.7584 111.242 99.4902 110.492C101.235 108.71 101.986 106.043 102.506 103.672C103.425 99.4484 103.37 94.9981 102.642 90.756ZM74.3901 91.0412C72.2834 94.2838 68.696 93.9924 68.696 93.9924C68.696 93.9924 68.3984 94.2826 67.704 93.0475C67.0096 91.8125 65.0318 90.9681 65.0318 90.9681C64.8744 92.2081 64.5482 94.0929 61.3118 91.6501C58.0754 89.2073 59.0513 85.646 59.3278 83.7649C59.6044 81.8838 60.7067 81.2601 60.7067 81.2601L62.0087 80.5731C62.0087 80.5731 58.2428 79.6047 58.0618 79.5687C57.8808 79.5328 54.5266 76.7242 57.9304 75.9827C61.3342 75.2411 66.6401 78.1899 67.6656 78.7727C68.6911 79.3555 74.684 84.4246 74.684 84.4246C74.684 84.4246 76.508 87.8036 74.3901 91.0412Z" fill="#595D5F"/>
<path d="M28.2422 69.9099C28.2422 69.9099 31.0805 69.5652 32.1432 67.5391L31.2169 72.7359C31.2169 72.7359 42.5084 68.8919 44.5792 68.3959C44.5792 68.3959 45.2463 72.6975 47.9024 73.8519L50.6428 70.3675C50.6428 70.3675 54.0788 71.2355 53.1389 75.9177C52.199 80.6 39.1988 84.5134 36.9941 84.4229C34.7894 84.3324 32.416 82.9758 29.9856 75.6859L28.2422 69.9099Z" fill="#595D5F"/>
<path d="M32.8661 58.3359C33.5853 59.5065 34.3083 60.6746 35.0547 61.8278C35.5148 62.5383 36.353 63.5514 35.4615 64.2941C35.1713 64.5166 34.8208 64.6462 34.4558 64.6661C33.8829 64.717 33.2815 64.5793 32.9331 64.0871L31.1971 61.2103C30.8511 60.6365 30.3017 60.2141 29.6584 60.027C29.015 59.84 28.3248 59.9021 27.7251 60.2009V60.2009" stroke="#262626" stroke-width="0.5" stroke-miterlimit="10"/>
<path d="M39.432 62.1231C39.8859 63.2019 39.5784 63.8975 39.0476 64.2472C38.1796 64.8164 37.0178 64.5436 36.4027 63.7128L32.8724 58.3398" stroke="#262626" stroke-width="0.5" stroke-miterlimit="10"/>
<path d="M35.8546 56.7715C37.1393 58.3339 38.76 61.2355 39.6565 62.447C40.553 63.6585 41.9393 62.9281 41.9393 62.9281C43.0652 62.3218 42.8743 61.3161 42.382 60.0947C41.1693 57.0964 39.4382 55.1025 37.5076 53.7955C31.5246 49.7482 25.3866 52.7341 23.56 59.7202L16.337 79.745C16.0737 80.7539 16.0452 81.8098 16.2538 82.8314C16.4623 83.8531 16.9024 84.8133 17.54 85.6383C18.1777 86.4632 18.9961 87.131 19.9322 87.5903C20.8684 88.0495 21.8973 88.288 22.94 88.2874H43.7249L55.8459 119.379" stroke="#262626" stroke-width="0.5" stroke-miterlimit="10"/>
<path d="M43.276 58.7193C44.764 58.2035 44.6958 55.8301 42.5841 55.0291C40.2517 54.1437 36.1101 52.8913 35.0697 52.5788C35.0633 52.5738 35.0555 52.5708 35.0474 52.5702C34.9742 52.5478 34.9234 52.5292 34.8837 52.5206L34.8254 52.502" stroke="#262626" stroke-width="0.5" stroke-miterlimit="10"/>
<path d="M65.2612 82.4514C63.9592 80.8866 60.3955 80 58.0692 79.5709C57.6783 79.4975 57.3217 79.299 57.0534 79.0053C56.785 78.7117 56.6193 78.3388 56.5812 77.9428C56.5543 77.6756 56.5851 77.4058 56.6718 77.1517C56.8104 76.7614 57.0761 76.4291 57.4262 76.2078C57.7762 75.9866 58.1905 75.8893 58.6024 75.9315C62.5704 76.3333 66.6624 77.582 69.6893 80.2715C69.6893 80.2715 84.3622 91.4687 86.1143 92.5587C86.8372 92.9976 87.5118 92.4793 87.022 91.7899L86.8682 91.527C86.0058 90.0469 84.9851 88.6648 83.824 87.4052" stroke="#262626" stroke-width="0.5" stroke-miterlimit="10"/>
<path d="M65.5328 65.5954C47.0791 65.7491 31.217 72.7353 31.217 72.7353L32.8005 63.8594" stroke="#262626" stroke-width="0.5" stroke-miterlimit="10"/>
<path d="M94.1942 113.903C94.1942 113.903 92.1841 113.448 91.6497 115.058C91.1153 116.667 90.5573 119.228 94.4 119.379C98.2428 119.53 95.986 118.775 95.764 117.531C95.5421 116.288 94.1942 113.903 94.1942 113.903Z" fill="#595D5F"/>
<path d="M63.4881 84.4937C63.4881 84.4937 61.3194 82.8495 59.3664 84.5161C59.2841 84.5885 59.2124 84.6719 59.1531 84.7641" stroke="#262626" stroke-width="0.5" stroke-miterlimit="10"/>
<g opacity="0.77">
<path opacity="0.77" d="M36.3953 63.7077C37.0153 64.5398 38.1759 64.8113 39.0402 64.2409C39.5647 63.8937 39.8722 63.2018 39.4295 62.1329C39.5101 62.2507 39.5833 62.3549 39.6552 62.4504C40.5505 63.6668 41.9381 62.934 41.9381 62.934C43.064 62.3276 42.8743 61.322 42.382 60.0993C41.9003 58.8883 41.2683 57.7427 40.5009 56.6893C41.0031 56.2194 41.5995 55.7444 42.2282 55.9528C42.9065 56.1784 43.0962 57.0291 43.1731 57.7384C43.2091 58.0682 43.245 58.3943 43.281 58.7242L43.8241 63.58C44.0051 65.192 44.1862 66.8276 44.5793 68.4011C44.7825 69.2519 45.0639 70.0821 45.42 70.8811C45.9183 71.995 46.6226 73.0047 47.4957 73.8571C48.5848 72.7782 49.5384 71.5706 50.3353 70.2611C51.0977 70.5107 51.77 70.9788 52.2684 71.6074C52.7669 72.2359 53.0696 72.9971 53.139 73.7964V73.8373C53.4465 76.7401 50.6515 78.9213 48.303 80.263C45.5899 81.8229 42.5655 82.9909 39.5945 83.9619C38.3693 84.3636 36.7772 84.7059 35.4839 84.2867C35.3446 84.2424 35.2087 84.1881 35.0771 84.1243C33.7875 83.4919 32.9245 82.1663 32.2512 80.9549C29.0272 75.1579 27.688 68.5016 26.9824 61.9097C28.3935 61.715 29.7997 61.498 31.1885 61.1992C31.1885 61.1992 31.1885 61.2091 31.1972 61.2128L32.798 63.8677L32.9295 64.0884C33.2767 64.5844 33.8781 64.7171 34.4522 64.6675C34.8172 64.6494 35.1679 64.5195 35.4566 64.2955C36.3469 63.5515 35.5111 62.5421 35.0499 61.8316" fill="white"/>
<path opacity="0.77" d="M36.3953 63.7077C37.0153 64.5398 38.1759 64.8113 39.0402 64.2409C39.5647 63.8937 39.8722 63.2018 39.4295 62.1329C39.5101 62.2507 39.5833 62.3549 39.6552 62.4504C40.5505 63.6668 41.9381 62.934 41.9381 62.934C43.064 62.3276 42.8743 61.322 42.382 60.0993C41.9003 58.8883 41.2683 57.7427 40.5009 56.6893C41.0031 56.2194 41.5995 55.7444 42.2282 55.9528C42.9065 56.1784 43.0962 57.0291 43.1731 57.7384C43.2091 58.0682 43.245 58.3943 43.281 58.7242L43.8241 63.58C44.0051 65.192 44.1862 66.8276 44.5793 68.4011C44.7825 69.2519 45.0639 70.0821 45.42 70.8811C45.9183 71.995 46.6226 73.0047 47.4957 73.8571C48.5848 72.7782 49.5384 71.5706 50.3353 70.2611C51.0977 70.5107 51.77 70.9788 52.2684 71.6074C52.7669 72.2359 53.0696 72.9971 53.139 73.7964V73.8373C53.4465 76.7401 50.6515 78.9213 48.303 80.263C45.5899 81.8229 42.5655 82.9909 39.5945 83.9619C38.3693 84.3636 36.7772 84.7059 35.4839 84.2867C35.3446 84.2424 35.2087 84.1881 35.0771 84.1243C33.7875 83.4919 32.9245 82.1663 32.2512 80.9549C29.0272 75.1579 27.688 68.5016 26.9824 61.9097C28.3935 61.715 29.7997 61.498 31.1885 61.1992C31.1885 61.1992 31.1885 61.2091 31.1972 61.2128L32.798 63.8677L32.9295 64.0884C33.2767 64.5844 33.8781 64.7171 34.4522 64.6675C34.8172 64.6494 35.1679 64.5195 35.4566 64.2955C36.3469 63.5515 35.5111 62.5421 35.0499 61.8316" fill="#46E9FF"/>
<path opacity="0.77" d="M36.7759 64.1016C37.3252 64.8456 38.2639 64.7513 39.0402 64.2417C39.5089 63.9317 39.8933 64.0222 39.4977 63.0662C39.5709 63.1703 39.5808 62.8182 39.6453 62.8963C40.4451 63.9825 39.6552 62.4474 39.6552 62.4474C40.7712 63.8573 43.2004 62.5292 42.7552 61.4393C42.284 60.265 41.788 58.529 41.1593 57.661C41.6553 57.1923 41.5598 57.2617 42.191 57.635C42.3606 57.7439 42.5025 57.8908 42.6056 58.0641C42.7087 58.2373 42.7701 58.4321 42.785 58.6332C42.8358 59.1056 42.8866 59.5582 42.9375 60.0195L43.4211 64.3595C43.5835 65.8016 43.7447 67.2586 44.0956 68.6623C44.2771 69.4213 44.5286 70.1619 44.8471 70.8744C45.291 71.8553 46.717 73.4884 47.4957 74.2361C48.4642 73.2751 49.6248 71.5081 50.3353 70.3338C51.6993 70.7529 51.6398 72.0574 51.7365 73.4822V73.5194C52.0118 76.1097 49.5169 78.0553 47.4263 79.2544C45.0033 80.6469 42.3038 81.6885 39.6515 82.5565C38.5578 82.9161 37.1368 83.2261 35.9823 82.8466C35.8578 82.8073 35.7363 82.7588 35.619 82.7016C34.4683 82.1361 33.697 80.9544 33.0956 79.8719C30.4631 75.1438 29.2417 69.7758 28.5696 64.3942C28.5203 63.9915 28.6293 63.5855 28.8735 63.2616C29.1178 62.9377 29.4783 62.7214 29.879 62.6582C30.6342 62.5342 31.3869 62.4102 32.1346 62.244L32.1557 62.254L33.5842 64.6236C33.8954 65.0638 33.9462 64.7191 34.4584 64.6744C34.782 64.6459 35.4094 64.5827 35.6599 64.3731C36.4548 63.711 36.0059 63.4369 35.5942 62.8033" fill="#46E9FF"/>
</g>
<path d="M63.2264 86.886C63.2264 86.886 59.1084 85.5319 59.0464 87.8086" stroke="#262626" stroke-width="0.5" stroke-miterlimit="10"/>
<path opacity="0.54" d="M26.3649 110.076L18.2888 89.3858C18.1887 88.9854 18.1812 88.5674 18.2669 88.1637C18.3525 87.76 18.5291 87.3811 18.7831 87.0559C19.0371 86.7306 19.3619 86.4675 19.7329 86.2866C20.1038 86.1056 20.5111 86.0117 20.9238 86.0117H53.0026C53.7229 86.0116 54.4223 86.254 54.988 86.6998C55.5538 87.1457 55.953 87.769 56.1212 88.4694L64.9624 109.155C65.0579 109.554 65.0618 109.97 64.9738 110.37C64.8857 110.771 64.7079 111.147 64.4539 111.469C64.1998 111.791 63.876 112.052 63.5069 112.231C63.1377 112.41 62.7328 112.503 62.3224 112.503H29.4761C28.7611 112.503 28.0666 112.265 27.5029 111.825C26.9392 111.385 26.5386 110.77 26.3649 110.076Z" fill="white"/>
<path d="M64.5667 90.3761C64.5667 90.3761 65.2351 90.9886 64.9809 91.8641C64.7924 92.5126 64.1476 92.9218 63.509 92.6998C61.4754 91.9967 59.6439 90.8026 59.1975 88.7727C58.9866 87.745 58.9409 86.6901 59.0624 85.6479C59.1603 84.682 59.3029 83.6391 59.6278 82.7203C60.1238 81.3092 61.6428 80.3259 63.1172 81.0054" stroke="#262626" stroke-width="0.5" stroke-miterlimit="10"/>
<path d="M26.3649 110.076L18.2888 89.3858C18.1887 88.9854 18.1812 88.5674 18.2669 88.1637C18.3525 87.76 18.5291 87.3811 18.7831 87.0559C19.0371 86.7306 19.3619 86.4675 19.7329 86.2866C20.1038 86.1056 20.5111 86.0117 20.9238 86.0117H53.0026C53.7229 86.0116 54.4223 86.254 54.988 86.6998C55.5538 87.1457 55.953 87.769 56.1212 88.4694L64.9624 109.155C65.0579 109.554 65.0618 109.97 64.9738 110.37C64.8857 110.771 64.7079 111.147 64.4539 111.469C64.1998 111.791 63.876 112.052 63.5069 112.231C63.1377 112.41 62.7328 112.503 62.3224 112.503H29.4761C28.7611 112.503 28.0666 112.265 27.5029 111.825C26.9392 111.385 26.5386 110.77 26.3649 110.076Z" fill="#46E9FF"/>
<path d="M26.3649 110.076L18.2888 89.3858C18.1887 88.9854 18.1812 88.5674 18.2669 88.1637C18.3525 87.76 18.5291 87.3811 18.7831 87.0559C19.0371 86.7306 19.3619 86.4675 19.7329 86.2866C20.1038 86.1056 20.5111 86.0117 20.9238 86.0117H53.0026C53.7229 86.0116 54.4223 86.254 54.988 86.6998C55.5538 87.1457 55.953 87.769 56.1212 88.4694L64.9624 109.155C65.058 109.554 65.0618 109.97 64.9738 110.37C64.8857 110.771 64.7079 111.147 64.4539 111.469C64.1998 111.791 63.876 112.052 63.5069 112.231C63.1377 112.41 62.7328 112.503 62.3224 112.503H29.4761C28.7611 112.503 28.0666 112.265 27.5029 111.825C26.9392 111.385 26.5386 110.77 26.3649 110.076Z" stroke="#262626" stroke-width="0.5" stroke-linecap="square" stroke-linejoin="round"/>
<path d="M27.5466 109.244L20.0955 90.1476C20.0033 89.7781 19.9966 89.3926 20.0757 89.0202C20.1549 88.6478 20.3178 88.2983 20.5522 87.9983C20.7866 87.6983 21.0863 87.4557 21.4285 87.2888C21.7707 87.1219 22.1464 87.0351 22.5271 87.0352H52.1209C52.7854 87.0349 53.4306 87.2584 53.9525 87.6696C54.4743 88.0808 54.8426 88.6558 54.9977 89.3019L63.1557 108.387C63.2437 108.755 63.2472 109.138 63.1659 109.508C63.0845 109.878 62.9204 110.224 62.6859 110.522C62.4514 110.819 62.1527 111.059 61.812 111.224C61.4714 111.39 61.0977 111.475 60.7191 111.476H30.416C29.7575 111.476 29.1176 111.257 28.5979 110.852C28.0781 110.448 27.7081 109.882 27.5466 109.244Z" fill="#46E9FF"/>
<path d="M90.8821 106.248L96.5563 119.378" stroke="#262626" stroke-width="0.5" stroke-miterlimit="10"/>
<path d="M117.8 119.379H6.19995" stroke="#262626" stroke-width="0.5" stroke-miterlimit="10"/>
<path d="M65.0219 60.1172C64.1018 61.0261 62.7279 61.0249 61.9454 60.1841" stroke="#262626" stroke-width="0.5" stroke-miterlimit="10"/>
<path d="M40.5009 56.6854C41.0031 56.2154 41.5995 55.7405 42.2282 55.9488C42.9065 56.1745 43.0962 57.0252 43.1731 57.7344C43.3905 59.6837 43.6075 61.6309 43.8241 63.5761C44.0993 66.0561 44.3895 68.5956 45.4199 70.8747C45.9182 71.9886 46.6225 72.9983 47.4957 73.8507" stroke="#262626" stroke-width="0.5" stroke-miterlimit="10"/>
<path d="M53.139 73.8359V73.795C53.0697 72.9958 52.7669 72.2346 52.2685 71.606C51.77 70.9775 51.0978 70.5093 50.3354 70.2598C49.5384 71.5693 48.5848 72.7769 47.4958 73.8558C44.6404 76.6949 40.9724 78.5753 37.0004 79.2361C37.1914 79.9962 37.5845 80.6882 37.856 81.4198C38.1276 82.1514 38.2627 82.9983 37.9329 83.7039C37.5163 84.6041 36.3209 84.4863 35.4901 84.2866C35.4814 84.2866 35.4765 84.2866 35.4678 84.2866" stroke="#262626" stroke-width="0.5" stroke-miterlimit="10"/>
<path d="M31.1909 61.1973C29.8021 61.4961 28.396 61.7131 26.9849 61.9078C27.6904 68.4996 29.0247 75.1559 32.2536 80.9529C32.9269 82.1644 33.79 83.49 35.0796 84.1224C35.2111 84.1862 35.347 84.2405 35.4863 84.2848C36.7796 84.7101 38.3718 84.3617 39.5969 83.9599C42.5729 82.9878 45.5923 81.8209 48.3054 80.261C50.6478 78.9181 53.4427 76.7382 53.1414 73.8353C53.1123 73.5157 53.0469 73.2004 52.9467 72.8954" stroke="#262626" stroke-width="0.5" stroke-miterlimit="10"/>
<path d="M54.4137 48.0479C54.6217 48.9156 55.0968 49.6961 55.772 50.2794C56.4472 50.8627 57.2884 51.2194 58.1771 51.2992C58.2509 50.9412 58.4109 50.6067 58.6433 50.3246C59.6353 49.1553 60.0582 51.3488 63.2313 49.774C67.6284 47.5867 69.2974 48.8415 69.2974 48.8415C69.4437 48.9507 69.4214 49.9575 69.4462 50.1411C69.5702 51.1864 69.6818 52.2267 69.8046 53.2708C69.879 53.9082 69.9521 54.5406 70.0216 55.173C70.0814 55.0654 70.1477 54.9614 70.22 54.8617C70.6205 53.4444 71.336 51.7704 72.8785 52.4909C73.1908 52.6431 73.4628 52.867 73.6721 53.1443C74.6951 54.4885 73.9201 55.7868 72.85 56.7478C72.5818 57.0459 72.282 57.3141 71.956 57.5476C72.1321 57.9121 72.8513 59.3592 72.8513 59.3642C72.9257 59.5105 75.4391 56.6659 75.6264 56.3559C75.9061 55.5965 76.0562 54.7955 76.0703 53.9863C76.1112 50.6594 74.7571 46.7869 72.0626 44.8785C71.3943 44.4061 71.6075 43.951 71.5666 43.3087C71.5638 43.2739 71.5505 43.2409 71.5285 43.2139C71.5064 43.1869 71.4768 43.1672 71.4433 43.1574C71.4099 43.1476 71.3743 43.1481 71.3412 43.159C71.308 43.1698 71.279 43.1904 71.2579 43.2181C70.4134 44.1903 68.3228 44.0936 68.3228 44.0936C61.0663 42.2757 58.6272 45.5022 57.1628 46.0776C56.5653 46.3039 55.9075 46.3149 55.3028 46.1086C55.2672 46.3088 55.1776 46.4954 55.0436 46.6484C54.9096 46.8014 54.7364 46.9149 54.5427 46.9766L54.5799 47.3126C54.6114 47.5696 54.5527 47.8295 54.4137 48.0479Z" fill="#46E9FF"/>
<path d="M58.1821 51.3054C57.2934 51.2256 56.4521 50.8689 55.7769 50.2856C55.1017 49.7023 54.6267 48.9218 54.4187 48.0541V48.0541C54.3372 47.7213 54.2858 47.3818 54.2649 47.0398L54.3219 47.0336C54.3999 47.0277 54.4767 47.0111 54.5501 46.984C54.7439 46.9223 54.9171 46.8088 55.051 46.6558C55.185 46.5028 55.2746 46.3162 55.3102 46.116C55.3329 46.005 55.3375 45.8911 55.3239 45.7787L55.1379 44.1369C55.1379 44.1369 56.4498 45.1128 57.9055 44.5424C59.3613 43.972 61.8053 40.7455 69.0655 42.5584C69.0655 42.5584 70.7048 42.6551 71.5455 41.683C71.5667 41.6553 71.5957 41.6347 71.6288 41.6238C71.6619 41.613 71.6976 41.6124 71.731 41.6222C71.7644 41.632 71.7941 41.6517 71.8161 41.6787C71.8381 41.7057 71.8514 41.7388 71.8543 41.7735C71.8977 42.4171 72.1358 42.8721 72.8054 43.3433C75.4999 45.2529 76.854 49.1242 76.8118 52.4511C76.7994 53.8313 76.3406 55.194 75.6326 56.3633C75.4453 56.6733 72.9319 59.5179 72.8575 59.3716C72.8575 59.3716 72.1383 57.9195 71.9622 57.555L71.92 57.4744L72.0006 57.4211C72.2999 57.2179 72.5857 56.9954 72.8562 56.7552C73.9251 55.7942 74.7013 54.4959 73.6783 53.1517C73.469 52.8745 73.197 52.6505 72.8847 52.4983C71.3372 51.7778 70.6267 53.4518 70.2262 54.8691C70.1484 55.14 70.1006 55.4186 70.0836 55.6999C70.065 55.5263 70.0464 55.3589 70.0278 55.1853C69.9583 54.5529 69.8852 53.9205 69.8108 53.2832C69.6868 52.2391 69.5702 51.1987 69.4524 50.1534C69.4338 49.9749 69.4524 48.963 69.3036 48.8539C69.3036 48.8539 67.6333 47.599 63.2375 49.7864C60.0644 51.3612 59.6415 49.1664 58.6495 50.3369C58.4171 50.619 58.2571 50.9536 58.1833 51.3116C58.1606 51.4265 58.1461 51.543 58.1399 51.66C58.1375 51.6752 58.1375 51.6907 58.1399 51.7059C58.125 51.9626 58.1201 52.218 58.1139 52.4685C58.0903 54.8853 58.3557 57.4099 59.3043 59.6543C60.4575 62.3749 63.5091 65.0582 66.6823 63.7897C67.6743 63.3917 68.5633 62.7506 69.3768 62.0698" stroke="#262626" stroke-width="0.5" stroke-miterlimit="10"/>
<path d="M60.3535 57.1995C60.6692 57.0939 60.8215 56.6987 60.6937 56.3168C60.5659 55.9349 60.2065 55.711 59.8908 55.8166C59.5752 55.9222 59.4229 56.3174 59.5507 56.6993C59.6785 57.0811 60.0379 57.3051 60.3535 57.1995Z" fill="#262626"/>
<path d="M65.075 57.0471C65.3906 56.9415 65.5429 56.5463 65.4151 56.1645C65.2873 55.7826 64.9279 55.5586 64.6123 55.6642C64.2966 55.7699 64.1444 56.165 64.2721 56.5469C64.3999 56.9288 64.7593 57.1527 65.075 57.0471Z" fill="#262626"/>
<path d="M63.2698 57.8668C63.2698 57.8668 61.6987 58.7583 61.6032 57.8333C61.5735 57.5481 61.1891 54.7544 61.1891 54.7544C61.1891 54.7544 59.9193 53.409 57.9738 54.4034" stroke="#262626" stroke-width="0.5" stroke-miterlimit="10"/>
<path d="M62.9164 53.971C62.9164 53.971 65.4534 52.7037 67.1324 54.5303" stroke="#262626" stroke-width="0.5" stroke-miterlimit="10"/>
<path d="M65.2426 64.0996L65.534 65.595C64.6151 66.442 63.9654 67.6559 64.1551 68.9344C64.3237 70.0677 65.2513 71.123 66.2023 71.7169C67.792 72.7089 69.9062 72.6308 71.6174 71.9997C73.2902 71.3797 74.7373 70.2029 75.7863 68.767C76.2803 68.0728 76.6094 67.2751 76.7485 66.4345V66.4197" stroke="#262626" stroke-width="0.5" stroke-miterlimit="10"/>
<path d="M65.5339 65.5957L66.1019 68.2964" stroke="#262626" stroke-width="0.5" stroke-miterlimit="10"/>
<path d="M73.5654 58.7188L74.4235 64.4166C74.5081 64.9743 74.79 65.4832 75.2181 65.8507C75.6461 66.2182 76.1918 66.4199 76.7559 66.4192V66.4192C79.4264 66.852 82.0609 67.4836 84.6374 68.3089C94.7024 71.5552 100.897 80.6221 102.647 90.7529C103.375 94.995 103.43 99.4441 102.516 103.663C101.996 106.037 101.245 108.704 99.5 110.483C97.2345 112.801 93.7576 111.847 91.0804 110.799C82.7687 107.566 75.8557 101.815 69.8863 95.2306C66.6945 91.709 62.5703 88.8867 62.5703 88.8867" stroke="#262626" stroke-width="0.5" stroke-miterlimit="10"/>
<path d="M30.2932 104.968C29.3607 104.96 28.5485 104.207 28.3389 103.159C27.9248 101.098 27.8157 97.9115 30.8375 97.2158C34.6133 96.3478 37.5174 100.46 38.9409 103.059C39.4196 103.927 38.8777 105.043 37.9861 105.043L30.2932 104.968Z" fill="#EBF2F4"/>
<path d="M31.5397 95.4666C32.3413 94.9332 32.3536 93.5427 31.5672 92.3608C30.7807 91.1788 29.4933 90.6531 28.6917 91.1865C27.8901 91.7199 27.8778 93.1105 28.6642 94.2924C29.4507 95.4743 30.7381 96 31.5397 95.4666Z" fill="#EBF2F4"/>
<path d="M93.5914 113.97C93.5332 113.979 93.4674 113.987 93.4104 114.001H93.3881L84.568 113.955L71.3334 113.887C71.2826 113.887 71.233 113.887 71.1834 113.887C71.0851 113.885 70.987 113.877 70.8895 113.865C71.7862 113.76 72.6174 113.343 73.2368 112.687C73.8562 112.03 74.2242 111.176 74.276 110.275C74.2785 110.228 74.2785 110.181 74.276 110.135V110.063C74.2724 109.181 73.9651 108.327 73.4059 107.646C72.8467 106.964 72.0698 106.495 71.2057 106.319C71.1152 106.297 71.016 106.283 70.9205 106.27C71.0706 106.256 71.2194 106.246 71.3644 106.246L82.5455 106.306L84.6039 106.314L87.3803 106.328C88.3309 106.415 89.215 106.853 89.8596 107.557C90.5043 108.261 90.8631 109.18 90.8659 110.135C90.8661 110.315 90.8524 110.495 90.825 110.673C90.6929 111.582 90.2389 112.413 89.5458 113.015C88.8526 113.618 87.9663 113.951 87.048 113.955H93.7663C93.3794 113.955 93.4873 113.955 93.5914 113.97Z" fill="white"/>
<path d="M75.7007 118.582C75.9527 118.836 76.2524 119.036 76.5825 119.173C76.9127 119.31 77.2667 119.38 77.624 119.378H71.1289C69.8889 119.378 69.2118 119.076 68.7183 118.582C68.2111 118.073 67.9255 117.384 67.9235 116.665C67.9235 115.177 69.1436 113.957 71.1289 113.957H77.624C77.0878 113.956 76.5633 114.115 76.1172 114.412C75.6711 114.71 75.3233 115.133 75.118 115.628C74.9127 116.124 74.8591 116.669 74.9639 117.195C75.0688 117.721 75.3274 118.203 75.7069 118.582H75.7007Z" fill="#EBF2F4"/>
<path d="M97.1516 110.203C97.15 110.776 97.0168 111.341 96.7623 111.854C96.5805 112.241 96.3311 112.594 96.0257 112.894C95.5222 113.393 94.8898 113.742 94.1992 113.902C93.9145 113.968 93.6233 114.001 93.3312 114.001C93.3907 113.988 93.4552 113.979 93.5122 113.97C93.4081 113.96 93.3002 113.957 93.6883 113.957H86.9688C87.8877 113.953 88.7748 113.62 89.4685 113.017C90.1622 112.414 90.6163 111.582 90.7483 110.673C90.7756 110.495 90.7893 110.315 90.7892 110.135C90.7863 109.18 90.4273 108.261 89.7824 107.557C89.1375 106.853 88.2532 106.415 87.3023 106.328L90.9293 106.347L93.3523 106.36C94.3648 106.369 95.3328 106.778 96.0447 107.498C96.7567 108.218 97.1546 109.191 97.1516 110.203Z" fill="#46E9FF"/>
<path d="M97.1515 110.202C97.144 111.216 96.7352 112.185 96.0147 112.897C95.2942 113.609 94.3207 114.007 93.3075 114.003L71.2454 113.889C71.0979 113.889 70.9503 113.878 70.8015 113.863C71.7315 113.758 72.5905 113.315 73.2158 112.618C73.841 111.922 74.1891 111.02 74.194 110.084C74.1989 109.148 73.8603 108.243 73.2423 107.54C72.6244 106.837 71.77 106.385 70.8412 106.27C70.9887 106.255 71.1368 106.247 71.2851 106.248L93.3472 106.362C94.3603 106.369 95.3294 106.777 96.0424 107.497C96.7553 108.216 97.1542 109.189 97.1515 110.202Z" stroke="#262626" stroke-width="0.5" stroke-linecap="square" stroke-linejoin="round"/>
<path d="M90.7865 110.136C90.7845 111.149 90.3813 112.119 89.665 112.836C88.9487 113.552 87.9778 113.955 86.9648 113.957H71.2677C71.1194 113.956 70.9712 113.948 70.8237 113.932C71.7531 113.822 72.6096 113.375 73.2312 112.675C73.8527 111.975 74.196 111.072 74.196 110.136C74.196 109.2 73.8527 108.297 73.2312 107.597C72.6096 106.898 71.7531 106.45 70.8237 106.34C70.9713 106.326 71.1201 106.316 71.2677 106.316H86.9648C87.9773 106.319 88.9476 106.722 89.6637 107.437C90.3799 108.153 90.7836 109.123 90.7865 110.136V110.136Z" stroke="#262626" stroke-width="0.5" stroke-linecap="square" stroke-linejoin="round"/>
<path d="M67.9236 116.667C67.9235 117.023 67.9935 117.375 68.1297 117.703C68.2659 118.032 68.4655 118.33 68.7172 118.582C69.2132 119.078 69.8865 119.379 71.1277 119.379H93.6871C93.2989 119.379 93.4043 119.371 93.5097 119.361C92.8497 119.284 92.241 118.967 91.7994 118.47C91.3577 117.973 91.1138 117.332 91.1138 116.667C91.1138 116.002 91.3577 115.361 91.7994 114.864C92.241 114.367 92.8497 114.05 93.5097 113.972C93.4043 113.963 93.2989 113.955 93.6871 113.955H71.1277C69.1413 113.956 67.9236 115.176 67.9236 116.667Z" stroke="#262626" stroke-width="0.5" stroke-linecap="square" stroke-linejoin="round"/>
<path d="M74.9048 116.667C74.9064 117.386 75.1927 118.075 75.7009 118.583C76.2091 119.091 76.8979 119.377 77.6167 119.379H93.1948C93.2989 119.379 93.4043 119.371 93.5097 119.361C92.8497 119.284 92.241 118.967 91.7994 118.47C91.3577 117.973 91.1138 117.332 91.1138 116.667C91.1138 116.002 91.3577 115.361 91.7994 114.864C92.241 114.367 92.8497 114.05 93.5097 113.972C93.4043 113.963 93.2989 113.955 93.1948 113.955H77.6167C76.898 113.957 76.2094 114.243 75.7012 114.752C75.1931 115.26 74.9067 115.948 74.9048 116.667V116.667Z" stroke="#262626" stroke-width="0.5" stroke-linecap="square" stroke-linejoin="round"/>
<path d="M49.6521 95.9757H42.6933C42.3749 95.9752 42.0635 95.882 41.7971 95.7077C41.5307 95.5333 41.3208 95.2852 41.1929 94.9937C41.1435 94.8851 41.1224 94.7659 41.1315 94.647C41.1406 94.528 41.1796 94.4134 41.245 94.3136C41.3103 94.2139 41.3998 94.1323 41.5052 94.0764C41.6106 94.0206 41.7283 93.9923 41.8476 93.9942H49.2454C48.897 94.5808 49.0743 95.3954 49.6521 95.9757Z" fill="#EBF2F4"/>
<path d="M54.1521 95.2607C54.1518 95.4504 54.0763 95.6322 53.9422 95.7663C53.8081 95.9004 53.6263 95.9759 53.4366 95.9762H49.6521C49.0743 95.3971 48.897 94.5824 49.2454 93.9922H52.5872C52.9052 93.9923 53.2164 94.0846 53.4829 94.2581C53.7495 94.4315 53.96 94.6786 54.0889 94.9693C54.1289 95.0613 54.1504 95.1604 54.1521 95.2607Z" fill="#46E9FF"/>
<path d="M52.4111 95.9751C52.3915 96.0129 52.3687 96.049 52.3429 96.083C51.8469 96.7612 50.7694 96.827 49.9324 96.2144C49.8334 96.1414 49.7398 96.0614 49.6521 95.9751C49.0743 95.396 48.897 94.5813 49.2454 93.9911C49.265 93.9532 49.2878 93.9171 49.3136 93.8832C49.8096 93.2 50.8822 93.1392 51.7192 93.7468C51.82 93.8222 51.9149 93.9051 52.0032 93.9948C52.5761 94.5714 52.7546 95.3811 52.4111 95.9751Z" fill="white"/>
<path d="M55.9016 99.6291C55.9003 99.819 55.824 100.001 55.6892 100.134C55.5545 100.268 55.3723 100.343 55.1824 100.343H47.8801C48.2322 99.7507 48.0561 98.9422 47.4771 98.3594H54.3367C54.6552 98.3595 54.9668 98.4522 55.2335 98.6264C55.5001 98.8006 55.7103 99.0486 55.8384 99.3402C55.8792 99.4311 55.9008 99.5295 55.9016 99.6291Z" fill="#46E9FF"/>
<path d="M47.8801 100.342H44.444C44.126 100.342 43.8147 100.25 43.5481 100.076C43.2814 99.9026 43.071 99.6554 42.9424 99.3645C42.9019 99.2735 42.8803 99.1752 42.8792 99.0756C42.879 98.9817 42.8974 98.8888 42.9332 98.802C42.969 98.7153 43.0216 98.6365 43.088 98.5702C43.1543 98.5038 43.2331 98.4512 43.3199 98.4154C43.4066 98.3795 43.4996 98.3612 43.5934 98.3613H47.4771C48.0562 98.9404 48.236 99.7489 47.8801 100.342Z" fill="#EBF2F4"/>
<path d="M47.8802 100.341C47.864 100.38 47.8428 100.416 47.8169 100.45C47.3209 101.132 46.2471 101.194 45.4113 100.585C45.3102 100.51 45.2148 100.427 45.1261 100.337C44.552 99.7579 44.3759 98.9494 44.7194 98.3529C44.7393 98.3148 44.7621 98.2784 44.7876 98.2438C45.2836 97.5655 46.3612 97.4998 47.1969 98.1136C47.2964 98.186 47.3901 98.266 47.4772 98.3529C48.0562 98.9395 48.236 99.7479 47.8802 100.341Z" fill="white"/>
<path d="M50.3129 104.68H45.9407C45.6228 104.679 45.3117 104.587 45.0452 104.413C44.7788 104.24 44.5682 103.993 44.4391 103.702C44.3898 103.594 44.3689 103.474 44.3781 103.355C44.3873 103.236 44.4264 103.121 44.4918 103.021C44.5572 102.921 44.6468 102.839 44.7522 102.783C44.8576 102.727 44.9755 102.698 45.095 102.699H49.9062C49.5615 103.293 49.7388 104.1 50.3129 104.68Z" fill="#46E9FF"/>
<path d="M57.3983 103.968C57.3973 104.157 57.3216 104.337 57.1877 104.47C57.0539 104.603 56.8727 104.678 56.6841 104.677H50.313C49.7388 104.098 49.5615 103.29 49.9062 102.693H55.8334C56.1519 102.693 56.4635 102.786 56.7302 102.96C56.9968 103.135 57.207 103.383 57.3351 103.674C57.3759 103.767 57.3975 103.867 57.3983 103.968Z" fill="#EBF2F4"/>
<path d="M53.0721 104.678C53.0522 104.716 53.0294 104.752 53.0039 104.787C52.5079 105.469 51.4353 105.531 50.5983 104.922C50.4978 104.846 50.4029 104.763 50.3143 104.674C49.7402 104.095 49.5629 103.286 49.9076 102.69C49.9265 102.651 49.9489 102.615 49.9745 102.581C50.4705 101.902 51.5481 101.844 52.3851 102.45C52.4846 102.523 52.5783 102.603 52.6653 102.69C53.2432 103.276 53.4193 104.09 53.0721 104.678Z" fill="white"/>
<path d="M20.0396 65.1445L20.1487 65.1755L20.1078 65.3343C20.0818 65.2722 20.0591 65.2089 20.0396 65.1445Z" fill="#595D5F"/>
<path d="M39.4452 75.066C41.0774 74.5869 41.9351 72.6126 41.3608 70.6564C40.7866 68.7002 38.9979 67.5029 37.3656 67.982C35.7334 68.4612 34.8757 70.4354 35.4499 72.3916C36.0242 74.3478 37.8129 75.5452 39.4452 75.066Z" fill="#EBF2F4"/>
</svg>
