<svg width="240" height="160" viewBox="0 0 240 160" fill="none" xmlns="http://www.w3.org/2000/svg">
<path d="M57.5329 75.688C57.5329 75.688 56.2489 76.2328 55.9609 79.3912" stroke="#DEEAED" stroke-miterlimit="10"/>
<path d="M140.133 82.3312C141.013 82.3312 141.726 81.6178 141.726 80.7376C141.726 79.8575 141.013 79.144 140.133 79.144C139.253 79.144 138.539 79.8575 138.539 80.7376C138.539 81.6178 139.253 82.3312 140.133 82.3312Z" fill="#EBF2F4"/>
<path d="M139.457 75.9619C140.928 78.0763 140.131 80.7379 140.131 80.7379C140.131 80.7379 142.397 79.6387 144.42 81.2011" stroke="#DEEAED" stroke-miterlimit="10"/>
<path d="M140.131 85.979C140.131 85.979 142.291 81.7214 140.131 80.7374C139.733 80.555 136.517 79.0862 134.402 81.2006" stroke="#DEEAED" stroke-miterlimit="10"/>
<path d="M167.363 82.6266C168.243 82.6266 168.957 81.9132 168.957 81.033C168.957 80.1529 168.243 79.4395 167.363 79.4395C166.483 79.4395 165.77 80.1529 165.77 81.033C165.77 81.9132 166.483 82.6266 167.363 82.6266Z" fill="#EBF2F4"/>
<path d="M163.395 78.2943C165.946 78.6399 167.364 81.0399 167.364 81.0399C167.364 81.0399 168.084 78.6279 170.609 78.2007" stroke="#DEEAED" stroke-miterlimit="10"/>
<path d="M163.82 85.5591C163.748 83.7279 164.945 82.5063 165.98 81.8007C166.413 81.4963 166.879 81.2403 167.369 81.0375C167.625 80.9302 167.906 80.8919 168.181 80.9264C168.457 80.9609 168.719 81.0671 168.941 81.2343C169.21 81.416 169.452 81.6341 169.661 81.8823" stroke="#DEEAED" stroke-miterlimit="10"/>
<path d="M121.761 110.459C121.568 109.735 121.471 108.989 121.473 108.239V41.3537C121.48 39.0159 122.411 36.776 124.064 35.123C125.717 33.4699 127.957 32.5382 130.295 32.5312H153.791C176.236 32.5312 194.591 50.896 194.591 73.3312V90.424" stroke="#DEEAED" stroke-miterlimit="10"/>
<path d="M140.133 57.6472C141.013 57.6472 141.726 56.9337 141.726 56.0536C141.726 55.1734 141.013 54.46 140.133 54.46C139.253 54.46 138.539 55.1734 138.539 56.0536C138.539 56.9337 139.253 57.6472 140.133 57.6472Z" fill="#EBF2F4"/>
<path d="M139.457 51.2803C140.928 53.3947 140.131 56.0563 140.131 56.0563C140.131 56.0563 142.397 54.9571 144.42 56.5171" stroke="#DEEAED" stroke-miterlimit="10"/>
<path d="M140.131 61.2949C140.131 61.2949 142.291 57.0374 140.131 56.0534C139.733 55.871 136.517 54.4021 134.402 56.5141" stroke="#DEEAED" stroke-miterlimit="10"/>
<path d="M167.363 57.9421C168.243 57.9421 168.957 57.2286 168.957 56.3485C168.957 55.4684 168.243 54.7549 167.363 54.7549C166.483 54.7549 165.77 55.4684 165.77 56.3485C165.77 57.2286 166.483 57.9421 167.363 57.9421Z" fill="#EBF2F4"/>
<path d="M163.395 53.6106C165.946 53.961 167.364 56.349 167.364 56.349C167.364 56.349 168.084 53.949 170.609 53.5098" stroke="#DEEAED" stroke-miterlimit="10"/>
<path d="M171.22 59.9006C171.22 59.9006 169.552 55.4294 167.366 56.3486C166.963 56.519 163.701 57.8894 163.824 60.875" stroke="#DEEAED" stroke-miterlimit="10"/>
<path d="M99.7928 82.3312C100.673 82.3312 101.386 81.6178 101.386 80.7376C101.386 79.8575 100.673 79.144 99.7928 79.144C98.9127 79.144 98.1992 79.8575 98.1992 80.7376C98.1992 81.6178 98.9127 82.3312 99.7928 82.3312Z" fill="#EBF2F4"/>
<path d="M100.471 75.9619C98.9998 78.0763 99.7942 80.7379 99.7942 80.7379C99.7942 80.7379 97.5286 79.6387 95.5078 81.2011" stroke="#DEEAED" stroke-miterlimit="10"/>
<path d="M99.792 85.979C99.792 85.979 97.632 81.7214 99.792 80.7374C100.193 80.555 103.409 79.0862 105.523 81.2006" stroke="#DEEAED" stroke-miterlimit="10"/>
<path d="M45.2656 71.1786C46.2136 49.5642 64.2856 32.5386 86.128 32.5386H108.042C110.38 32.5455 112.62 33.4773 114.273 35.1303C115.926 36.7833 116.858 39.0233 116.865 41.361V108.239C116.867 108.989 116.77 109.735 116.577 110.459" stroke="#DEEAED" stroke-miterlimit="10"/>
<path d="M99.7928 57.6472C100.673 57.6472 101.386 56.9337 101.386 56.0536C101.386 55.1734 100.673 54.46 99.7928 54.46C98.9127 54.46 98.1992 55.1734 98.1992 56.0536C98.1992 56.9337 98.9127 57.6472 99.7928 57.6472Z" fill="#EBF2F4"/>
<path d="M100.471 51.2803C98.9998 53.3947 99.7942 56.0563 99.7942 56.0563C99.7942 56.0563 97.5286 54.9571 95.5078 56.5171" stroke="#DEEAED" stroke-miterlimit="10"/>
<path d="M99.792 61.2949C99.792 61.2949 97.632 57.0374 99.792 56.0534C100.193 55.871 103.409 54.4021 105.523 56.5141" stroke="#DEEAED" stroke-miterlimit="10"/>
<path d="M72.5584 57.9421C73.4386 57.9421 74.152 57.2286 74.152 56.3485C74.152 55.4684 73.4386 54.7549 72.5584 54.7549C71.6783 54.7549 70.9648 55.4684 70.9648 56.3485C70.9648 57.2286 71.6783 57.9421 72.5584 57.9421Z" fill="#EBF2F4"/>
<path d="M76.5269 53.6106C73.9781 53.961 72.5573 56.349 72.5573 56.349C72.5573 56.349 71.8373 53.949 69.3125 53.5098" stroke="#DEEAED" stroke-miterlimit="10"/>
<path d="M68.707 59.9006C68.707 59.9006 70.387 55.4294 72.559 56.3486C72.9646 56.519 76.2238 57.8894 76.1014 60.875" stroke="#DEEAED" stroke-miterlimit="10"/>
<path d="M137.091 86.0801C144.341 87.7356 150.922 91.5437 155.97 97.0049C156.051 97.0937 156.138 97.1825 156.21 97.2761C156.21 97.2761 149.461 111.503 126.524 109.722C124.714 109.583 123.032 109.391 121.465 109.166" stroke="#DEEAED" stroke-miterlimit="10"/>
<path d="M156.219 97.2832C149.982 94.6418 143.395 92.916 136.664 92.1592" stroke="#DEEAED" stroke-miterlimit="10"/>
<path d="M101.008 98.4303L101.029 98.4087" stroke="#DEEAED" stroke-miterlimit="10"/>
<path d="M37.5039 112.067C38.6511 114.436 40.0479 116.627 41.2671 117.861C41.4025 117.817 41.5355 117.766 41.6655 117.707V117.707C45.6999 116.164 48.7743 112.907 49.6623 109.216C50.3991 106.151 49.7295 102.856 51.1479 99.9737C52.8759 96.4313 57.5871 94.2257 58.1607 90.2201C58.7055 86.4929 55.4199 83.0585 55.9551 79.3913C55.9791 79.2665 56.0223 79.0073 56.0223 79.0073" stroke="#DEEAED" stroke-miterlimit="10"/>
<path d="M39.2539 80.9129C40.5979 79.4921 42.1579 78.1769 43.2379 76.5929C46.2595 72.1745 45.0979 66.5129 47.0395 61.6745C49.3987 55.7513 56.8387 51.6257 64.1395 52.1633C63.4444 54.9834 62.9725 57.8538 62.7283 60.7481C62.5147 63.3449 63.0283 66.2345 62.4619 68.7401C62.1962 69.7709 61.7323 70.7401 61.0963 71.5937" stroke="#DEEAED" stroke-miterlimit="10"/>
<path d="M41.2344 121.36C41.3592 120.265 41.5056 119.044 41.6688 117.714C43.056 106.782 47.2824 84.8798 52.5432 70.0166" stroke="#DEEAED" stroke-miterlimit="10"/>
<path d="M59.6743 56.8291C57.2743 60.0115 54.3943 65.6059 52.5391 70.0291" stroke="#DEEAED" stroke-miterlimit="10"/>
<path d="M52.2033 125.786L49.1192 143.985C49.0466 144.483 48.7995 144.939 48.422 145.272C48.0445 145.606 47.561 145.794 47.0576 145.804H30.9416C30.4333 145.794 29.9454 145.601 29.5664 145.263C29.1874 144.924 28.9422 144.46 28.8752 143.956L26.0312 125.786H52.2033Z" stroke="#DEEAED" stroke-miterlimit="10"/>
<path d="M55.1358 123.76C55.1076 124.299 54.8772 124.807 54.4905 125.183C54.1039 125.56 53.5896 125.777 53.0502 125.79H25.2414C24.7073 125.777 24.1975 125.565 23.812 125.195C23.4266 124.825 23.1934 124.324 23.1582 123.791V123.791C23.0406 122.488 24.0006 121.36 25.2414 121.36H53.0406C53.3401 121.367 53.6349 121.436 53.9062 121.564C54.1775 121.691 54.4194 121.873 54.6164 122.099C54.8135 122.324 54.9614 122.589 55.0508 122.875C55.1402 123.161 55.1692 123.462 55.1358 123.76Z" stroke="#DEEAED" stroke-miterlimit="10"/>
<path d="M39.185 86.584C39.185 84.9376 39.1707 82.6288 39.1562 80.2192L39.1994 80.4832C39.1994 80.5552 39.2138 80.6152 39.2234 80.6656C39.233 80.716 39.245 80.8288 39.2522 80.9056C39.4658 82.7464 39.3578 84.6592 39.185 86.584Z" stroke="#DEEAED" stroke-miterlimit="10"/>
<path d="M30.5508 90.8057C32.2788 100.708 33.4308 110.094 34.1676 117.021V117.04C34.2924 117.1 34.4244 117.158 34.5564 117.218C35.5164 116.047 36.5508 114.187 37.506 112.077C38.5075 109.856 39.3106 107.551 39.906 105.189C40.7724 101.615 39.2508 97.9337 38.898 94.2713C38.7647 92.4763 38.7944 90.6729 38.9868 88.8833" stroke="#DEEAED" stroke-miterlimit="10"/>
<path d="M34.5913 121.36C34.4737 120.066 34.3273 118.612 34.1641 117.04" stroke="#DEEAED" stroke-miterlimit="10"/>
<path d="M16.8672 46.48C23.3592 56.9248 27.72 74.56 30.5472 90.8032" stroke="#DEEAED" stroke-miterlimit="10"/>
<path d="M32.668 69.4024C32.668 69.4024 33.388 54.796 39.4216 50.356C45.4552 45.916 45.3232 70.8136 45.3232 70.8136" stroke="#DEEAED" stroke-miterlimit="10"/>
<path d="M39.2527 80.9125C39.2527 80.9125 38.0191 72.5557 40.1815 64.3525" stroke="#DEEAED" stroke-miterlimit="10"/>
<path d="M43.0938 52.1296C50.181 36.8752 66.3378 26.7808 85.3338 26.7808H154.559C179.695 26.7808 200.066 47.1544 200.066 72.2896" stroke="#DEEAED" stroke-miterlimit="10"/>
<path d="M200.07 72.2847V89.9319" stroke="#DEEAED" stroke-miterlimit="10"/>
<path d="M38.9964 89.1014C39.054 88.3358 39.1284 87.5726 39.186 86.807C39.186 85.1606 39.1716 82.8518 39.1572 80.4422C38.9958 79.3795 38.6864 78.3447 38.238 77.3678C36.8844 74.471 34.2468 72.407 32.6652 69.6278C29.754 64.511 30.8724 57.959 29.0124 52.3478C26.7396 45.4886 19.602 40.703 12.582 41.3342C13.2542 44.6157 13.7079 47.9382 13.9404 51.2798C14.1468 54.2798 13.6476 57.623 14.1996 60.5366C15.0876 65.219 19.8516 68.0558 20.4396 72.863C20.9556 77.1062 17.7996 81.083 18.3156 85.3982C18.7716 89.1998 21.882 91.5998 23.91 94.5998C24.3667 95.2586 24.7536 95.9632 25.0644 96.7022C26.418 100.041 25.7844 103.864 26.4828 107.399C27.3348 111.685 30.2916 115.465 34.1628 117.258V117.244C33.4428 110.317 32.274 100.924 30.546 91.0286" stroke="#DEEAED" stroke-miterlimit="10"/>
<path d="M55.6213 94.7201C56.0773 95.1833 57.0061 96.1121 57.4189 96.6401C60.0133 100.029 61.2709 104.255 64.1389 107.476C64.9679 108.406 65.9834 109.151 67.1192 109.663C68.255 110.175 69.4859 110.442 70.7318 110.447H155.039C158.56 110.447 162.09 110.423 165.618 110.447C166.36 110.447 167.104 110.447 167.838 110.447C171.551 110.469 174.131 110.07 176.219 106.71C176.85 105.705 177.419 104.661 178.012 103.631C179.241 101.418 180.453 99.2201 182.02 97.2929C182.02 97.2929 182.02 97.2929 182.02 97.2785C183.127 95.8859 184.453 94.6822 185.946 93.7145C188.585 92.0664 191.52 90.9472 194.586 90.4193C196.391 90.0899 198.221 89.9253 200.056 89.9273C207.113 89.9157 213.913 92.5749 219.09 97.3709C224.267 102.167 227.438 108.744 227.965 115.782C228.492 122.819 226.336 129.795 221.931 135.309C217.526 140.822 211.198 144.465 204.217 145.504C202.844 145.708 201.458 145.809 200.07 145.804H44.3438" stroke="#DEEAED" stroke-miterlimit="10"/>
<path d="M28.6094 143.2C18.8246 138.71 11.8862 128.896 12.0014 117.575C12.0272 115.068 12.4003 112.576 13.1102 110.171C14.9126 104.135 18.8438 98.9609 23.9102 95.3369" stroke="#DEEAED" stroke-miterlimit="10"/>
<path d="M149.733 110.459C148.615 110.246 147.511 109.968 146.426 109.626C146.426 109.626 172.559 98.0488 182.08 70.48C182.08 70.48 186.719 85.6768 182.037 97.276C182.037 97.276 182.037 97.276 182.037 97.2904" stroke="#DEEAED" stroke-miterlimit="10"/>
<path d="M178.022 103.636C177.646 104.044 177.248 104.433 176.831 104.8C173.621 107.586 169.769 109.532 165.621 110.461" stroke="#DEEAED" stroke-miterlimit="10"/>
<path d="M153.77 94.8281C155.402 92.3225 157.18 90.1241 158.961 88.8737C165.275 84.4697 179.45 76.6481 182.08 70.4873" stroke="#DEEAED" stroke-miterlimit="10"/>
<path d="M146.426 109.627C146.426 109.627 147.095 107.87 148.219 105.357" stroke="#DEEAED" stroke-miterlimit="10"/>
<path d="M26.0273 47.1019C33.1745 42.5875 41.4377 41.2939 50.0897 41.6467" stroke="#DEEAED" stroke-miterlimit="10"/>
<path d="M20.7064 97.9818C20.7064 97.9818 9.3784 78.3018 14.5168 61.7178" stroke="#DEEAED" stroke-miterlimit="10"/>
<path d="M200.041 89.8145C208.549 79.0577 211.768 64.5665 210.121 51.0857C208.148 34.9793 198.87 18.1097 181.405 15.7817C163.94 13.4537 147.923 23.8505 131.188 26.7809" stroke="#DEEAED" stroke-miterlimit="10"/>
<path d="M123.575 74.4688L72.2148 75.1672C73.2804 77.2336 75.2076 81.4527 75.6708 85.8063L104.639 94.6648C104.639 94.6648 57.4932 113.022 79.1436 138.009L79.7316 137.906L79.8636 137.884L79.8492 137.87C91.23 133.811 98.9412 129.556 104.036 125.915C106.876 123.239 109.609 120.635 112.424 117.933C112.467 117.873 112.506 117.812 112.542 117.748V117.748C112.559 117.748 112.573 117.748 112.588 117.748C118.482 112.082 124.753 105.971 133.084 97.9C141.889 89.3848 135.839 74.4688 123.575 74.4688ZM112.062 117.52C112.136 117.549 112.336 117.659 112.453 117.726C112.315 117.673 112.184 117.603 112.062 117.52V117.52Z" fill="#525252"/>
<path d="M162.835 135.643C162.836 138.419 161.738 141.082 159.78 143.049C157.822 145.017 155.164 146.128 152.388 146.14C135.038 146.222 99.0503 146.361 77.1647 146.311C77.4047 143.685 77.0927 140.606 76.8359 138.76C77.4405 138.655 78.0353 138.5 78.6143 138.297C78.9887 138.165 79.3559 138.04 79.7231 137.906L79.8551 137.884L79.8407 137.87C102.374 129.842 110.508 121.02 112.536 117.748C112.603 117.801 111.977 117.456 112.056 117.508C112.557 117.846 113.165 117.984 113.762 117.897L134.642 114.936C139.124 114.312 143.692 114.878 147.886 116.578C152.08 118.277 155.753 121.05 158.537 124.617C160.901 127.636 162.614 131.805 162.835 135.643Z" fill="#46E9FF"/>
<path d="M76.8008 138.429L79.7336 137.906C79.3664 138.04 78.9992 138.165 78.6248 138.297C78.0458 138.5 77.4509 138.655 76.8464 138.76C76.8176 138.64 76.8008 138.532 76.8008 138.429Z" fill="#46E9FF"/>
<path d="M197.459 127.636C197.459 127.636 185.6 142.192 175.741 143.737C175.638 143.631 175.543 143.518 175.456 143.399C175.057 142.869 174.868 142.23 174.596 141.635C174.482 141.382 174.344 141.141 174.184 140.915L176.375 138.534C176.888 137.97 177.591 137.614 178.349 137.532C179.107 137.451 179.869 137.65 180.491 138.093L181.271 138.64C183.366 140.125 186.035 137.625 184.254 135.537C183.762 134.963 183.197 134.456 182.574 134.029C185.183 133.259 191.214 131.389 190.196 127.626C189.109 123.642 192.932 122.452 193.153 122.586C194.041 123.16 194.848 123.85 195.553 124.638C196.321 125.547 196.962 126.555 197.459 127.636V127.636Z" fill="#46E9FF"/>
<path d="M199.451 145.501C199.451 145.501 191.358 145.919 184.681 145.823H184.659C184.599 145.823 184.542 145.823 184.484 145.823C184.05 145.801 183.558 145.787 183.027 145.758C193.931 143.265 199.657 135.333 199.885 135.025C200.958 140.039 200.994 144.88 199.451 145.501Z" fill="#46E9FF"/>
<path d="M97.4414 146.317H100.257" stroke="#262626" stroke-miterlimit="10"/>
<path d="M170.551 131.32V125.08C170.55 124.434 170.676 123.795 170.922 123.198C171.169 122.601 171.53 122.059 171.986 121.602C172.442 121.145 172.984 120.783 173.58 120.535C174.176 120.288 174.816 120.16 175.461 120.16H179.781V118.763C179.783 118.686 179.803 118.611 179.841 118.544C179.879 118.477 179.932 118.421 179.997 118.38C180.062 118.339 180.137 118.315 180.213 118.31C180.29 118.304 180.366 118.318 180.436 118.35L184.704 120.4C184.704 120.4 191.224 119.812 195.547 124.643C199.869 129.474 202.104 144.64 199.31 145.751C199.31 145.751 191.342 145.919 184.658 145.823" stroke="#262626" stroke-miterlimit="10"/>
<path d="M158.535 124.614C158.672 124.787 170.55 126.685 170.55 126.685" stroke="#262626" stroke-miterlimit="10"/>
<path d="M184.617 122.447C184.617 122.447 185.124 124.022 184.617 125.14" stroke="#262626" stroke-miterlimit="10"/>
<path d="M197.457 127.636C197.457 127.636 185.457 142.374 175.555 143.769" stroke="#262626" stroke-miterlimit="10"/>
<path d="M183.027 145.751C193.931 143.258 199.657 135.326 199.885 135.019" stroke="#262626" stroke-miterlimit="10"/>
<path d="M185.726 132.863H185.719" stroke="#262626" stroke-miterlimit="10"/>
<path d="M160.914 141.592C163.957 139.77 172.532 137.106 174.594 141.63C174.865 142.228 175.06 142.874 175.453 143.399C177.174 145.703 181.897 145.686 184.48 145.818C186.38 145.914 188.291 145.926 190.189 145.84" stroke="#262626" stroke-miterlimit="10"/>
<path d="M193.146 122.601C192.928 122.457 189.105 123.65 190.189 127.641C191.217 131.404 185.181 133.271 182.572 134.046C183.196 134.472 183.761 134.979 184.252 135.554C186.03 137.642 183.361 140.14 181.271 138.654L180.481 138.105C179.86 137.663 179.098 137.463 178.34 137.545C177.581 137.626 176.879 137.982 176.365 138.546L173.91 141.222" stroke="#262626" stroke-miterlimit="10"/>
<path d="M145.157 126.254L79.1328 138.009" stroke="#262626" stroke-miterlimit="10"/>
<path d="M112.533 117.76C112.919 117.917 113.341 117.968 113.754 117.907L134.634 114.945C139.116 114.321 143.683 114.887 147.878 116.587C152.072 118.286 155.745 121.059 158.529 124.627C160.888 127.648 162.609 131.827 162.822 135.667C162.817 138.434 161.719 141.088 159.767 143.049C157.815 145.011 155.166 146.122 152.399 146.14C135.049 146.222 99.0614 146.361 77.1758 146.311" stroke="#262626" stroke-miterlimit="10"/>
<path d="M77.1633 146.32C67.0833 146.296 59.9913 146.231 59.0938 146.107C59.0938 144.827 60.469 143.467 62.1586 142.351C63.8482 141.235 65.8497 140.402 67.1073 140.167L76.7889 138.439L79.1338 138.019" stroke="#262626" stroke-miterlimit="10"/>
<path d="M79.1354 138.009C57.485 113.022 104.64 94.6648 104.64 94.6648L94.685 91.6192C91.2794 90.5776 87.8378 89.6487 84.437 88.5783C82.7162 88.0383 75.6914 85.8063 75.6914 85.8063L72.785 86.1495C71.7216 86.2754 70.6436 86.1757 69.6213 85.8569C68.5991 85.538 67.6555 85.0073 66.8522 84.2992L52.9922 71.3919C52.8077 71.219 52.6696 71.0024 52.5907 70.762C52.5119 70.5217 52.4948 70.2654 52.541 70.0168V70.0168C52.5826 69.7978 52.6724 69.5908 52.8039 69.4109C52.9355 69.2311 53.1055 69.0827 53.3015 68.9768C53.4976 68.8708 53.7148 68.8099 53.9374 68.7984C54.1599 68.7869 54.3823 68.8251 54.5882 68.9104L67.157 74.1087C68.9063 74.8317 70.7844 75.191 72.677 75.1648L123.579 74.4687C135.85 74.4687 141.893 89.3847 133.085 97.9143C119.691 110.889 111.629 118.794 101.859 127.962" stroke="#262626" stroke-miterlimit="10"/>
<path d="M39.1562 81.1769C39.1569 81.1649 39.1569 81.1529 39.1562 81.1409C39.1571 81.1281 39.1571 81.1153 39.1562 81.1025V81.0737" stroke="#DEEAED" stroke-miterlimit="10"/>
<path d="M39.1445 71.1999V71.1855" stroke="#DEEAED" stroke-miterlimit="10"/>
<path d="M39.2208 89.8145L39 89.8361" stroke="#DEEAED" stroke-miterlimit="10"/>
</svg>
