<svg width="240" height="240" viewBox="0 0 240 240" fill="none" xmlns="http://www.w3.org/2000/svg">
<g opacity="0.38">
<g opacity="0.38">
<path opacity="0.38" d="M91.0329 134.441L90.9609 136.236H90.9969V139.075H94.7841V138.629L94.6113 134.441H91.0329Z" fill="#EBF2F4"/>
<path opacity="0.38" d="M89.2808 129.072C90.3129 130.15 90.9338 131.557 91.0352 133.046H94.616C94.704 131.689 95.2266 130.397 96.1064 129.36C96.7143 128.658 97.4663 128.096 98.3112 127.711C99.1561 127.326 100.074 127.128 101.002 127.13H102.097L102.308 121.956C102.363 121.083 102.238 120.207 101.94 119.385C101.642 118.562 101.178 117.809 100.577 117.174C99.9752 116.538 99.2494 116.033 98.4444 115.69C97.6395 115.348 96.7725 115.174 95.8976 115.181H89.7608C88.8867 115.173 88.0205 115.345 87.2159 115.687C86.4113 116.029 85.6857 116.532 85.0842 117.167C84.4826 117.801 84.0181 118.552 83.7194 119.373C83.4207 120.195 83.2943 121.069 83.348 121.941L83.5592 127.13H84.6584C85.5194 127.129 86.372 127.3 87.1659 127.634C87.9598 127.967 88.6789 128.456 89.2808 129.072V129.072Z" fill="#EBF2F4"/>
<path opacity="0.38" d="M113.537 134.441L113.465 136.236H113.501V139.075H117.288V138.629L117.118 134.441H113.537Z" fill="#EBF2F4"/>
<path opacity="0.38" d="M111.782 129.072C112.813 130.152 113.433 131.558 113.537 133.046H117.12C117.208 131.69 117.731 130.397 118.61 129.36C119.218 128.659 119.971 128.096 120.815 127.712C121.66 127.327 122.578 127.129 123.506 127.131H124.603L124.812 121.956C124.867 121.083 124.742 120.208 124.444 119.386C124.146 118.563 123.682 117.811 123.081 117.175C122.48 116.539 121.755 116.034 120.95 115.691C120.145 115.348 119.279 115.175 118.404 115.181H112.253C111.379 115.173 110.513 115.346 109.709 115.687C108.904 116.029 108.179 116.532 107.577 117.166C106.976 117.8 106.511 118.551 106.212 119.372C105.913 120.193 105.787 121.067 105.84 121.939L106.054 127.128H107.15C108.013 127.126 108.868 127.297 109.663 127.631C110.459 127.965 111.179 128.455 111.782 129.072V129.072Z" fill="#EBF2F4"/>
<path opacity="0.38" d="M136.045 134.441L135.971 136.236H136.007V139.075H139.794V138.629L139.624 134.441H136.045Z" fill="#EBF2F4"/>
<path opacity="0.38" d="M134.288 129.072C135.32 130.151 135.941 131.557 136.042 133.046H139.621C139.714 131.689 140.239 130.397 141.121 129.36C141.729 128.659 142.481 128.096 143.326 127.712C144.171 127.327 145.088 127.129 146.017 127.131H147.121L147.33 121.956C147.385 121.083 147.259 120.208 146.962 119.386C146.664 118.563 146.2 117.811 145.599 117.175C144.998 116.539 144.272 116.034 143.468 115.691C142.663 115.348 141.796 115.175 140.922 115.181H134.761C133.887 115.173 133.02 115.346 132.216 115.687C131.411 116.029 130.686 116.533 130.084 117.167C129.483 117.801 129.018 118.552 128.719 119.374C128.421 120.195 128.294 121.069 128.348 121.942L128.559 127.131H129.656C130.519 127.128 131.373 127.299 132.168 127.633C132.964 127.966 133.685 128.456 134.288 129.072V129.072Z" fill="#EBF2F4"/>
<path opacity="0.38" d="M158.551 134.441L158.479 136.236H158.515V139.075H162.299V138.629L162.129 134.441H158.551Z" fill="#EBF2F4"/>
<path opacity="0.38" d="M156.792 129.072C157.824 130.151 158.445 131.557 158.546 133.046H162.127C162.216 131.689 162.741 130.396 163.622 129.36C164.23 128.658 164.982 128.096 165.827 127.711C166.672 127.326 167.59 127.128 168.518 127.131H169.613L169.824 121.956C169.879 121.083 169.754 120.208 169.456 119.385C169.158 118.562 168.694 117.81 168.092 117.174C167.491 116.539 166.765 116.034 165.96 115.691C165.155 115.348 164.288 115.174 163.413 115.181H157.265C156.391 115.173 155.524 115.346 154.72 115.687C153.915 116.029 153.19 116.533 152.588 117.167C151.987 117.801 151.522 118.552 151.223 119.374C150.925 120.195 150.798 121.069 150.852 121.942L151.063 127.131H152.16C153.023 127.128 153.877 127.299 154.673 127.632C155.468 127.966 156.189 128.455 156.792 129.072V129.072Z" fill="#EBF2F4"/>
<path opacity="0.38" d="M181.054 134.441L180.982 136.236H181.018V139.075H184.806V138.627L184.633 134.441H181.054Z" fill="#EBF2F4"/>
<path opacity="0.38" d="M179.298 129.072C180.33 130.151 180.951 131.557 181.052 133.046H184.633C184.722 131.689 185.246 130.396 186.128 129.36C186.736 128.658 187.488 128.096 188.333 127.711C189.178 127.326 190.096 127.128 191.024 127.131H192.121L192.33 121.956C192.385 121.083 192.259 120.208 191.962 119.386C191.664 118.563 191.2 117.811 190.599 117.175C189.998 116.539 189.272 116.034 188.468 115.691C187.663 115.348 186.796 115.175 185.922 115.181H179.761C178.887 115.173 178.02 115.346 177.216 115.687C176.411 116.029 175.686 116.533 175.084 117.167C174.483 117.801 174.018 118.552 173.719 119.374C173.421 120.195 173.294 121.069 173.348 121.942L173.562 127.131H174.658C175.522 127.127 176.378 127.297 177.175 127.631C177.972 127.964 178.694 128.454 179.298 129.072V129.072Z" fill="#EBF2F4"/>
<path opacity="0.38" d="M203.558 134.441L203.486 136.236H203.52V139.075H207.307V136.236H212.64C213.112 136.236 213.566 136.054 213.907 135.727C214.247 135.4 214.448 134.953 214.466 134.482L214.502 133.558C214.27 133.826 213.985 134.043 213.664 134.195C213.344 134.348 212.995 134.431 212.64 134.441H203.558Z" fill="#EBF2F4"/>
<path opacity="0.38" d="M201.804 129.072C202.836 130.151 203.457 131.557 203.558 133.047H212.64C213.112 133.046 213.565 132.864 213.905 132.537C214.245 132.211 214.447 131.766 214.466 131.295L214.843 121.954C214.898 121.081 214.773 120.206 214.475 119.383C214.177 118.561 213.714 117.808 213.112 117.173C212.511 116.537 211.786 116.032 210.981 115.689C210.177 115.346 209.31 115.172 208.435 115.179H202.277C201.402 115.17 200.536 115.342 199.731 115.684C198.926 116.025 198.2 116.529 197.598 117.163C196.997 117.797 196.532 118.549 196.234 119.37C195.935 120.192 195.809 121.067 195.864 121.939L196.08 127.128H197.177C198.039 127.127 198.892 127.298 199.687 127.632C200.482 127.966 201.201 128.456 201.804 129.072V129.072Z" fill="#EBF2F4"/>
<path opacity="0.38" d="M91.0329 158.338L90.9609 160.13H90.9969V162.972H94.7841V162.523L94.6113 158.338H91.0329Z" fill="#EBF2F4"/>
<path opacity="0.38" d="M89.2808 152.966C90.3126 154.046 90.9333 155.453 91.0352 156.943H94.616C94.7049 155.584 95.2291 154.29 96.1112 153.252C96.72 152.551 97.4722 151.99 98.3169 151.605C99.1616 151.22 100.079 151.022 101.007 151.022H102.102L102.313 145.848C102.367 144.975 102.242 144.1 101.944 143.278C101.646 142.455 101.182 141.703 100.58 141.068C99.9791 140.432 99.2534 139.928 98.4486 139.585C97.6438 139.242 96.7771 139.069 95.9024 139.075H89.7608C88.8867 139.068 88.0205 139.24 87.2159 139.582C86.4113 139.923 85.6857 140.427 85.0842 141.061C84.4826 141.695 84.0181 142.446 83.7194 143.268C83.4207 144.089 83.2943 144.964 83.348 145.836L83.5592 151.022H84.6584C85.5195 151.022 86.372 151.194 87.1658 151.528C87.9596 151.862 88.6787 152.351 89.2808 152.966V152.966Z" fill="#EBF2F4"/>
<path opacity="0.38" d="M113.537 158.338L113.465 160.13H113.501V162.972H117.288V162.523L117.118 158.338H113.537Z" fill="#EBF2F4"/>
<path opacity="0.38" d="M111.783 152.966C112.812 154.047 113.433 155.454 113.537 156.943H117.12C117.209 155.584 117.733 154.29 118.615 153.252C119.224 152.551 119.976 151.99 120.821 151.605C121.666 151.22 122.583 151.022 123.511 151.022H124.608L124.817 145.848C124.872 144.975 124.746 144.1 124.448 143.278C124.15 142.456 123.686 141.704 123.085 141.068C122.484 140.433 121.759 139.928 120.954 139.585C120.15 139.243 119.283 139.069 118.409 139.075H112.253C111.379 139.068 110.513 139.24 109.708 139.582C108.904 139.923 108.178 140.427 107.576 141.061C106.975 141.695 106.51 142.446 106.212 143.268C105.913 144.089 105.786 144.964 105.84 145.836L106.054 151.022H107.151C108.013 151.022 108.867 151.193 109.663 151.527C110.458 151.861 111.179 152.35 111.783 152.966Z" fill="#EBF2F4"/>
<path opacity="0.38" d="M136.045 158.338L135.971 160.13H136.007V162.972H139.794V162.523L139.624 158.338H136.045Z" fill="#EBF2F4"/>
<path opacity="0.38" d="M134.288 152.966C135.32 154.046 135.941 155.453 136.042 156.943H139.621C139.713 155.584 140.239 154.29 141.121 153.252C141.73 152.551 142.482 151.99 143.326 151.605C144.171 151.22 145.089 151.022 146.017 151.022H147.121L147.33 145.848C147.384 144.975 147.259 144.1 146.961 143.278C146.663 142.456 146.199 141.704 145.598 141.068C144.997 140.433 144.272 139.928 143.467 139.585C142.663 139.243 141.796 139.069 140.922 139.075H134.761C133.887 139.068 133.02 139.24 132.216 139.582C131.411 139.923 130.686 140.427 130.084 141.061C129.483 141.695 129.018 142.446 128.719 143.268C128.421 144.089 128.294 144.964 128.348 145.836L128.559 151.022H129.656C130.519 151.022 131.373 151.193 132.168 151.527C132.963 151.861 133.684 152.35 134.288 152.966V152.966Z" fill="#EBF2F4"/>
<path opacity="0.38" d="M158.551 158.338L158.479 160.13H158.515V162.972H162.299V162.523L162.129 158.338H158.551Z" fill="#EBF2F4"/>
<path opacity="0.38" d="M156.792 152.966C157.824 154.046 158.444 155.453 158.546 156.943H162.127C162.216 155.584 162.74 154.29 163.622 153.252C164.231 152.551 164.983 151.99 165.828 151.605C166.673 151.22 167.59 151.022 168.518 151.022H169.613L169.824 145.848C169.879 144.975 169.753 144.1 169.455 143.278C169.157 142.455 168.693 141.703 168.091 141.068C167.49 140.432 166.765 139.928 165.96 139.585C165.155 139.242 164.288 139.069 163.413 139.075H157.265C156.391 139.068 155.524 139.24 154.72 139.582C153.915 139.923 153.19 140.427 152.588 141.061C151.987 141.695 151.522 142.446 151.223 143.268C150.925 144.089 150.798 144.964 150.852 145.836L151.063 151.022H152.16C153.023 151.021 153.877 151.192 154.672 151.526C155.468 151.86 156.189 152.35 156.792 152.966V152.966Z" fill="#EBF2F4"/>
<path opacity="0.38" d="M181.054 158.338L180.982 160.13H181.018V162.972H184.806V162.523L184.633 158.338H181.054Z" fill="#EBF2F4"/>
<path opacity="0.38" d="M179.298 152.966C180.329 154.046 180.95 155.453 181.052 156.943H184.633C184.722 155.584 185.246 154.29 186.128 153.252C186.737 152.551 187.489 151.99 188.334 151.605C189.178 151.22 190.096 151.022 191.024 151.022H192.121L192.33 145.848C192.384 144.975 192.259 144.1 191.961 143.278C191.663 142.456 191.199 141.704 190.598 141.068C189.997 140.433 189.272 139.928 188.467 139.585C187.663 139.243 186.796 139.069 185.922 139.075H179.761C178.887 139.068 178.02 139.24 177.216 139.582C176.411 139.923 175.686 140.427 175.084 141.061C174.483 141.695 174.018 142.446 173.719 143.268C173.421 144.089 173.294 144.964 173.348 145.836L173.562 151.022H174.658C175.522 151.02 176.378 151.191 177.175 151.525C177.972 151.858 178.693 152.349 179.298 152.966V152.966Z" fill="#EBF2F4"/>
<path opacity="0.38" d="M203.558 158.338L203.486 160.131H203.52V162.972H207.307V160.131H212.64C213.112 160.131 213.565 159.949 213.906 159.622C214.246 159.296 214.447 158.85 214.466 158.379L214.502 157.452C214.271 157.721 213.985 157.939 213.665 158.092C213.344 158.244 212.995 158.328 212.64 158.338H203.558Z" fill="#EBF2F4"/>
<path opacity="0.38" d="M201.804 152.966C202.836 154.046 203.456 155.453 203.558 156.943H212.64C213.112 156.942 213.565 156.76 213.905 156.433C214.246 156.106 214.447 155.66 214.466 155.189L214.843 145.848C214.898 144.975 214.772 144.1 214.474 143.278C214.177 142.456 213.713 141.704 213.112 141.069C212.51 140.433 211.785 139.928 210.981 139.586C210.176 139.243 209.31 139.069 208.435 139.075H202.277C201.402 139.067 200.536 139.239 199.731 139.58C198.926 139.922 198.2 140.425 197.598 141.06C196.997 141.694 196.532 142.445 196.234 143.267C195.935 144.089 195.809 144.963 195.864 145.836L196.075 151.022H197.172C198.035 151.022 198.889 151.194 199.684 151.527C200.479 151.861 201.2 152.35 201.804 152.966Z" fill="#EBF2F4"/>
<path opacity="0.38" d="M91.0329 182.235L90.9609 184.027H90.9969V186.867H94.7841V186.42L94.6113 182.235H91.0329Z" fill="#EBF2F4"/>
<path opacity="0.38" d="M89.2808 176.863C90.3126 177.942 90.9334 179.349 91.0352 180.838H94.616C94.7049 179.479 95.2292 178.186 96.1112 177.149C96.72 176.448 97.4722 175.887 98.3169 175.502C99.1616 175.117 100.079 174.919 101.007 174.919H102.102L102.313 169.745C102.367 168.872 102.242 167.997 101.944 167.175C101.646 166.352 101.182 165.6 100.58 164.965C99.9791 164.329 99.2534 163.825 98.4486 163.482C97.6438 163.139 96.7771 162.966 95.9024 162.972H89.7608C88.8867 162.965 88.0205 163.137 87.2159 163.479C86.4113 163.82 85.6857 164.324 85.0842 164.958C84.4826 165.592 84.0181 166.343 83.7194 167.165C83.4207 167.986 83.2943 168.861 83.348 169.733L83.5592 174.919H84.6584C85.5195 174.919 86.372 175.091 87.1658 175.425C87.9596 175.759 88.6787 176.248 89.2808 176.863V176.863Z" fill="#EBF2F4"/>
<path opacity="0.38" d="M113.537 182.235L113.465 184.027H113.501V186.867H117.288V186.42L117.118 182.235H113.537Z" fill="#EBF2F4"/>
<path opacity="0.38" d="M111.783 176.863C112.812 177.943 113.433 179.349 113.537 180.838H117.12C117.209 179.479 117.733 178.186 118.615 177.149C119.224 176.448 119.976 175.887 120.821 175.502C121.666 175.117 122.583 174.919 123.511 174.919H124.608L124.817 169.745C124.872 168.872 124.746 167.997 124.448 167.175C124.15 166.353 123.686 165.601 123.085 164.965C122.484 164.33 121.759 163.825 120.954 163.482C120.15 163.14 119.283 162.966 118.409 162.972H112.253C111.379 162.965 110.513 163.137 109.708 163.479C108.904 163.82 108.178 164.324 107.576 164.958C106.975 165.592 106.51 166.343 106.212 167.165C105.913 167.986 105.786 168.861 105.84 169.733L106.054 174.919H107.151C108.013 174.919 108.867 175.09 109.663 175.424C110.458 175.758 111.179 176.247 111.783 176.863Z" fill="#EBF2F4"/>
<path opacity="0.38" d="M136.045 182.235L135.971 184.027H136.007V186.867H139.794V186.42L139.624 182.235H136.045Z" fill="#EBF2F4"/>
<path opacity="0.38" d="M134.288 176.863C135.32 177.942 135.941 179.349 136.042 180.838H139.621C139.713 179.479 140.239 178.186 141.121 177.149C141.73 176.448 142.482 175.887 143.326 175.502C144.171 175.117 145.089 174.919 146.017 174.919H147.121L147.33 169.745C147.384 168.872 147.259 167.997 146.961 167.175C146.663 166.353 146.199 165.601 145.598 164.965C144.997 164.33 144.272 163.825 143.467 163.482C142.663 163.14 141.796 162.966 140.922 162.972H134.761C133.887 162.965 133.02 163.137 132.216 163.479C131.411 163.82 130.686 164.324 130.084 164.958C129.483 165.592 129.018 166.343 128.719 167.165C128.421 167.986 128.294 168.861 128.348 169.733L128.559 174.919H129.656C130.519 174.919 131.373 175.09 132.168 175.424C132.963 175.758 133.684 176.247 134.288 176.863Z" fill="#EBF2F4"/>
<path opacity="0.38" d="M158.551 182.235L158.479 184.027H158.515V186.867H162.299V186.42L162.129 182.235H158.551Z" fill="#EBF2F4"/>
<path opacity="0.38" d="M156.792 176.863C157.824 177.942 158.445 179.349 158.546 180.838H162.127C162.216 179.479 162.74 178.186 163.622 177.149C164.231 176.448 164.983 175.887 165.828 175.502C166.673 175.117 167.59 174.919 168.518 174.919H169.613L169.824 169.745C169.879 168.872 169.753 167.997 169.455 167.175C169.157 166.352 168.693 165.6 168.091 164.965C167.49 164.329 166.765 163.825 165.96 163.482C165.155 163.139 164.288 162.966 163.413 162.972H157.265C156.391 162.965 155.524 163.137 154.72 163.479C153.915 163.82 153.19 164.324 152.588 164.958C151.987 165.592 151.522 166.343 151.223 167.165C150.925 167.986 150.798 168.861 150.852 169.733L151.063 174.919H152.16C153.023 174.918 153.877 175.089 154.672 175.423C155.468 175.757 156.189 176.247 156.792 176.863V176.863Z" fill="#EBF2F4"/>
<path opacity="0.38" d="M181.054 182.235L180.982 184.027H181.018V186.867H184.806V186.418L184.633 182.235H181.054Z" fill="#EBF2F4"/>
<path opacity="0.38" d="M179.298 176.863C180.329 177.942 180.95 179.349 181.052 180.838H184.633C184.722 179.479 185.246 178.186 186.128 177.149C186.737 176.448 187.489 175.887 188.334 175.502C189.178 175.117 190.096 174.919 191.024 174.919H192.121L192.33 169.745C192.384 168.872 192.259 167.997 191.961 167.175C191.663 166.353 191.199 165.601 190.598 164.965C189.997 164.33 189.272 163.825 188.467 163.482C187.663 163.14 186.796 162.966 185.922 162.972H179.761C178.887 162.965 178.02 163.137 177.216 163.479C176.411 163.82 175.686 164.324 175.084 164.958C174.483 165.592 174.018 166.343 173.719 167.165C173.421 167.986 173.294 168.861 173.348 169.733L173.562 174.919H174.658C175.522 174.917 176.378 175.088 177.175 175.422C177.972 175.755 178.693 176.246 179.298 176.863V176.863Z" fill="#EBF2F4"/>
<path opacity="0.38" d="M203.558 182.234L203.486 184.027H203.52V186.866H207.307V184.027H212.64C213.112 184.028 213.566 183.845 213.907 183.518C214.247 183.191 214.448 182.745 214.466 182.273L214.502 181.349C214.271 181.618 213.985 181.836 213.665 181.988C213.344 182.141 212.995 182.225 212.64 182.234H203.558Z" fill="#EBF2F4"/>
<path opacity="0.38" d="M201.804 176.863C202.836 177.942 203.457 179.349 203.558 180.838H212.64C213.112 180.838 213.565 180.655 213.905 180.329C214.245 180.002 214.447 179.557 214.466 179.086L214.843 169.745C214.898 168.872 214.772 167.997 214.474 167.175C214.177 166.353 213.713 165.601 213.112 164.965C212.51 164.33 211.785 163.825 210.981 163.483C210.176 163.14 209.31 162.966 208.435 162.972H202.277C201.402 162.964 200.536 163.136 199.731 163.477C198.926 163.819 198.2 164.322 197.598 164.957C196.997 165.591 196.532 166.342 196.234 167.164C195.935 167.986 195.809 168.86 195.864 169.733L196.075 174.919H197.172C198.035 174.919 198.889 175.09 199.684 175.424C200.479 175.758 201.2 176.247 201.804 176.863Z" fill="#EBF2F4"/>
<path opacity="0.38" d="M91.0329 206.129L90.9609 207.924H90.9969V210.763H94.7841V210.317L94.6113 206.129H91.0329Z" fill="#EBF2F4"/>
<path opacity="0.38" d="M89.2808 200.76C90.3129 201.839 90.9338 203.245 91.0352 204.734H94.616C94.7049 203.376 95.2292 202.083 96.1112 201.046C96.7191 200.344 97.4711 199.782 98.316 199.397C99.1609 199.012 100.079 198.814 101.007 198.816H102.102L102.313 193.642C102.368 192.768 102.242 191.893 101.945 191.071C101.647 190.248 101.183 189.495 100.581 188.86C99.98 188.224 99.2542 187.719 98.4492 187.376C97.6443 187.033 96.7773 186.86 95.9024 186.866H89.7608C88.8867 186.859 88.0205 187.031 87.2159 187.373C86.4113 187.715 85.6857 188.218 85.0842 188.852C84.4826 189.487 84.0181 190.238 83.7194 191.059C83.4207 191.881 83.2943 192.755 83.348 193.627L83.5592 198.816H84.6584C85.5196 198.815 86.3723 198.987 87.1662 199.321C87.9601 199.654 88.6791 200.144 89.2808 200.76V200.76Z" fill="#EBF2F4"/>
<path opacity="0.38" d="M113.537 206.129L113.465 207.924H113.501V210.763H117.288V210.317L117.118 206.129H113.537Z" fill="#EBF2F4"/>
<path opacity="0.38" d="M111.783 200.76C112.813 201.84 113.433 203.246 113.537 204.734H117.12C117.209 203.376 117.733 202.083 118.615 201.046C119.223 200.344 119.976 199.782 120.82 199.397C121.665 199.012 122.583 198.814 123.511 198.816H124.608L124.817 193.642C124.872 192.769 124.747 191.894 124.449 191.071C124.151 190.249 123.687 189.496 123.086 188.861C122.485 188.225 121.76 187.72 120.955 187.377C120.15 187.034 119.284 186.86 118.409 186.866H112.253C111.379 186.859 110.513 187.031 109.708 187.373C108.904 187.715 108.178 188.218 107.576 188.852C106.975 189.487 106.51 190.238 106.212 191.059C105.913 191.881 105.786 192.755 105.84 193.627L106.054 198.816H107.151C108.013 198.814 108.868 198.985 109.663 199.319C110.459 199.653 111.179 200.143 111.783 200.76V200.76Z" fill="#EBF2F4"/>
<path opacity="0.38" d="M136.045 206.129L135.971 207.924H136.007V210.763H139.794V210.317L139.624 206.129H136.045Z" fill="#EBF2F4"/>
<path opacity="0.38" d="M134.288 200.76C135.32 201.839 135.941 203.245 136.042 204.734H139.621C139.713 203.376 140.239 202.083 141.121 201.046C141.729 200.344 142.481 199.782 143.326 199.397C144.171 199.012 145.088 198.814 146.017 198.816H147.121L147.33 193.642C147.385 192.769 147.259 191.894 146.962 191.071C146.664 190.249 146.2 189.496 145.599 188.861C144.998 188.225 144.272 187.72 143.468 187.377C142.663 187.034 141.796 186.86 140.922 186.866H134.761C133.887 186.859 133.02 187.031 132.216 187.373C131.411 187.715 130.686 188.218 130.084 188.852C129.483 189.487 129.018 190.238 128.719 191.059C128.421 191.881 128.294 192.755 128.348 193.627L128.559 198.816H129.656C130.519 198.814 131.373 198.985 132.169 199.319C132.964 199.653 133.685 200.143 134.288 200.76Z" fill="#EBF2F4"/>
<path opacity="0.38" d="M158.551 206.129L158.479 207.924H158.515V210.763H162.299V210.317L162.129 206.129H158.551Z" fill="#EBF2F4"/>
<path opacity="0.38" d="M156.792 200.76C157.824 201.839 158.445 203.245 158.546 204.734H162.127C162.216 203.376 162.74 202.083 163.622 201.046C164.23 200.344 164.982 199.782 165.827 199.397C166.672 199.012 167.59 198.814 168.518 198.816H169.613L169.824 193.642C169.879 192.768 169.754 191.893 169.456 191.071C169.158 190.248 168.694 189.495 168.092 188.86C167.491 188.224 166.765 187.719 165.96 187.376C165.155 187.033 164.288 186.86 163.413 186.866H157.265C156.391 186.859 155.524 187.031 154.72 187.373C153.915 187.715 153.19 188.218 152.588 188.852C151.987 189.487 151.522 190.238 151.223 191.059C150.925 191.881 150.798 192.755 150.852 193.627L151.063 198.816H152.16C153.023 198.814 153.877 198.985 154.673 199.319C155.468 199.653 156.189 200.143 156.792 200.76Z" fill="#EBF2F4"/>
<path opacity="0.38" d="M181.054 206.129L180.982 207.924H181.018V210.763H184.806V210.315L184.633 206.129H181.054Z" fill="#EBF2F4"/>
<path opacity="0.38" d="M179.298 200.76C180.33 201.839 180.951 203.245 181.052 204.734H184.633C184.722 203.376 185.246 202.083 186.128 201.046C186.736 200.344 187.488 199.782 188.333 199.397C189.178 199.012 190.096 198.814 191.024 198.816H192.121L192.33 193.642C192.385 192.769 192.259 191.894 191.962 191.071C191.664 190.249 191.2 189.496 190.599 188.861C189.998 188.225 189.272 187.72 188.468 187.377C187.663 187.034 186.796 186.86 185.922 186.866H179.761C178.887 186.859 178.02 187.031 177.216 187.373C176.411 187.715 175.686 188.218 175.084 188.852C174.483 189.487 174.018 190.238 173.719 191.059C173.421 191.881 173.294 192.755 173.348 193.627L173.562 198.816H174.658C175.522 198.813 176.378 198.983 177.175 199.317C177.972 199.651 178.694 200.142 179.298 200.76Z" fill="#EBF2F4"/>
<path opacity="0.38" d="M203.558 206.129L203.486 207.924H203.52V210.763H207.307V207.924H212.64C213.112 207.924 213.566 207.741 213.906 207.414C214.246 207.087 214.447 206.641 214.466 206.17L214.502 205.246C214.27 205.514 213.985 205.731 213.664 205.883C213.344 206.036 212.995 206.119 212.64 206.129H203.558Z" fill="#EBF2F4"/>
<path opacity="0.38" d="M201.804 200.76C202.836 201.839 203.457 203.245 203.558 204.734H212.64C213.112 204.734 213.565 204.552 213.905 204.225C214.245 203.899 214.447 203.454 214.466 202.983L214.843 193.642C214.898 192.769 214.773 191.894 214.475 191.071C214.177 190.249 213.714 189.496 213.112 188.861C212.511 188.225 211.786 187.72 210.981 187.377C210.177 187.034 209.31 186.86 208.435 186.866H202.277C201.402 186.858 200.536 187.03 199.731 187.372C198.926 187.713 198.2 188.217 197.598 188.851C196.997 189.485 196.532 190.237 196.234 191.058C195.935 191.88 195.809 192.755 195.864 193.627L196.08 198.816H197.177C198.039 198.815 198.892 198.986 199.687 199.32C200.482 199.654 201.201 200.144 201.804 200.76V200.76Z" fill="#EBF2F4"/>
</g>
</g>
<path d="M86.7139 63.7393H70.3315C69.6584 63.7389 68.9918 63.8712 68.3699 64.1286C67.7479 64.386 67.1828 64.7634 66.7067 65.2392C66.2306 65.715 65.853 66.28 65.5953 66.9018C65.3377 67.5237 65.2051 68.1902 65.2051 68.8633V85.2433C65.2051 86.6031 65.7451 87.9073 66.7064 88.869C67.6677 89.8308 68.9716 90.3714 70.3315 90.3721H86.7139C88.0733 90.3708 89.3766 89.8299 90.3374 88.8682C91.2982 87.9065 91.8379 86.6027 91.8379 85.2433V68.8633C91.8379 68.1904 91.7053 67.5241 91.4478 66.9024C91.1903 66.2807 90.8129 65.7159 90.3371 65.24C89.8613 64.7642 89.2964 64.3868 88.6747 64.1293C88.0531 63.8718 87.3868 63.7393 86.7139 63.7393V63.7393ZM81.5995 82.0801C81.2172 82.4473 80.7657 82.7349 80.2713 82.9261C79.7769 83.1173 79.2494 83.2082 78.7195 83.1937C77.7312 83.2298 76.7652 82.8941 76.0123 82.2529C75.6535 81.9453 75.3598 81.5691 75.1483 81.1465C75.077 80.9933 75.0434 80.8252 75.0502 80.6564C75.057 80.4876 75.1041 80.3228 75.1874 80.1759C75.2708 80.0289 75.388 79.904 75.5294 79.8115C75.6708 79.719 75.8322 79.6616 76.0003 79.6441C76.2415 79.6077 76.4879 79.6494 76.7038 79.7629C76.9196 79.8764 77.0936 80.0559 77.2003 80.2753C77.2876 80.4826 77.4158 80.6704 77.5771 80.8273C77.7263 80.9743 77.9033 81.0902 78.0978 81.1681C78.2923 81.246 78.5004 81.2843 78.7099 81.2809C78.9372 81.2839 79.1624 81.2371 79.3697 81.1438C79.577 81.0505 79.7614 80.913 79.9099 80.7409C80.248 80.3295 80.4194 79.8061 80.3899 79.2745C80.414 78.7743 80.2457 78.2839 79.9195 77.9041C79.7776 77.7417 79.6022 77.6119 79.4054 77.5237C79.2087 77.4354 78.9951 77.3908 78.7795 77.3929H78.7675C78.6417 77.3973 78.5165 77.3744 78.4004 77.3257C78.2844 77.277 78.1803 77.2036 78.0954 77.1107C78.0105 77.0179 77.9468 76.9076 77.9087 76.7877C77.8705 76.6677 77.859 76.5409 77.8747 76.4161V76.3777C77.8965 76.2025 77.9729 76.0387 78.0931 75.9095C78.2133 75.7802 78.3712 75.6921 78.5443 75.6577C78.8588 75.6155 79.1555 75.4867 79.4011 75.2857C79.5614 75.1427 79.6877 74.9657 79.7708 74.7676C79.8538 74.5696 79.8915 74.3554 79.8811 74.1409C79.8945 73.9635 79.8697 73.7854 79.8083 73.6185C79.7469 73.4516 79.6504 73.2998 79.5252 73.1735C79.4 73.0472 79.2491 72.9492 79.0828 72.8863C78.9164 72.8234 78.7385 72.797 78.5611 72.8089C78.3736 72.8052 78.1874 72.8397 78.0137 72.9102C77.84 72.9808 77.6825 73.0859 77.5507 73.2193C77.4092 73.361 77.2967 73.5289 77.2195 73.7137C77.1256 73.9125 76.9684 74.0745 76.7725 74.1744C76.5766 74.2743 76.3531 74.3064 76.1371 74.2657H76.1083C75.9494 74.2399 75.7986 74.1782 75.6672 74.0852C75.5359 73.9923 75.4275 73.8705 75.3504 73.7293C75.2733 73.588 75.2295 73.431 75.2223 73.2702C75.2152 73.1095 75.2448 72.9492 75.3091 72.8017C75.3852 72.6335 75.4768 72.4728 75.5827 72.3217C75.8988 71.8734 76.3299 71.5185 76.8307 71.2945C77.3946 71.0405 78.0074 70.9135 78.6259 70.9225C79.7619 70.9225 80.6715 71.2841 81.3547 72.0073C81.6203 72.2694 81.8316 72.5813 81.9766 72.9252C82.1215 73.269 82.1973 73.6381 82.1995 74.0113C82.1995 75.0689 81.6219 75.9121 80.4667 76.5409C81.1195 76.6671 81.7063 77.0209 82.1227 77.5393C82.542 78.0677 82.7613 78.7273 82.7419 79.4017C82.7475 79.9029 82.6488 80.3998 82.4521 80.8609C82.2555 81.322 81.9651 81.7372 81.5995 82.0801V82.0801Z" fill="#EBF2F4"/>
<path d="M114.959 63.7393H98.5839C97.2245 63.7393 95.9207 64.279 94.959 65.2398C93.9973 66.2006 93.4564 67.5038 93.4551 68.8633V85.2433C93.4563 86.6031 93.9971 87.9069 94.9587 88.8685C95.9202 89.83 97.224 90.3708 98.5839 90.3721H114.959C116.318 90.3708 117.622 89.8299 118.583 88.8682C119.543 87.9065 120.083 86.6027 120.083 85.2433V68.8633C120.083 68.1904 119.951 67.5241 119.693 66.9024C119.436 66.2807 119.058 65.7159 118.582 65.24C118.106 64.7642 117.542 64.3868 116.92 64.1293C116.298 63.8718 115.632 63.7393 114.959 63.7393V63.7393ZM109.54 81.0193C109.683 81.0193 109.825 81.0474 109.957 81.1022C110.089 81.157 110.209 81.2372 110.31 81.3384C110.412 81.4396 110.492 81.5597 110.547 81.6919C110.601 81.8241 110.629 81.9658 110.629 82.1089C110.629 82.2519 110.601 82.3936 110.547 82.5258C110.492 82.658 110.412 82.7781 110.31 82.8793C110.209 82.9805 110.089 83.0608 109.957 83.1155C109.825 83.1703 109.683 83.1985 109.54 83.1985H104.557C104.286 83.199 104.018 83.1283 103.782 82.9934C103.546 82.8585 103.35 82.6641 103.212 82.4295C103.075 82.1949 103.001 81.9284 102.999 81.6565C102.997 81.3847 103.066 81.1169 103.199 80.8801C103.206 80.8736 103.211 80.8653 103.213 80.8561C103.66 80.1185 104.54 79.1401 105.853 77.9209C106.913 76.9337 107.562 76.2649 107.802 75.9145C108.104 75.4939 108.271 74.9919 108.282 74.4745C108.296 74.2563 108.266 74.0376 108.193 73.8314C108.121 73.6252 108.007 73.4358 107.86 73.2745C107.669 73.0732 107.429 72.925 107.164 72.8446C106.899 72.7641 106.617 72.7542 106.347 72.8157C106.077 72.8772 105.827 73.0081 105.623 73.1954C105.418 73.3828 105.266 73.6201 105.181 73.8841C105.11 74.1263 104.957 74.3365 104.748 74.4794C104.54 74.6223 104.289 74.6892 104.037 74.6689L103.9 74.6521C103.734 74.6356 103.574 74.5813 103.432 74.4934C103.291 74.4055 103.171 74.2863 103.082 74.145C102.994 74.0037 102.939 73.8439 102.922 73.678C102.904 73.5122 102.925 73.3446 102.983 73.1881C103.173 72.6197 103.525 72.1193 103.996 71.7481C104.794 71.1646 105.765 70.867 106.753 70.9033C107.963 70.9033 108.913 71.2289 109.602 71.8801C109.938 72.188 110.205 72.5642 110.384 72.9835C110.563 73.4028 110.65 73.8555 110.639 74.3113C110.641 74.8508 110.541 75.3859 110.344 75.8881C110.105 76.452 109.789 76.9796 109.403 77.4553C108.927 78.0114 108.412 78.5335 107.862 79.0177C107.123 79.6993 106.662 80.1481 106.453 80.3737C106.271 80.5726 106.11 80.7907 105.973 81.0241L109.54 81.0193Z" fill="#EBF2F4"/>
<path d="M182.084 178.171C180.013 180.137 177.841 181.987 175.844 184.008" stroke="#DEEAED" stroke-miterlimit="10"/>
<path d="M151.99 88.0271C152.134 88.0559 152.276 88.0919 152.427 88.1351C164.23 91.2071 175.575 98.5511 185.377 112.226C190.385 119.215 194.329 127.106 195.922 135.619C197.902 146.194 195.745 156.794 190.957 166.226" stroke="#DEEAED" stroke-miterlimit="10"/>
<path d="M167.28 196.898C165.466 200.234 163.471 203.436 160.414 205.836C155.206 209.938 147.833 210.559 141.502 208.594C133.822 206.208 125.585 200.256 122.875 192.425C119.89 183.785 116.059 175.145 105.821 174.065C96.9195 173.143 88.3251 177.835 79.4931 174.564C62.2683 168.185 77.2443 143.335 72.3915 131.182C70.3995 126.187 66.4683 123.3 61.7259 121.342C52.8939 117.67 41.2707 117.175 34.1691 112.147C21.8403 103.411 18.4923 86.16 16.2075 72.432C13.5603 56.2934 13.5506 39.8321 16.1787 23.6904" stroke="#DEEAED" stroke-miterlimit="10"/>
<path d="M63.1201 22.8647L62.5249 24.1223C62.2297 24.7511 61.9417 25.3919 61.6729 26.0423C60.3277 29.2113 59.2792 32.4982 58.5409 35.8607C58.0068 38.2665 57.6363 40.7057 57.4321 43.1615C57.3961 43.5863 57.3673 44.0135 57.3457 44.4383C57.1901 46.8988 57.2037 49.367 57.3865 51.8255C57.3865 51.9167 57.3865 52.0127 57.4033 52.1063H38.7601C38.9718 50.543 39.1016 48.9697 39.1489 47.3927C39.1489 46.9943 39.1657 46.5863 39.1657 46.1927C39.1657 45.1007 39.1273 44.0063 39.0409 42.9215C38.9266 41.2717 38.7126 39.6303 38.4001 38.0063C38.1961 36.9191 37.9489 35.8343 37.6513 34.7639C36.6979 31.2301 35.3012 27.8311 33.4945 24.6479L33.2545 24.2039L32.4961 22.8647H63.1201Z" stroke="#262626" stroke-miterlimit="10"/>
<path d="M63.1202 22.8647L62.525 24.1223C62.2298 24.7511 61.9418 25.3919 61.673 26.0423C60.3278 29.2113 59.2793 32.4982 58.541 35.8607C56.8451 36.4587 55.0593 36.7623 53.261 36.7583C52.6807 36.7571 52.1007 36.7267 51.5234 36.6671C47.9733 36.2744 44.6576 34.7017 42.1073 32.201C39.5569 29.7003 37.9195 26.4161 37.457 22.8743L63.1202 22.8647Z" stroke="#262626" stroke-miterlimit="10"/>
<path d="M63.1199 22.8647L62.5247 24.1223C62.2295 24.7511 61.9415 25.3919 61.6727 26.0423C60.3275 29.2113 59.279 32.4982 58.5407 35.8607C58.0066 38.2665 57.6361 40.7057 57.4319 43.1615C57.0935 43.1783 56.7551 43.1855 56.4143 43.1855C50.2985 43.1935 44.3906 40.9667 39.8015 36.9239C39.0395 36.2472 38.3182 35.526 37.6415 34.7639C36.6881 31.2301 35.2915 27.8311 33.4847 24.6479L33.2447 24.2039L32.4863 22.8647H63.1199Z" stroke="#262626" stroke-miterlimit="10"/>
<path d="M33.3984 22.8647H63.12L62.5248 24.1223C62.2296 24.7511 61.9416 25.3919 61.6728 26.0423C60.3276 29.2113 59.2791 32.4982 58.5408 35.8607C58.0067 38.2665 57.6362 40.7057 57.432 43.1615" stroke="#262626" stroke-miterlimit="10"/>
<path d="M57.3595 44.4289C57.2039 46.8893 57.2176 49.3575 57.4003 51.8161C55.2861 51.7508 53.1889 51.4145 51.1603 50.8153C46.4329 49.425 42.2188 46.6748 39.0427 42.9073C38.927 41.2623 38.7123 39.6257 38.3995 38.0065C38.1955 36.9193 37.9483 35.8345 37.6507 34.7641C36.6973 31.2303 35.3006 27.8313 33.4939 24.6481L33.2539 24.2041" stroke="#262626" stroke-miterlimit="10"/>
<path d="M48.322 22.8647C47.5047 26.6797 45.8113 30.2522 43.3756 33.2999C42.3136 34.6244 41.1177 35.8357 39.8068 36.9143C39.3508 37.3031 38.8804 37.6631 38.3884 38.0063C38.1844 36.9191 37.9372 35.8343 37.6396 34.7639C36.6862 31.2301 35.2895 27.8311 33.4828 24.6479L33.2428 24.2039L32.4844 22.8647H48.322Z" stroke="#262626" stroke-miterlimit="10"/>
<path d="M51.5353 36.6575C50.4908 38.4708 49.2225 40.1456 47.7601 41.6423C46.2548 43.17 44.5612 44.4999 42.7201 45.5999C42.5161 45.7271 42.3097 45.8399 42.0985 45.9551C41.1489 46.4978 40.1625 46.9734 39.1465 47.3783C39.1465 46.9799 39.1633 46.5719 39.1633 46.1783C39.1633 45.0863 39.1249 43.9919 39.0385 42.9071C38.9244 41.2622 38.7112 39.6256 38.4001 38.0063C38.1961 36.9191 37.9489 35.8343 37.6513 34.7639C36.6979 31.2301 35.3012 27.8311 33.4945 24.6479L33.2545 24.2039L32.4961 22.8647H54.9217C55.1355 27.6916 53.9602 32.4785 51.5353 36.6575V36.6575Z" stroke="#262626" stroke-miterlimit="10"/>
<path d="M63.4106 21.8977H17.969C16.9776 21.8977 16.1738 22.7014 16.1738 23.6929C16.1738 24.6844 16.9776 25.4881 17.969 25.4881H63.4106C64.4021 25.4881 65.2058 24.6844 65.2058 23.6929C65.2058 22.7014 64.4021 21.8977 63.4106 21.8977Z" fill="#262626"/>
<path d="M133.425 66.3864C132.919 65.8368 132.362 65.4648 131.745 65.3928C123.422 65.9376 115.699 70.3248 108.261 74.1744C102.081 77.376 96.0092 80.7912 90.1076 84.4944C85.706 87.252 81.3908 90.1656 77.246 93.3096C74.4188 95.4456 71.654 97.6968 69.038 100.097C68.5244 100.577 63.3572 104.978 64.3796 106.049C65.402 107.119 67.0196 105.67 67.9172 105.134C68.8148 104.599 70.1948 103.548 71.1164 103.056C69.8683 105.102 68.905 107.309 68.2532 109.615C68.03 110.45 67.7228 111.365 67.7732 112.236C67.7937 112.553 67.9374 112.85 68.1738 113.063C68.4102 113.275 68.7204 113.387 69.038 113.374C69.3025 113.363 69.5574 113.272 69.7682 113.112C69.979 112.951 70.1355 112.73 70.2164 112.478L73.9964 103.32C73.49 104.734 72.4172 108.12 72.0764 110.422C71.9204 111.444 72.3332 112.279 73.298 112.051C73.5395 111.984 73.7615 111.86 73.9455 111.689C74.1296 111.519 74.2704 111.308 74.3564 111.072L77.7596 102.259C77.0642 104.598 76.6841 107.02 76.6292 109.459C76.6267 109.577 76.6478 109.695 76.6912 109.805C76.7347 109.915 76.7997 110.015 76.8824 110.1C76.9652 110.184 77.0639 110.251 77.1729 110.297C77.2819 110.343 77.399 110.366 77.5172 110.366C78.5588 110.366 78.7172 108.638 78.9884 107.916C79.7744 105.867 80.9542 103.992 82.4612 102.396C83.5172 101.275 84.9476 100.51 86.282 99.756C88.9076 98.332 91.6465 97.1279 94.4708 96.156C100.778 93.8832 107.287 92.2272 113.74 90.4416C113.824 90.42 113.904 90.3912 113.98 90.3696C114.172 90.3192 114.36 90.2616 114.552 90.2112C118.346 89.148 122.133 88.0512 125.853 86.7528C126.093 86.6688 126.333 86.5896 126.554 86.5128C126.558 86.5085 126.562 86.5049 126.567 86.5025C126.572 86.5 126.577 86.4986 126.583 86.4984C128.776 85.5144 130.903 84.3192 132.628 82.884C132.628 82.884 132.628 82.884 132.643 82.8696C138.626 77.148 135.019 69.2088 133.425 66.3864ZM74.0684 103.147C74.1183 102.982 74.1826 102.821 74.2604 102.667L74.0684 103.147Z" fill="white"/>
<path d="M74.0039 103.31C74.0039 103.31 74.0039 103.289 74.0183 103.282L74.0687 103.147" fill="white"/>
<path d="M74.0039 103.31C74.0039 103.31 74.0039 103.289 74.0183 103.282L74.0687 103.147" fill="white"/>
<path d="M161.01 142.74C161.01 142.74 161.49 157.14 172.77 159.619C184.05 162.098 183.239 164.863 191.519 166.226C199.799 167.59 185.901 178.946 185.901 178.946L171.935 176.023L175.389 183.24L169.629 198.821C169.629 198.821 145.523 174.6 137.051 159.6C128.579 144.6 148.225 139.483 148.811 139.483C149.397 139.483 161.01 142.74 161.01 142.74Z" fill="white"/>
<path d="M141.786 158.318C142.114 158.712 142.458 159.098 142.808 159.49C143.667 160.337 141.759 162.456 139.707 163.414C133.383 154.517 127.398 144.9 122.754 135.156C122.432 134.477 122.11 133.79 121.794 133.104C121.722 132.955 121.65 132.797 121.587 132.641C121.172 131.681 120.692 130.562 120.301 129.605C123.73 126.924 129.332 121.231 132.632 116.75C134.924 113.63 137.854 113.064 140.197 113.244C140.226 113.244 140.254 113.244 140.276 113.244C141.287 113.331 142.283 113.543 143.242 113.873C143.271 113.873 143.298 113.894 143.326 113.899C143.42 113.928 143.506 113.957 143.598 113.993C143.689 114.029 143.77 114.05 143.857 114.086C144.674 114.377 145.465 114.737 146.221 115.164C158.031 124.524 159.603 136.07 161.468 145.008C156.277 150.751 147.709 161.297 141.786 158.318Z" fill="#46E9FF"/>
<path d="M146.652 110.172C146.045 112.063 145.644 113.194 145.644 113.194C145.644 113.194 145.164 114.542 144.116 114.18C143.067 113.818 136.8 111.101 132.641 116.75C129.341 121.231 123.74 126.924 120.31 129.605C119.645 130.166 118.913 130.643 118.131 131.026C115.637 132.026 112.786 134.076 112.851 131.52C112.916 128.964 111.665 91.0224 113.76 90.4368C115.856 89.8512 139.272 85.8072 136.522 73.2408C136.522 73.2408 134.722 65.7168 131.751 65.3952C128.78 65.0736 133.33 65.3376 133.33 65.3376C133.33 65.3376 147.819 65.016 151.606 75.3624C154.611 83.6064 149.04 102.749 146.652 110.172Z" fill="#2C2F2F"/>
<path d="M187.812 48C186.96 47.7216 186.276 43.5216 184.675 44.64C183.653 45.36 185.011 49.44 185.102 50.148C185.315 51.7855 185.164 53.4498 184.661 55.0224C184.61 55.0499 184.557 55.0731 184.502 55.092C184.209 55.2272 183.908 55.3435 183.6 55.44C183.458 55.4904 183.307 55.5336 183.158 55.5768C183.009 55.62 182.918 55.6416 182.808 55.6704L182.414 55.7544C182.229 55.7904 182.049 55.8264 181.865 55.8552C181.302 55.9422 180.733 55.9855 180.163 55.9848C179.957 55.9848 179.75 55.9848 179.549 55.9704C179.421 55.9704 179.309 55.9488 179.172 55.9416C179.093 55.9416 179.006 55.9272 178.932 55.9128C178.528 55.8708 178.127 55.8035 177.732 55.7112C177.597 55.6848 177.468 55.656 177.341 55.62C177.212 55.5919 177.085 55.5559 176.961 55.512C176.745 55.4472 176.532 55.3776 176.325 55.3056C176.253 55.2768 176.174 55.248 176.085 55.212C175.891 55.14 175.699 55.056 175.512 54.972C175.494 54.9701 175.477 54.9625 175.464 54.9504C175.016 54.741 174.584 54.5004 174.17 54.2304C174.146 54.2212 174.123 54.2064 174.105 54.1872C172.467 52.6626 171.326 50.68 170.831 48.4977C170.336 46.3154 170.509 44.0346 171.329 41.9522C172.148 39.8699 173.576 38.0826 175.425 36.8231C177.275 35.5637 179.461 34.8905 181.699 34.8912C183.845 34.8846 185.946 35.5052 187.745 36.6768C187.879 36.804 188.016 36.9336 188.145 37.0704C188.275 37.2072 188.409 37.3488 188.537 37.4904C186.259 37.5912 188.522 42.0696 188.873 43.5216C189.153 44.5896 190.08 48.72 187.812 48Z" fill="#46E9FF"/>
<path d="M171.409 175.894C173.686 180.331 175.851 184.147 177.846 187.382C184.626 198.422 189.327 202.829 189.327 202.829L183.769 226.193C183.688 226.537 183.529 226.858 183.305 227.132C183.081 227.406 182.797 227.625 182.475 227.772C182.169 227.926 181.832 228.008 181.489 228.012C180.866 228.01 180.27 227.762 179.829 227.322C179.389 226.882 179.141 226.285 179.139 225.662V208.954C179.139 208.954 174.524 204.634 167.737 197.393C160.04 189.182 149.552 177.233 139.851 163.613C139.801 163.548 139.758 163.476 139.707 163.414C133.383 154.517 127.398 144.9 122.754 135.156C122.432 134.477 122.11 133.79 121.794 133.104C121.722 132.955 121.65 132.797 121.587 132.641C121.136 131.662 120.714 130.682 120.301 129.696" stroke="#262626" stroke-linecap="round" stroke-linejoin="round"/>
<path d="M125.867 132.098C125.867 132.098 131.49 146.273 141.784 158.318C141.878 158.426 141.964 158.532 142.055 158.64C142.295 158.926 142.55 159.204 142.806 159.49C148.216 165.557 154.838 170.935 162.546 173.436C165.484 174.396 168.448 175.195 171.407 175.894C177.479 177.353 183.537 178.416 189.326 179.652C202.679 182.489 214.581 186.197 221.826 197.501C222.118 197.935 222.557 198.248 223.063 198.383C223.568 198.518 224.105 198.465 224.574 198.233C225.044 198.002 225.413 197.608 225.614 197.125C225.814 196.642 225.833 196.103 225.666 195.607L218.452 175.766C218.452 175.766 204.311 170.966 190.545 166.078C182.349 163.176 174.282 160.255 169.396 158.297C164.224 156.226 162.789 151.26 161.488 145.015C161.094 143.136 160.715 141.137 160.252 139.07C158.507 131.318 155.565 122.568 146.241 115.171" stroke="#262626" stroke-linecap="round" stroke-linejoin="round"/>
<path d="M71.1265 103.049C70.2001 103.541 68.8273 104.592 67.9249 105.125C67.0225 105.658 65.4001 107.095 64.3873 106.039C63.3745 104.983 68.5321 100.56 69.0481 100.08C71.6593 97.68 74.4217 95.4336 77.2513 93.2928C81.4009 90.1536 85.7113 87.2376 90.1177 84.4776C96.0169 80.7816 102.091 77.3688 108.269 74.1576C117.785 69.228 127.766 63.4344 138.874 65.9136C142.778 66.7848 146.606 68.7312 149.294 71.748C153.566 76.5336 153.478 83.268 152.22 89.184C150.451 97.5096 147.631 106.375 145.243 114.538" stroke="#262626" stroke-linecap="round" stroke-linejoin="round"/>
<path d="M145.844 68.5031C153.596 69.9431 162.113 71.9327 169.88 69.4895C175.601 67.6823 182.681 61.5935 184.661 55.0367C185.165 53.4634 185.316 51.7982 185.103 50.1599C185.012 49.4543 183.663 45.3815 184.676 44.6519C186.277 43.5311 186.961 47.7311 187.813 48.0119C190.083 48.7319 189.154 44.5967 188.89 43.5335C188.54 42.0815 186.277 37.6031 188.554 37.5023C188.554 37.5023 188.583 37.5023 188.597 37.5023C189.934 37.4735 191.42 42.0263 191.521 42.5111C192.598 47.4407 192.269 52.6055 191.485 57.5783C189.385 70.8335 179.746 84.4367 165.663 86.1935C161.343 86.7287 156.953 86.8511 152.602 87.1223" stroke="#262626" stroke-linecap="round" stroke-linejoin="round"/>
<path d="M145.841 68.5008C145.841 68.5008 144.35 63.396 149.592 59.04C154.834 54.684 153.814 46.8 150.173 44.484C146.532 42.168 141.185 40.5912 137.038 43.8648C132.89 47.1384 131.47 49.8648 131.47 49.8648L132.78 51.0648C132.78 51.0648 127.702 57.84 131.974 59.58C136.246 61.32 139.548 59.2536 139.548 59.2536" stroke="#262626" stroke-linecap="round" stroke-linejoin="round"/>
<path d="M137.539 44.8392C137.539 44.8392 139.329 44.6208 138.785 47.2392" stroke="#262626" stroke-linecap="round" stroke-linejoin="round"/>
<path d="M141.738 42.0193C141.738 42.0193 144.568 43.3009 144.023 44.8345C143.478 46.3681 142.571 45.9313 142.914 48.7681C143.051 49.7353 142.936 50.7215 142.581 51.6313C142.389 52.0921 141.793 52.4617 141.978 53.0209C142.175 53.6209 143.106 53.8009 143.627 53.6953C144.277 53.5657 144.613 53.1097 145.149 52.7977C145.69 52.5276 146.295 52.4114 146.898 52.4617C147.981 52.5049 149.145 53.0593 148.95 54.3241C148.785 55.4065 147.647 55.9105 146.862 56.4841C145.518 57.4897 144.592 61.0945 146.711 61.8601" stroke="#262626" stroke-linecap="round" stroke-linejoin="round"/>
<path d="M71.126 103.049C69.8791 105.095 68.9151 107.301 68.2604 109.606C68.0396 110.443 67.7324 111.353 67.7804 112.226C67.7978 112.544 67.9405 112.842 68.1772 113.054C68.4139 113.267 68.7252 113.376 69.0428 113.359C69.3074 113.35 69.5628 113.259 69.7744 113.1C69.986 112.941 70.1436 112.721 70.226 112.469L74.0036 103.308C74.0036 103.308 74.0036 103.286 74.0036 103.279L74.0516 103.147C74.1083 102.976 74.1756 102.809 74.2532 102.646L74.0516 103.147L74.0036 103.279C74.0036 103.279 74.0036 103.301 74.0036 103.308C73.4972 104.729 72.4268 108.108 72.0836 110.414C71.93 111.432 72.3404 112.272 73.3076 112.039C73.5488 111.973 73.7705 111.85 73.954 111.68C74.1374 111.51 74.2771 111.298 74.3612 111.062L77.7596 102.262C77.0658 104.601 76.6872 107.022 76.634 109.462C76.6318 109.579 76.653 109.696 76.6965 109.806C76.74 109.915 76.8049 110.015 76.8874 110.099C76.9698 110.183 77.0682 110.25 77.1768 110.295C77.2853 110.341 77.4019 110.364 77.5196 110.364C78.5636 110.364 78.7196 108.641 78.9932 107.918C79.7792 105.87 80.9581 103.995 82.4636 102.398C83.5244 101.27 84.9476 100.512 86.2844 99.7585C88.9088 98.3321 91.6479 97.1279 94.4732 96.1585C101.044 93.7873 107.844 92.0785 114.564 90.2161C118.358 89.1553 122.148 88.0561 125.87 86.7625C143.407 80.6473 134.311 67.5481 134.311 67.5481" stroke="#262626" stroke-linecap="round" stroke-linejoin="round"/>
<path d="M137.342 113.357C138.287 113.188 139.25 113.151 140.205 113.244C140.234 113.244 140.263 113.244 140.284 113.244C141.292 113.348 142.287 113.559 143.251 113.873L143.335 113.899C143.428 113.928 143.515 113.957 143.606 113.993C143.697 114.029 143.779 114.05 143.865 114.086C144.683 114.376 145.474 114.737 146.229 115.164" stroke="#262626" stroke-linecap="round" stroke-linejoin="round"/>
<path d="M137.244 47.5417C137.502 47.0468 137.451 46.5101 137.13 46.3429C136.809 46.1757 136.34 46.4413 136.082 46.9362C135.824 47.4311 135.875 47.9678 136.196 48.135C136.517 48.3022 136.986 48.0366 137.244 47.5417Z" fill="#262626"/>
<path d="M135.129 60.2664L132.779 65.3376" stroke="#262626" stroke-linecap="round" stroke-linejoin="round"/>
<path d="M132.451 54.3912C132.451 54.3912 135.346 55.1112 136.109 53.5176" stroke="#262626" stroke-linecap="round" stroke-linejoin="round"/>
<path d="M187.812 48C186.96 47.7216 186.276 43.5216 184.675 44.64C183.653 45.36 185.011 49.44 185.103 50.148C185.315 51.7855 185.165 53.4498 184.661 55.0224V55.0224L184.503 55.0848C184.21 55.2225 183.908 55.3412 183.6 55.44C183.459 55.4904 183.307 55.5336 183.159 55.5768C183.01 55.62 182.919 55.6416 182.808 55.6704L182.415 55.7544C182.23 55.7904 182.05 55.8264 181.865 55.8552C181.302 55.9422 180.733 55.9856 180.163 55.9848C179.957 55.9848 179.751 55.9848 179.549 55.9704C179.422 55.9704 179.309 55.9488 179.172 55.9416C179.093 55.9416 179.007 55.9272 178.932 55.9128C178.528 55.8709 178.127 55.8035 177.732 55.7112C177.598 55.6848 177.468 55.656 177.341 55.62C177.212 55.592 177.086 55.5559 176.962 55.512C176.746 55.4472 176.532 55.3776 176.326 55.3056C176.254 55.2768 176.175 55.248 176.086 55.212C175.891 55.14 175.699 55.056 175.512 54.972C175.494 54.9701 175.477 54.9626 175.464 54.9504C175.017 54.7411 174.584 54.5005 174.171 54.2304C174.146 54.2212 174.124 54.2064 174.106 54.1872C172.808 53.3514 171.697 52.2548 170.846 50.967C169.994 49.6792 169.419 48.2284 169.158 46.7067C168.897 45.1849 168.956 43.6256 169.329 42.1276C169.703 40.6296 170.385 39.2257 171.33 38.005C172.275 36.7844 173.464 35.7737 174.821 35.0371C176.178 34.3005 177.673 33.8541 179.212 33.7262C180.751 33.5984 182.299 33.7919 183.759 34.2945C185.219 34.7971 186.558 35.5977 187.692 36.6456L187.745 36.6768C187.879 36.804 188.016 36.9336 188.146 37.0704C188.275 37.2072 188.41 37.3488 188.537 37.4904C186.259 37.5912 188.523 42.0696 188.873 43.5216C189.154 44.5896 190.08 48.72 187.812 48Z" stroke="#262626" stroke-linecap="round" stroke-linejoin="round"/>
<path d="M112.84 90.9143L112.897 133.538" stroke="#262626" stroke-linecap="round" stroke-linejoin="round"/>
<path d="M122.752 135.156C122.752 135.156 116.5 135.785 114.436 135.005C114 134.872 113.593 134.658 113.236 134.376C113.116 134.275 113.022 134.146 112.964 134C112.905 133.855 112.883 133.697 112.9 133.541C112.935 133.358 113.024 133.191 113.157 133.061C113.771 132.367 114.798 132.273 115.636 132.031C117.312 131.519 118.891 130.731 120.309 129.701" stroke="#262626" stroke-linecap="round" stroke-linejoin="round"/>
<path d="M122.752 135.156C122.752 135.156 116.5 135.785 114.436 135.005C114 134.872 113.593 134.658 113.236 134.376C113.116 134.275 113.022 134.146 112.964 134C112.905 133.855 112.883 133.697 112.9 133.541C112.935 133.358 113.024 133.191 113.157 133.061C113.771 132.367 114.798 132.273 115.636 132.031C117.312 131.519 118.891 130.731 120.309 129.701" fill="#262626"/>
</svg>
