<svg width="125" height="124" viewBox="0 0 125 124" fill="none" xmlns="http://www.w3.org/2000/svg">
<path d="M58.7068 44.7055C59.9792 44.7055 61.0107 43.674 61.0107 42.4016C61.0107 41.1292 59.9792 40.0977 58.7068 40.0977C57.4343 40.0977 56.4028 41.1292 56.4028 42.4016C56.4028 43.674 57.4343 44.7055 58.7068 44.7055Z" fill="#EBF2F4"/>
<path d="M64.6762 44.5014C65.9487 44.5014 66.9802 43.4699 66.9802 42.1975C66.9802 40.9251 65.9487 39.8936 64.6762 39.8936C63.4038 39.8936 62.3723 40.9251 62.3723 42.1975C62.3723 43.4699 63.4038 44.5014 64.6762 44.5014Z" fill="#EBF2F4"/>
<path d="M19.5093 79.3497C18.4012 78.3409 17.3835 77.2372 16.4675 76.0513C13.5726 72.1764 12.2732 67.3392 12.8368 62.5353C13.468 57.3446 16.3919 51.9494 21.156 49.5487C26.24 46.9881 32.5379 47.5176 37.0565 43.7207C40.8249 40.5451 42.1517 35.3867 44.9094 31.4026C47.2654 28.0087 50.1174 24.9124 53.5758 22.6184C62.9266 16.4184 74.4078 17.9783 84.2918 22.0517C89.1402 24.0519 92.8243 26.6125 95.6093 29.462" stroke="#DEEAED" stroke-width="0.5" stroke-miterlimit="10"/>
<path d="M99.0205 33.7197C106.944 45.9622 102.474 60.7517 102.474 60.7517" stroke="#DEEAED" stroke-width="0.5" stroke-miterlimit="10"/>
<path d="M30.0206 91.877C33.6873 104.789 28.9182 110.248 28.9182 110.248" stroke="#DEEAED" stroke-width="0.5" stroke-miterlimit="10"/>
<path d="M89.3708 55.4655C88.9612 53.9673 88.1818 52.596 87.1041 51.4776C84.9961 49.237 81.8799 47.9226 78.7961 48.018C76.6199 48.0875 73.7914 48.5909 72.012 46.9975C71.0808 46.1692 70.8836 44.8213 70.524 43.6991C70.1275 42.4319 69.7964 41.1452 69.532 39.844C69.2966 38.6061 68.8494 37.4181 68.2102 36.3323C67.52 35.1568 66.5431 34.1755 65.3706 33.4803C63.1683 32.208 60.0944 32.0902 57.881 33.3947C57.5659 33.5834 57.2672 33.7983 56.9882 34.037C56.9228 34.0908 56.8604 34.1479 56.8009 34.2082C54.8814 35.9776 53.9564 38.8383 54.0047 41.394C54.0047 41.394 54.0047 41.5539 54.0047 41.8317C54.0047 41.9817 54.0047 42.1156 54.0047 42.2334C54.0109 42.4628 54.0159 42.7406 54.0109 43.0456C54.1126 44.5473 54.3532 51.0164 51.5669 54.4809C52.9197 54.0593 54.2949 53.6799 55.6787 53.3649C55.6824 53.3661 55.6863 53.3661 55.6899 53.3649C55.8337 53.2843 57.2139 52.5527 58.1389 52.8689C58.3143 52.928 58.4726 53.0291 58.6001 53.1633C58.7276 53.2975 58.8204 53.4608 58.8705 53.639C58.8705 53.6489 58.8705 53.6551 58.8817 53.66C58.8928 53.7034 58.9089 53.7506 58.9189 53.7989C58.9289 53.8442 58.9414 53.8889 58.9561 53.9328C59.0724 54.2897 59.2323 54.6308 59.4322 54.9484C59.4591 54.9982 59.4916 55.0448 59.5289 55.0873C59.725 55.3454 59.9553 55.5756 60.2134 55.7718C60.1167 55.6763 60.015 55.5684 59.9084 55.4618C59.5521 55.108 59.2812 54.6776 59.1161 54.2034C58.9511 53.7292 58.8964 53.2236 58.9561 52.7251C58.9561 52.7251 59.1867 53.0028 59.6567 52.735C60.1266 52.4672 59.4161 50.1533 59.24 49.4626C59.1755 49.206 59.555 49.2382 60.144 49.3833C59.7146 49.0904 59.3231 48.7456 58.9784 48.3566C58.7383 48.0911 58.5202 47.8067 58.3261 47.5059C57.4805 46.1915 57.1605 45.1809 56.9894 43.9298C56.594 43.4887 56.3859 42.9111 56.409 42.3193C56.4322 41.7274 56.6848 41.1679 57.1134 40.7591C57.1226 40.7454 57.1334 40.7329 57.1457 40.7219C57.4123 40.3796 57.9579 40.2507 58.3113 40.0002C58.6886 39.7164 59.0228 39.3793 59.3033 38.9995C59.6294 38.5717 60.1713 37.9418 60.1217 37.364C60.2655 38.9301 61.6233 39.968 63.1262 40.0101C63.4886 40.0093 63.8507 39.9898 64.2112 39.9518C64.2112 39.9518 64.2112 39.9518 64.2223 39.9518C64.3752 39.9193 64.5311 39.9031 64.6873 39.9035C65.0567 39.9028 65.4208 39.9914 65.7485 40.1617C66.0763 40.3321 66.358 40.5791 66.5697 40.8818C66.591 40.909 66.6105 40.9376 66.6279 40.9674C66.6552 41.0096 66.6813 41.0579 66.7085 41.1063C66.797 41.2405 66.8706 41.3839 66.928 41.5341C67.2703 42.4108 67.243 43.3941 67.1897 44.3191C67.1091 45.6831 66.7941 47.1153 66.0352 48.2809C66.0697 48.2502 66.1102 48.2271 66.1543 48.2132C66.1983 48.1993 66.2448 48.1949 66.2907 48.2003C66.8797 48.302 66.463 52.1088 67.114 52.3072C67.765 52.5056 67.734 53.0128 67.734 53.0128C67.734 53.1033 67.7241 53.1888 67.7129 53.2744C67.7723 52.9611 67.794 52.6418 67.7774 52.3233C67.9696 52.3332 68.1618 52.3543 68.354 52.3816C69.4452 52.0096 71.578 53.1777 71.578 53.1777C71.5808 53.1811 71.5848 53.1833 71.5892 53.1839C76.7104 55.1567 80.2022 60.1018 81.3852 65.6186C81.8157 67.6039 82.0397 69.6285 82.0535 71.6599V61.5043C82.0534 61.3779 82.0782 61.2527 82.1265 61.1358C82.1748 61.019 82.2456 60.9129 82.335 60.8235C82.4244 60.7341 82.5305 60.6632 82.6474 60.6149C82.7642 60.5667 82.8894 60.5419 83.0158 60.542H89.6076C89.4985 58.8234 89.8197 57.1506 89.3708 55.4655ZM62.8794 56.9634C63.0555 57.0105 63.2378 57.0539 63.4201 57.0874C63.5366 57.0874 63.6544 57.0762 63.7722 57.0663C64.6579 56.9689 65.4932 56.6053 66.1679 56.0235C65.5095 56.4885 64.6799 56.7774 63.7139 56.8915C63.3977 56.9312 63.12 56.9522 62.8794 56.9634ZM65.4946 48.9542C64.864 49.6021 64.0345 50.0199 63.1386 50.1409C63.3067 50.1693 63.4766 50.1854 63.647 50.1893C64.5373 50.2054 65.0829 49.5259 65.4946 48.9542Z" fill="#46E9FF"/>
<path d="M79.3095 83.5078C78.9884 84.3622 78.7689 84.8445 78.7689 84.8445C78.8545 88.908 76.3683 98.208 76.3683 98.208C73.0488 98.5019 70.1075 98.4386 67.4985 98.1125C74.1449 93.124 77.4223 87.7102 79.3095 83.5078Z" fill="#2C2F2F"/>
<path d="M81.7411 72.3929C73.4864 69.2929 68.4285 73.7929 68.4285 73.7929C68.4186 85.9089 58.041 92.6186 55.7309 93.954C49.8508 90.0096 48.2301 84.845 48.2301 84.845L48.7596 84.225C49.1316 83.1884 50.0852 79.9644 50.3964 76.8582C50.6903 73.9231 50.358 71.0897 50.3369 70.2924C50.2885 68.6518 49.5458 69.0263 48.674 69.3413C47.8023 69.6562 43.7661 69.753 43.7661 69.753C48.24 67.2333 45.9212 56.5445 45.9212 56.5445L55.6726 53.3738C55.6726 53.3738 58.4316 51.8188 58.9127 53.8016C59.3938 55.7844 61.3134 56.6536 63.4139 57.1C65.5145 57.5464 67.4563 55.1272 67.718 53.1704C67.9796 51.2137 71.562 53.1704 71.562 53.1704C80.3895 57.5625 82.1639 65.5444 81.7411 72.3929Z" fill="#2C2F2F"/>
<path d="M15.2735 111.675C15.2735 111.675 22.8672 110.843 24.1779 111.675C24.1779 111.675 24.4185 113.399 23.2591 115.537C22.0997 117.675 20.6749 116.205 13.0129 116.696C13.0129 116.696 6.78441 117.192 6.71249 114.916C6.64057 112.639 9.54341 112.321 11.2335 112.303C12.9237 112.284 15.2735 111.675 15.2735 111.675Z" fill="#46E9FF"/>
<path d="M43.9 109.475H43.8145" stroke="#262626" stroke-width="0.5" stroke-miterlimit="10"/>
<path d="M40.1528 60.7424C42.8635 59.5768 44.809 56.6144 46.4768 54.3155C47.5928 52.7865 48.9568 50.8038 50.0728 49.2848C51.164 47.8092 53.3402 45.1928 53.923 43.4568C53.9491 43.3824 53.9702 43.308 53.9925 43.2373" stroke="#262626" stroke-width="0.5" stroke-miterlimit="10"/>
<path d="M50.1124 69.0781C47.0062 69.7192 33.2397 71.976 31.6562 61.9345C29.8656 50.6059 48.0378 46.2968 49.5296 42.8695C51.0213 39.4421 49.48 35.7122 53.4058 33.9762C55.1418 33.2062 56.362 33.3674 56.7798 34.2118" stroke="#262626" stroke-width="0.5" stroke-miterlimit="10"/>
<path d="M24.1841 112.415C25.6535 105.455 29.0486 91.3348 33.6626 84.4912" stroke="#262626" stroke-width="0.5" stroke-miterlimit="10"/>
<path d="M49.573 67.1055C50.844 70.9867 51.4888 77.1123 48.3193 85.4426" stroke="#262626" stroke-width="0.5" stroke-miterlimit="10"/>
<path d="M25.6212 118.745H21.2477C20.5775 118.739 19.9364 118.47 19.4624 117.997C18.9883 117.523 18.7193 116.882 18.7131 116.212C18.714 116.095 18.7231 115.979 18.7404 115.863C18.8247 115.659 18.8854 115.445 18.9215 115.227C18.9971 114.81 19.0132 114.564 19.7609 114.174C20.238 113.931 20.7291 113.717 21.2316 113.532C21.3271 113.5 21.4238 113.458 21.5304 113.42C21.9322 113.27 22.4716 113.067 23.1077 112.826C23.2689 112.768 23.4338 112.702 23.6037 112.639C23.7736 112.576 23.9831 112.495 24.1815 112.42C27.1117 111.33 31.2706 109.779 33.9974 108.758H34.0135C34.1491 108.732 34.287 108.719 34.4252 108.721C35.0558 108.721 35.6606 108.972 36.1065 109.418C36.5525 109.864 36.8032 110.468 36.8035 111.099C36.8035 111.099 20.2743 115.805 25.6212 118.745Z" fill="#46E9FF"/>
<path d="M32.2439 86.877C34.2006 92.0354 35.4679 98.4536 41.2475 106.297" stroke="#262626" stroke-width="0.5" stroke-miterlimit="10"/>
<path d="M68.3168 71.6221C69.2096 80.2674 64.7406 89.5054 53.1169 95.3916C49.4502 97.2516 46.0278 99.7316 43.466 102.973C42.7576 103.878 42.1121 104.831 41.534 105.825C41.0951 106.569 40.0845 107.933 40.5594 108.839C40.8074 109.314 41.2166 109.482 41.7262 109.482C43.1175 109.482 44.5299 105.954 45.6211 104.38" stroke="#262626" stroke-width="0.5" stroke-miterlimit="10"/>
<path d="M48.1419 105.346C48.1419 105.346 45.6359 109.43 43.8999 109.477C42.1639 109.525 43.3915 108.136 43.3915 108.136" stroke="#262626" stroke-width="0.5" stroke-miterlimit="10"/>
<path d="M60.035 52.5674C54.5393 53.3052 49.0536 55.1069 44.1841 57.2893" stroke="#262626" stroke-width="0.5" stroke-miterlimit="10"/>
<path d="M49.9251 106.711C49.9147 106.729 49.9023 106.745 49.8879 106.759C49.6796 107.042 49.4551 107.342 49.2084 107.627C48.6206 108.339 47.9423 109.007 47.0805 109.29C46.3911 109.521 44.9912 109.345 45.7872 108.365" stroke="#262626" stroke-width="0.5" stroke-miterlimit="10"/>
<path d="M45.6644 108.545C45.6371 108.545 45.6049 108.561 45.5789 108.566" stroke="#262626" stroke-width="0.5" stroke-miterlimit="10"/>
<path d="M66.7879 105.78C64.0078 105.79 61.3988 105.929 58.9759 106.152C56.7563 106.356 55.6279 106.485 53.717 106.811" stroke="#262626" stroke-width="0.5" stroke-miterlimit="10"/>
<path d="M49.232 107.662C49.1562 107.673 49.0813 107.69 49.0076 107.71V107.71" stroke="#262626" stroke-width="0.5" stroke-miterlimit="10"/>
<path d="M43.1139 109.309C41.1821 109.915 39.2927 110.649 37.4582 111.506C37.3967 111.537 37.3288 111.554 37.2598 111.554C37.1387 111.553 37.0229 111.504 36.9378 111.418C36.8527 111.332 36.8053 111.215 36.806 111.094C36.8053 110.464 36.5544 109.859 36.1082 109.413C35.6621 108.967 35.0572 108.716 34.4264 108.716C34.2883 108.715 34.1504 108.727 34.0148 108.753H33.9986C33.8577 108.781 33.7198 108.823 33.587 108.877L24.184 112.415C23.9856 112.491 23.7934 112.565 23.6062 112.634C23.419 112.704 23.2702 112.758 23.1102 112.822C22.4741 113.062 21.9347 113.266 21.5329 113.416C21.4263 113.453 21.3296 113.495 21.2341 113.527L20.588 113.768C20.2885 113.847 20.0072 113.983 19.7597 114.169C19.3851 114.433 19.0938 114.798 18.9202 115.222C18.8268 115.423 18.7657 115.638 18.7392 115.858V115.858C18.7219 115.974 18.7128 116.09 18.7119 116.207C18.7181 116.877 18.9871 117.518 19.4611 117.992C19.9352 118.466 20.5763 118.734 21.2465 118.74H80.6425C81.9752 118.737 83.2731 118.315 84.3531 117.534C85.433 116.753 86.2403 115.653 86.6609 114.388C87.0815 113.124 87.0942 111.759 86.6971 110.487C86.3 109.215 85.5133 108.099 84.448 107.299L78.0174 102.279C76.894 101.401 75.9156 99.5511 76.3645 98.2045C77.7978 93.8884 78.6074 89.3897 78.7688 84.8447" stroke="#262626" stroke-width="0.5" stroke-miterlimit="10"/>
<path d="M18.728 116.483H8.47439C8.2416 116.484 8.01097 116.438 7.79572 116.35C7.58046 116.261 7.38481 116.131 7.21997 115.966C7.05514 115.802 6.92435 115.607 6.83512 115.392C6.74588 115.177 6.69995 114.946 6.69995 114.713C6.69995 113.845 7.59275 112.879 8.44835 112.729L15.876 111.581C15.3948 93.0395 18.728 78.3802 22.4951 71.895C23.6359 69.9284 25.4624 68.547 27.532 67.7844C32.182 66.0794 37.3912 68.0572 40.0188 72.2546L43.2502 77.418L47.3149 83.9106C47.3496 83.9639 47.3856 84.0172 47.4228 84.0681L49.0831 86.2926" stroke="#262626" stroke-width="0.5" stroke-miterlimit="10"/>
<path d="M51.5718 54.4769C54.4052 52.3689 53.9836 41.3998 53.9836 41.3998C53.9352 38.7636 54.9185 35.8012 56.967 34.0429C57.2461 33.8041 57.5447 33.5893 57.8598 33.4006C60.0732 32.0961 63.1472 32.2139 65.3494 33.4861C66.5219 34.1814 67.4989 35.1626 68.189 36.3381C68.8302 37.4222 69.2803 38.6083 69.5195 39.8449C69.7833 41.1462 70.1144 42.433 70.5115 43.7C70.8649 44.816 71.0621 46.1701 71.9921 46.9984C73.7727 48.5918 76.6012 48.0884 78.7774 48.0189C81.8588 47.921 84.9687 49.2403 87.0854 51.4785C88.1608 52.5982 88.9399 53.9684 89.3521 55.4651C89.7985 57.1528 89.4761 58.8268 89.5914 60.5405" stroke="#262626" stroke-width="0.5" stroke-miterlimit="10"/>
<path d="M60.5569 54.8353L59.8898 51.9461L58.9709 48.3525" stroke="#262626" stroke-width="0.5" stroke-miterlimit="10"/>
<path d="M62.3736 47.8731C62.8598 47.8731 63.254 47.4789 63.254 46.9927C63.254 46.5065 62.8598 46.1123 62.3736 46.1123C61.8873 46.1123 61.4932 46.5065 61.4932 46.9927C61.4932 47.4789 61.8873 47.8731 62.3736 47.8731Z" stroke="#262626" stroke-width="0.5" stroke-miterlimit="10"/>
<path d="M102.808 86.6339C102.809 86.9812 102.741 87.3252 102.609 87.6463C102.476 87.9674 102.282 88.2592 102.037 88.505C101.792 88.7509 101.5 88.9459 101.179 89.0789C100.859 89.2119 100.515 89.2803 100.168 89.2801C99.8476 89.2814 99.5302 89.2234 99.2314 89.109C98.8629 88.7391 98.6122 88.2683 98.511 87.7561C98.4098 87.2438 98.4627 86.7131 98.6629 86.2309C98.8631 85.7487 99.2016 85.3365 99.6358 85.0466C100.07 84.7566 100.58 84.6017 101.103 84.6016C101.42 84.6007 101.736 84.6587 102.033 84.7727C102.278 85.0163 102.473 85.3062 102.606 85.6257C102.739 85.9452 102.808 86.2879 102.808 86.6339Z" fill="#EBF2F4"/>
<path d="M102.807 69.7502C102.808 70.0971 102.74 70.4406 102.607 70.7611C102.475 71.0816 102.28 71.3728 102.035 71.6181C101.79 71.8634 101.499 72.058 101.178 72.1907C100.858 72.3234 100.514 72.3916 100.167 72.3914C99.9052 72.4238 99.639 72.3901 99.3931 72.2932C99.1472 72.1964 98.9295 72.0396 98.7598 71.837C98.59 71.6345 98.4737 71.3927 98.4213 71.1337C98.3689 70.8747 98.3822 70.6067 98.4599 70.3541C98.4598 70.0072 98.528 69.6637 98.6607 69.3432C98.7933 69.0227 98.9879 68.7314 99.2332 68.4861C99.4785 68.2408 99.7697 68.0463 100.09 67.9136C100.411 67.781 100.754 67.7128 101.101 67.7129C101.423 67.7114 101.743 67.7712 102.042 67.889C102.533 68.3838 102.809 69.0531 102.807 69.7502Z" fill="#EBF2F4"/>
<path d="M102.808 104.436C102.808 104.783 102.74 105.127 102.607 105.447C102.475 105.768 102.28 106.059 102.035 106.304C101.79 106.55 101.499 106.744 101.178 106.877C100.858 107.01 100.514 107.078 100.168 107.078C99.8475 107.08 99.53 107.022 99.2314 106.907C98.8633 106.537 98.613 106.066 98.5121 105.554C98.4111 105.042 98.4641 104.511 98.6642 104.029C98.8643 103.548 99.2027 103.136 99.6366 102.846C100.071 102.556 100.581 102.401 101.103 102.4C101.42 102.399 101.736 102.457 102.033 102.572C102.279 102.815 102.474 103.106 102.607 103.426C102.74 103.746 102.808 104.09 102.808 104.436Z" fill="#EBF2F4"/>
<path d="M102.808 86.6339C102.809 86.9812 102.741 87.3252 102.609 87.6463C102.476 87.9674 102.282 88.2592 102.037 88.505C101.792 88.7509 101.5 88.9459 101.179 89.0789C100.859 89.2119 100.515 89.2803 100.168 89.2801C99.8476 89.2814 99.5302 89.2234 99.2314 89.109C98.8629 88.7391 98.6122 88.2683 98.511 87.7561C98.4098 87.2438 98.4627 86.7131 98.6629 86.2309C98.8631 85.7487 99.2016 85.3365 99.6358 85.0466C100.07 84.7566 100.58 84.6017 101.103 84.6016C101.42 84.6007 101.736 84.6587 102.033 84.7727C102.278 85.0163 102.473 85.3062 102.606 85.6257C102.739 85.9452 102.808 86.2879 102.808 86.6339Z" fill="#EBF2F4"/>
<path d="M102.807 69.7502C102.808 70.0971 102.74 70.4406 102.607 70.7611C102.475 71.0816 102.28 71.3728 102.035 71.6181C101.79 71.8634 101.499 72.058 101.178 72.1907C100.858 72.3234 100.514 72.3916 100.167 72.3914C99.9052 72.4238 99.639 72.3901 99.3931 72.2932C99.1472 72.1964 98.9295 72.0396 98.7598 71.837C98.59 71.6345 98.4737 71.3927 98.4213 71.1337C98.3689 70.8747 98.3822 70.6067 98.4599 70.3541C98.4598 70.0072 98.528 69.6637 98.6607 69.3432C98.7933 69.0227 98.9879 68.7314 99.2332 68.4861C99.4785 68.2408 99.7697 68.0463 100.09 67.9136C100.411 67.781 100.754 67.7128 101.101 67.7129C101.423 67.7114 101.743 67.7712 102.042 67.889C102.533 68.3838 102.809 69.0531 102.807 69.7502Z" fill="#EBF2F4"/>
<path d="M102.808 104.436C102.808 104.783 102.74 105.127 102.607 105.447C102.475 105.768 102.28 106.059 102.035 106.304C101.79 106.55 101.499 106.744 101.178 106.877C100.858 107.01 100.514 107.078 100.168 107.078C99.8475 107.08 99.53 107.022 99.2314 106.907C98.8633 106.537 98.613 106.066 98.5121 105.554C98.4111 105.042 98.4641 104.511 98.6642 104.029C98.8643 103.548 99.2027 103.136 99.6366 102.846C100.071 102.556 100.581 102.401 101.103 102.4C101.42 102.399 101.736 102.457 102.033 102.572C102.279 102.815 102.474 103.106 102.607 103.426C102.74 103.746 102.808 104.09 102.808 104.436Z" fill="#EBF2F4"/>
<path d="M58.7068 44.7055C59.9792 44.7055 61.0107 43.674 61.0107 42.4016C61.0107 41.1292 59.9792 40.0977 58.7068 40.0977C57.4343 40.0977 56.4028 41.1292 56.4028 42.4016C56.4028 43.674 57.4343 44.7055 58.7068 44.7055Z" stroke="#262626" stroke-width="0.5" stroke-miterlimit="10"/>
<path d="M64.6762 44.5014C65.9487 44.5014 66.9802 43.4699 66.9802 42.1975C66.9802 40.9251 65.9487 39.8936 64.6762 39.8936C63.4038 39.8936 62.3723 40.9251 62.3723 42.1975C62.3723 43.4699 63.4038 44.5014 64.6762 44.5014Z" stroke="#262626" stroke-width="0.5" stroke-miterlimit="10"/>
<path d="M57.7434 42.0996C57.7434 42.0996 58.6722 43.1648 59.627 42.0996" stroke="#262626" stroke-width="0.5" stroke-miterlimit="10"/>
<path d="M63.74 42.0996C63.74 42.0996 64.6675 43.1648 65.6236 42.0996" stroke="#262626" stroke-width="0.5" stroke-miterlimit="10"/>
<path d="M61.012 42.4082C61.012 42.4082 61.5352 41.5588 62.376 42.2036" stroke="#262626" stroke-width="0.5" stroke-miterlimit="10"/>
<path d="M56.9819 43.9235C57.1531 45.1746 57.4779 46.1902 58.3187 47.5046C59.2015 48.8686 60.7887 50.178 62.4578 50.1892C63.1669 50.2028 63.8676 50.0334 64.4923 49.6974C65.1169 49.3614 65.6445 48.8701 66.024 48.2709C66.7829 47.1066 67.1003 45.6781 67.1809 44.3029C67.2343 43.3791 67.2566 42.3958 66.9193 41.5179C66.5473 40.5581 65.6793 39.9059 64.6427 39.9183C64.133 39.9257 63.6271 40.02 63.1175 40.0038C61.6121 39.958 60.2555 38.9238 60.1105 37.3564C60.1638 37.9306 59.6145 38.5617 59.2958 38.9932C59.0138 39.3692 58.6798 39.7032 58.3038 39.9852C57.9442 40.2494 57.3651 40.3758 57.1084 40.7441" stroke="#262626" stroke-width="0.5" stroke-miterlimit="10"/>
<path d="M86.9862 112.731H117.333C117.588 112.731 117.834 112.63 118.015 112.45C118.197 112.27 118.299 112.025 118.3 111.769V61.5042C118.3 61.3775 118.275 61.2519 118.226 61.1349C118.178 61.0178 118.106 60.9115 118.016 60.8221C117.926 60.7327 117.82 60.6619 117.702 60.6138C117.585 60.5658 117.46 60.5414 117.333 60.542H82.9984C82.872 60.5418 82.7468 60.5666 82.6299 60.6149C82.5131 60.6632 82.407 60.7341 82.3176 60.8235C82.2282 60.9129 82.1573 61.019 82.109 61.1358C82.0607 61.2526 82.036 61.3778 82.0361 61.5042V105.411" stroke="#262626" stroke-width="0.5" stroke-miterlimit="10"/>
<path d="M118.297 77.834H82.0374V95.4345H118.297V77.834Z" stroke="#262626" stroke-width="0.5" stroke-miterlimit="10"/>
<path d="M67.7377 51.9561C68.0229 54.5055 66.2386 56.7921 63.7536 57.0735C61.2686 57.355 59.028 55.5074 58.7378 52.958" stroke="#262626" stroke-width="0.5" stroke-miterlimit="10"/>
<path d="M66.4681 47.4561L66.9814 52.2573C67.2294 52.2685 67.4774 52.2846 67.7254 52.3057C74.9373 52.8724 79.8985 58.807 81.3654 65.6072C81.7961 67.5929 82.0201 69.6179 82.0338 71.6497C82.0473 74.2456 81.6924 76.8303 80.9798 79.3265C80.2713 81.7628 79.262 84.1012 77.9753 86.2879C76.6641 88.509 75.1315 90.5916 73.4009 92.504C71.6193 94.4664 69.6851 96.2845 67.6163 97.9414C65.9324 99.293 64.1629 100.523 62.3773 101.732C60.779 102.811 59.0293 103.629 57.3628 104.584C55.6268 105.576 53.9354 106.638 52.2936 107.771C51.417 108.38 50.3369 108.946 49.3003 108.359C49.0114 108.199 49.0523 107.92 49.2085 107.631C49.3908 107.295 49.733 106.948 49.888 106.763" stroke="#262626" stroke-width="0.5" stroke-miterlimit="10"/>
<path d="M100.168 89.2761C101.627 89.2761 102.81 88.093 102.81 86.6337C102.81 85.1743 101.627 83.9912 100.168 83.9912C98.7082 83.9912 97.5251 85.1743 97.5251 86.6337C97.5251 88.093 98.7082 89.2761 100.168 89.2761Z" stroke="#262626" stroke-width="0.5" stroke-miterlimit="10"/>
<path d="M100.168 72.3903C101.627 72.3903 102.81 71.2073 102.81 69.7479C102.81 68.2885 101.627 67.1055 100.168 67.1055C98.7082 67.1055 97.5251 68.2885 97.5251 69.7479C97.5251 71.2073 98.7082 72.3903 100.168 72.3903Z" stroke="#262626" stroke-width="0.5" stroke-miterlimit="10"/>
<path d="M100.168 107.079C101.627 107.079 102.81 105.896 102.81 104.436C102.81 102.977 101.627 101.794 100.168 101.794C98.7082 101.794 97.5251 102.977 97.5251 104.436C97.5251 105.896 98.7082 107.079 100.168 107.079Z" stroke="#262626" stroke-width="0.5" stroke-miterlimit="10"/>
<path d="M81.0676 79.0005C80.6299 80.2195 80.0893 81.7595 79.3093 83.5079C80.0781 81.4384 81.4533 77.1939 81.741 72.3926C81.741 72.3926 82.6561 74.632 81.0676 79.0005Z" fill="#262626"/>
<path d="M108.752 33.8693L100.692 35.0758L102.096 36.0678L104.721 38.1696C105.132 38.4585 105.03 39.1417 105.258 39.5559C105.343 40.1811 105.245 40.8178 104.974 41.3877C104.702 41.9576 104.271 42.4359 103.731 42.7637C103.192 43.0916 102.569 43.2547 101.938 43.2331C101.307 43.2116 100.697 43.0062 100.181 42.6423L93.8472 38.1845C93.1479 37.7017 92.5867 37.0447 92.2191 36.2786C91.7008 33.6981 93.2917 30.83 96.347 30.3737L105.151 29.0531L103.861 28.0487L99.8624 24.9363C99.5197 24.6716 99.2337 24.3405 99.0217 23.9629C98.9332 23.3243 99.0373 22.6738 99.3206 22.0947C99.6039 21.5156 100.054 21.0343 100.612 20.7122C101.171 20.3902 101.813 20.2422 102.456 20.2872C103.099 20.3321 103.714 20.568 104.222 20.9646L111.356 26.5148C111.939 26.9632 112.411 27.5403 112.734 28.2012C113.216 30.6887 111.665 33.4328 108.752 33.8693Z" fill="#46E9FF"/>
<path d="M108.752 33.8689L100.692 35.0754L102.096 36.0674L103.916 37.3396C104.268 37.5828 104.568 37.8933 104.8 38.2532C105.031 38.613 105.189 39.0151 105.264 39.4363C105.339 39.8575 105.33 40.2893 105.237 40.707C105.145 41.1246 104.97 41.5198 104.724 41.8697C104.478 42.2196 104.165 42.5172 103.803 42.7455C103.441 42.9738 103.038 43.1282 102.616 43.1997C102.194 43.2713 101.762 43.2586 101.346 43.1625C100.929 43.0663 100.535 42.8885 100.187 42.6394L93.8471 38.1841C93.1478 37.7013 92.5866 37.0444 92.219 36.2782C90.8711 33.4795 92.4472 29.7595 95.9663 29.2313L102.951 28.1847L103.861 28.0483L99.8624 24.9359C99.5195 24.6772 99.2315 24.3529 99.0151 23.9818C98.7987 23.6108 98.6582 23.2004 98.6019 22.7745C98.5455 22.3487 98.5744 21.9159 98.6869 21.5013C98.7993 21.0868 98.993 20.6987 99.2568 20.3597C99.5206 20.0207 99.8492 19.7375 100.223 19.5267C100.598 19.3158 101.01 19.1814 101.437 19.1314C101.863 19.0814 102.296 19.1167 102.708 19.2353C103.121 19.3539 103.506 19.5534 103.842 19.8222L110.975 25.3736C111.888 26.0687 112.514 27.0748 112.734 28.2008C113.216 30.6883 111.665 33.4324 108.752 33.8689Z" stroke="#262626" stroke-width="0.5" stroke-miterlimit="10"/>
<path d="M83.3444 43.7719L83.239 40.8802L81.9556 42.1971C81.848 42.3076 81.7196 42.3957 81.5778 42.4565C81.4361 42.5173 81.2838 42.5495 81.1295 42.5514C80.9753 42.5532 80.8222 42.5246 80.6791 42.4672C80.5359 42.4099 80.4055 42.3248 80.2952 42.217C80.1848 42.1093 80.0966 41.981 80.0359 41.8392C79.9751 41.6975 79.9428 41.5451 79.941 41.3909C79.9392 41.2367 79.9677 41.0836 80.0251 40.9405C80.0825 40.7973 80.1676 40.6669 80.2754 40.5566L82.5644 38.2118C82.8018 37.9691 83.105 37.8013 83.4367 37.7291C83.7684 37.657 84.1139 37.6836 84.4306 37.8058C84.7473 37.928 85.0212 38.1404 85.2184 38.4166C85.4157 38.6928 85.5276 39.0208 85.5404 39.36L85.6483 42.31L86.5944 41.2423C86.6968 41.1269 86.8208 41.0328 86.9596 40.9654C87.0983 40.898 87.2489 40.8585 87.4028 40.8493C87.5568 40.8401 87.7111 40.8613 87.8568 40.9117C88.0026 40.9621 88.137 41.0408 88.2523 41.1431C88.3678 41.2454 88.462 41.3694 88.5295 41.508C88.5971 41.6467 88.6366 41.7973 88.646 41.9513C88.6553 42.1052 88.6342 42.2595 88.5839 42.4053C88.5336 42.5511 88.455 42.6856 88.3528 42.801L86.4928 44.9016C86.2554 45.174 85.9413 45.3684 85.5916 45.4594C85.2419 45.5504 84.8729 45.5339 84.5328 45.4118C84.1927 45.2898 83.8974 45.068 83.6853 44.7754C83.4733 44.4829 83.3545 44.1331 83.3444 43.7719Z" fill="#EBF2F4"/>
<path d="M72.9618 42.3046L74.3258 41.9996L73.5818 41.5036C73.4569 41.4194 73.3704 41.2892 73.3411 41.1415C73.3118 40.9937 73.3422 40.8404 73.4255 40.7149C73.5095 40.5898 73.6397 40.503 73.7876 40.4737C73.9354 40.4445 74.0888 40.475 74.2142 40.5587L75.5323 41.4416C75.6684 41.5329 75.7748 41.6622 75.8382 41.8134C75.9016 41.9645 75.9193 42.131 75.8891 42.2921C75.8589 42.4533 75.7821 42.602 75.6682 42.7199C75.5543 42.8378 75.4083 42.9198 75.2483 42.9556L73.8533 43.2668L74.4448 43.6227C74.574 43.7007 74.667 43.8267 74.7035 43.9731C74.74 44.1195 74.717 44.2744 74.6395 44.4039C74.5615 44.5332 74.4354 44.6261 74.2889 44.6624C74.1425 44.6987 73.9875 44.6753 73.8583 44.5974L72.7039 43.8955C72.5552 43.8061 72.4368 43.6743 72.3638 43.5169C72.2908 43.3596 72.2666 43.184 72.2944 43.0128C72.3221 42.8416 72.4006 42.6826 72.5195 42.5564C72.6385 42.4302 72.7925 42.3425 72.9618 42.3046Z" fill="#EBF2F4"/>
<path d="M4.72726 121.927L4.10229 123.645" stroke="#DEEAED" stroke-width="0.5" stroke-miterlimit="10"/>
</svg>
