<svg width="24" height="24" viewBox="0 0 24 24" fill="none" xmlns="http://www.w3.org/2000/svg">
<mask id="mask0_25_18" style="mask-type:alpha" maskUnits="userSpaceOnUse" x="2" y="2" width="20" height="20">
<path d="M12 22C17.5228 22 22 17.5228 22 12C22 6.47715 17.5228 2 12 2C6.47715 2 2 6.47715 2 12C2 17.5228 6.47715 22 12 22Z" fill="white"/>
</mask>
<g mask="url(#mask0_25_18)">
<path d="M2 2H22V22H2V2Z" fill="#6DA544"/>
<path d="M12 5.91406L20.2617 12L12 18.0859L3.73828 12L12 5.91406Z" fill="#FFDA44"/>
<path d="M8.80472 10.6328C8.61037 11.0798 8.51445 11.5634 8.52347 12.0508L14.8516 13.9961C15.1304 13.5979 15.3221 13.1453 15.4141 12.668C13.8282 10.1172 10.7383 9.53125 8.80863 10.6367L8.80472 10.6328Z" fill="#EEEEEE"/>
<path d="M11.9883 8.52343C11.417 8.52488 10.8548 8.66709 10.3516 8.9375C9.6589 9.31122 9.11355 9.9089 8.80469 10.6328C9.98822 10.3815 11.2164 10.4369 12.3724 10.7938C13.5285 11.1507 14.5742 11.7972 15.4102 12.6719C15.5654 11.8811 15.4412 11.0609 15.0586 10.3516C14.7602 9.79749 14.317 9.33479 13.7763 9.01284C13.2356 8.69088 12.6176 8.52173 11.9883 8.52343ZM10.2812 11.7852C9.68517 11.7832 9.09232 11.8727 8.52344 12.0508C8.53001 12.6085 8.67069 13.1565 8.93359 13.6484C9.14993 14.0507 9.44343 14.4065 9.79732 14.6953C10.1512 14.9841 10.5585 15.2004 10.996 15.3317C11.4335 15.463 11.8926 15.5068 12.3471 15.4606C12.8015 15.4145 13.2424 15.2792 13.6445 15.0625C14.122 14.8054 14.5326 14.4402 14.8437 13.9961C14.2955 13.3115 13.6014 12.7579 12.8122 12.3754C12.0229 11.9929 11.1583 11.7913 10.2812 11.7852Z" fill="#0052B4"/>
</g>
</svg>
