<svg width="24" height="24" viewBox="0 0 24 24" fill="none" xmlns="http://www.w3.org/2000/svg">
<mask id="mask0_27_125" style="mask-type:alpha" maskUnits="userSpaceOnUse" x="2" y="2" width="20" height="20">
<path d="M12 22C17.5228 22 22 17.5228 22 12C22 6.47715 17.5228 2 12 2C6.47715 2 2 6.47715 2 12C2 17.5228 6.47715 22 12 22Z" fill="white"/>
</mask>
<g mask="url(#mask0_27_125)">
<path d="M2 2H22V22H2V2Z" fill="#D80027"/>
<path d="M2 7H22V17H2V7Z" fill="#FFDA44"/>
<path d="M7.625 13.875H7V10.75H7.625V13.875ZM12.625 13.875H13.25V10.75H12.625V13.875Z" fill="#EEEEEE"/>
<path d="M10.125 14.8125C11.1605 14.8125 12 14.2529 12 13.5625C12 12.8721 11.1605 12.3125 10.125 12.3125C9.08947 12.3125 8.25 12.8721 8.25 13.5625C8.25 14.2529 9.08947 14.8125 10.125 14.8125Z" fill="#EEEEEE"/>
<path d="M7.625 9.8125C7.625 9.63991 7.48509 9.5 7.3125 9.5C7.13991 9.5 7 9.63991 7 9.8125V10.125C7 10.2976 7.13991 10.4375 7.3125 10.4375C7.48509 10.4375 7.625 10.2976 7.625 10.125V9.8125Z" fill="#D80027"/>
<path d="M13.25 9.8125C13.25 9.63991 13.1101 9.5 12.9375 9.5C12.7649 9.5 12.625 9.63991 12.625 9.8125V10.125C12.625 10.2976 12.7649 10.4375 12.9375 10.4375C13.1101 10.4375 13.25 10.2976 13.25 10.125V9.8125Z" fill="#D80027"/>
<path d="M10.125 12.625V13.5625C10.125 13.8111 10.2238 14.0496 10.3996 14.2254C10.5754 14.4012 10.8139 14.5 11.0625 14.5C11.3111 14.5 11.5496 14.4012 11.7254 14.2254C11.9012 14.0496 12 13.8111 12 13.5625V12.625H11.0625H10.125Z" fill="#D80027"/>
<path d="M7.625 10.125H7C6.82741 10.125 6.6875 10.2649 6.6875 10.4375C6.6875 10.6101 6.82741 10.75 7 10.75H7.625C7.79759 10.75 7.9375 10.6101 7.9375 10.4375C7.9375 10.2649 7.79759 10.125 7.625 10.125Z" fill="#FF9811"/>
<path d="M13.25 10.125H12.625C12.4524 10.125 12.3125 10.2649 12.3125 10.4375C12.3125 10.6101 12.4524 10.75 12.625 10.75H13.25C13.4226 10.75 13.5625 10.6101 13.5625 10.4375C13.5625 10.2649 13.4226 10.125 13.25 10.125Z" fill="#FF9811"/>
<path d="M7.625 13.875H7C6.82741 13.875 6.6875 14.0149 6.6875 14.1875C6.6875 14.3601 6.82741 14.5 7 14.5H7.625C7.79759 14.5 7.9375 14.3601 7.9375 14.1875C7.9375 14.0149 7.79759 13.875 7.625 13.875Z" fill="#FF9811"/>
<path d="M13.25 13.875H12.625C12.4524 13.875 12.3125 14.0149 12.3125 14.1875C12.3125 14.3601 12.4524 14.5 12.625 14.5H13.25C13.4226 14.5 13.5625 14.3601 13.5625 14.1875C13.5625 14.0149 13.4226 13.875 13.25 13.875Z" fill="#FF9811"/>
<path d="M8.25 12.625V13.5625C8.25 13.8111 8.34877 14.0496 8.52459 14.2254C8.7004 14.4012 8.93886 14.5 9.1875 14.5C9.43614 14.5 9.6746 14.4012 9.85041 14.2254C10.0262 14.0496 10.125 13.8111 10.125 13.5625V12.625H9.1875H8.25Z" fill="#FF9811"/>
<path d="M6.76562 11.8438H13.4844H6.76562ZM6.76562 12.7812H7.85938H6.76562ZM12.3906 12.7812H13.4844Z" fill="#262626"/>
<path d="M6.76562 11.6875C6.72418 11.6875 6.68444 11.704 6.65514 11.7333C6.62584 11.7626 6.60938 11.8023 6.60938 11.8438C6.60938 11.8852 6.62584 11.9249 6.65514 11.9542C6.68444 11.9835 6.72418 12 6.76562 12H13.4844C13.5258 12 13.5656 11.9835 13.5949 11.9542C13.6242 11.9249 13.6406 11.8852 13.6406 11.8438C13.6406 11.8023 13.6242 11.7626 13.5949 11.7333C13.5656 11.704 13.5258 11.6875 13.4844 11.6875H6.76562ZM6.76562 12.625C6.72418 12.625 6.68444 12.6415 6.65514 12.6708C6.62584 12.7001 6.60938 12.7398 6.60938 12.7812C6.60938 12.8227 6.62584 12.8624 6.65514 12.8917C6.68444 12.921 6.72418 12.9375 6.76562 12.9375H7.85938C7.90082 12.9375 7.94056 12.921 7.96986 12.8917C7.99916 12.8624 8.01562 12.8227 8.01562 12.7812C8.01562 12.7398 7.99916 12.7001 7.96986 12.6708C7.94056 12.6415 7.90082 12.625 7.85938 12.625H6.76562ZM12.3906 12.625C12.3492 12.625 12.3094 12.6415 12.2801 12.6708C12.2508 12.7001 12.2344 12.7398 12.2344 12.7812C12.2344 12.8227 12.2508 12.8624 12.2801 12.8917C12.3094 12.921 12.3492 12.9375 12.3906 12.9375H13.4844C13.5258 12.9375 13.5656 12.921 13.5949 12.8917C13.6242 12.8624 13.6406 12.8227 13.6406 12.7812C13.6406 12.7398 13.6242 12.7001 13.5949 12.6708C13.5656 12.6415 13.5258 12.625 13.4844 12.625H12.3906Z" fill="#D80027"/>
<path d="M9.65625 8.5625C9.38281 8.5625 9.14844 8.75781 9.07031 8.99219L8.875 8.95313C8.52344 8.95313 8.25 9.22656 8.25 9.57813C8.25 9.92969 8.52344 10.2031 8.875 10.2031C9.14844 10.2031 9.38281 10.0469 9.46094 9.77344C9.57486 9.81453 9.69827 9.82165 9.81617 9.79391C9.93406 9.76617 10.0414 9.70477 10.125 9.61719C10.2086 9.70477 10.3159 9.76617 10.4338 9.79391C10.5517 9.82165 10.6751 9.81453 10.7891 9.77344C10.827 9.89175 10.8993 9.99609 10.9967 10.0731C11.0942 10.1501 11.2124 10.1964 11.3363 10.2059C11.4602 10.2154 11.5841 10.1878 11.6922 10.1266C11.8003 10.0654 11.8877 9.97339 11.9433 9.86227C11.9988 9.75115 12.02 9.62599 12.0041 9.50277C11.9882 9.37955 11.936 9.26387 11.854 9.1705C11.7721 9.07712 11.6641 9.01028 11.544 8.97853C11.4239 8.94677 11.2971 8.95152 11.1797 8.99219C11.142 8.89092 11.0787 8.80114 10.996 8.73162C10.9133 8.66211 10.814 8.61522 10.7077 8.59555C10.6015 8.57587 10.4919 8.58408 10.3898 8.61936C10.2877 8.65465 10.1964 8.71581 10.125 8.79688C10.0078 8.64063 9.85156 8.5625 9.65625 8.5625ZM9.65625 8.875C9.85156 8.875 9.96875 9.03125 9.96875 9.1875C9.96875 9.38281 9.85156 9.5 9.65625 9.5C9.5 9.5 9.34375 9.38281 9.34375 9.1875C9.34375 9.03125 9.5 8.875 9.65625 8.875ZM10.5937 8.875C10.7891 8.875 10.9062 9.03125 10.9062 9.1875C10.9062 9.38281 10.7891 9.5 10.5937 9.5C10.4375 9.5 10.2812 9.38281 10.2812 9.1875C10.2812 9.03125 10.4375 8.875 10.5937 8.875ZM8.875 9.26563L9.03125 9.30469L9.1875 9.61719C9.1875 9.77344 9.03125 9.89063 8.875 9.89063C8.71875 9.89063 8.5625 9.77344 8.5625 9.57813C8.5625 9.42188 8.71875 9.26563 8.875 9.26563ZM11.375 9.26563C11.5703 9.26563 11.6875 9.42188 11.6875 9.57813C11.6875 9.77344 11.5703 9.89063 11.375 9.89063C11.2187 9.89063 11.0625 9.77344 11.0625 9.61719L11.2187 9.30469L11.375 9.26563Z" fill="#EEEEEE"/>
<path d="M9.8125 8.25H10.4375V9.5H9.8125V8.25Z" fill="#FF9811"/>
<path d="M10.125 10.75H12V12.625H10.125V10.75Z" fill="#EEEEEE"/>
<path d="M11.6875 10.125L11.375 10.4375H8.875L8.5625 10.125C8.5625 9.61719 9.26562 9.1875 10.125 9.1875C10.9844 9.1875 11.6875 9.61719 11.6875 10.125ZM8.25 10.75H10.125V12.625H8.25V10.75Z" fill="#D80027"/>
<path d="M11.4531 11.4531C11.4531 11.2374 11.2782 11.0625 11.0625 11.0625C10.8468 11.0625 10.6719 11.2374 10.6719 11.4531V11.9219C10.6719 12.1376 10.8468 12.3125 11.0625 12.3125C11.2782 12.3125 11.4531 12.1376 11.4531 11.9219V11.4531Z" fill="#D80027"/>
<path d="M8.64062 12.625H9.03125V14.5H8.64062V12.625ZM9.38281 12.625H9.77344V14.5H9.38281V12.625Z" fill="#D80027"/>
<path d="M8.5625 11.0625V11.375H8.875V12H8.5625V12.3125H9.8125V12H9.5V11.375H9.8125V11.0625H8.5625ZM8.875 10.4375H11.375V10.75H8.875V10.4375Z" fill="#FF9811"/>
<path d="M9.26562 10.125C9.39507 10.125 9.5 10.0201 9.5 9.89062C9.5 9.76118 9.39507 9.65625 9.26562 9.65625C9.13618 9.65625 9.03125 9.76118 9.03125 9.89062C9.03125 10.0201 9.13618 10.125 9.26562 10.125Z" fill="#FFDA44"/>
<path d="M10.125 10.125C10.2544 10.125 10.3594 10.0201 10.3594 9.89062C10.3594 9.76118 10.2544 9.65625 10.125 9.65625C9.99556 9.65625 9.89062 9.76118 9.89062 9.89062C9.89062 10.0201 9.99556 10.125 10.125 10.125Z" fill="#FFDA44"/>
<path d="M10.9844 10.125C11.1138 10.125 11.2188 10.0201 11.2188 9.89062C11.2188 9.76118 11.1138 9.65625 10.9844 9.65625C10.8549 9.65625 10.75 9.76118 10.75 9.89062C10.75 10.0201 10.8549 10.125 10.9844 10.125Z" fill="#FFDA44"/>
<path d="M10.125 13.25C10.4702 13.25 10.75 12.9702 10.75 12.625C10.75 12.2798 10.4702 12 10.125 12C9.77982 12 9.5 12.2798 9.5 12.625C9.5 12.9702 9.77982 13.25 10.125 13.25Z" fill="#338AF3"/>
<path d="M13.25 14.5H12.625C12.4524 14.5 12.3125 14.6399 12.3125 14.8125C12.3125 14.9851 12.4524 15.125 12.625 15.125H13.25C13.4226 15.125 13.5625 14.9851 13.5625 14.8125C13.5625 14.6399 13.4226 14.5 13.25 14.5Z" fill="#338AF3"/>
<path d="M7.625 14.5H7C6.82741 14.5 6.6875 14.6399 6.6875 14.8125C6.6875 14.9851 6.82741 15.125 7 15.125H7.625C7.79759 15.125 7.9375 14.9851 7.9375 14.8125C7.9375 14.6399 7.79759 14.5 7.625 14.5Z" fill="#338AF3"/>
</g>
</svg>
