<svg width="24" height="24" viewBox="0 0 24 24" fill="none" xmlns="http://www.w3.org/2000/svg">
<mask id="mask0_25_19" style="mask-type:alpha" maskUnits="userSpaceOnUse" x="1" y="2" width="21" height="20">
<path d="M11.9219 22C17.4447 22 21.9219 17.5228 21.9219 12C21.9219 6.47715 17.4447 2 11.9219 2C6.39903 2 1.92188 6.47715 1.92188 12C1.92188 17.5228 6.39903 22 11.9219 22Z" fill="white"/>
</mask>
<g mask="url(#mask0_25_19)">
<path d="M1.92188 12L11.9219 2H21.9219V4.17578L21.1133 5.52344L21.9219 6.78125V9.39062L21.0938 10.668L21.9219 12V14.6094L20.9844 15.8477L21.9219 17.2188V19.8242L11.8008 20.9297L1.92188 19.8242V17.2188L2.98047 15.918L1.92188 14.6094V12Z" fill="#EEEEEE"/>
<path d="M11.9219 12H21.9219V9.39062H11.1758L11.9219 12ZM11.1758 6.78125H21.9219V4.17578H11.1758V6.78125ZM21.9219 22V19.8242H1.92188V22H21.9219ZM1.92188 17.2187H21.9219V14.6094H1.92188V17.2187Z" fill="#D80027"/>
<path d="M1.92188 2H11.9219V12H1.92188V2Z" fill="#0052B4"/>
<path d="M2.50781 2.56641L2.19141 3.5625H1.14062L1.98828 4.17969L1.66406 5.17578L2.50781 4.55859L3.35156 5.17578L3.03125 4.18359L3.88281 3.5625H2.83594L2.50781 2.56641ZM6.09375 2.56641L5.76953 3.5625H4.72266L5.57031 4.17969L5.24609 5.17578L6.09375 4.55859L6.94141 5.17578L6.61719 4.18359L7.46875 3.5625H6.42188L6.09375 2.56641ZM9.68359 2.56641L9.35938 3.56641H8.3125L9.16016 4.18359L8.83594 5.17969L9.68359 4.5625L10.5273 5.17578L10.207 4.1875L11.0547 3.5625H10.0078L9.68359 2.56641ZM2.50781 5.48438L2.18359 6.48047H1.14062L1.98828 7.09766L1.66406 8.09375L2.50781 7.46875L3.35156 8.08203L3.03125 7.09375L3.87891 6.46875H2.83594L2.50781 5.48438ZM6.09375 5.48438L5.76953 6.48047H4.72656L5.57422 7.09766L5.25 8.09375L6.09766 7.47656L6.94141 8.08984L6.62109 7.10156L7.46875 6.47656H6.42188L6.09375 5.48438ZM9.67969 5.48438L9.35547 6.48047H8.30859L9.15625 7.09766L8.83203 8.09375L9.67969 7.47656L10.5234 8.08984L10.2031 7.10156L11.0508 6.47656H10.0078L9.67969 5.48438ZM2.50781 8.39062L2.18359 9.38672H1.14062L1.98438 10.0078L1.66016 11.0039L2.50781 10.3828L3.35547 11L3.03125 10.0078L3.87891 9.38672H2.83203L2.50781 8.39062ZM6.09375 8.39062L5.76953 9.38672H4.72266L5.57031 10.0078L5.24609 11.0039L6.09375 10.3867L6.94141 11.0039L6.61719 10.0117L7.46484 9.39062H6.41797L6.09375 8.39062ZM9.67969 8.39062L9.35547 9.38672H8.30859L9.15625 10.0039L8.83203 11L9.67969 10.3828L10.5273 11L10.2031 10.0078L11.0508 9.38672H10.0078L9.67969 8.39062Z" fill="#EEEEEE"/>
</g>
</svg>
