<svg width="24" height="24" viewBox="0 0 24 24" fill="none" xmlns="http://www.w3.org/2000/svg">
<path d="M20.5119 9.7766C20.9429 8.48279 20.7945 7.06548 20.1051 5.88864C19.0684 4.0836 16.9843 3.15496 14.9489 3.59197C14.0434 2.57188 12.7425 1.99178 11.3786 2.00009C9.29805 1.99534 7.45204 3.33487 6.81197 5.31447C5.47541 5.5882 4.32173 6.42481 3.64662 7.61055C2.60219 9.41084 2.84029 11.6802 4.23563 13.224C3.80456 14.5178 3.953 15.9351 4.64236 17.1119C5.67907 18.917 7.76318 19.8456 9.79859 19.4086C10.7035 20.4287 12.005 21.0088 13.3689 20.9999C15.4506 21.0052 17.2972 19.6645 17.9373 17.6831C19.2739 17.4094 20.4275 16.5728 21.1027 15.3871C22.1459 13.5868 21.9072 11.3192 20.5125 9.77541L20.5119 9.7766ZM13.3701 19.7583C12.537 19.7595 11.7301 19.468 11.0906 18.9342C11.1197 18.9188 11.1702 18.8909 11.2028 18.8707L14.9863 16.6856C15.1799 16.5758 15.2986 16.3697 15.2974 16.1471V10.8133L16.8964 11.7366C16.9137 11.7449 16.9249 11.7615 16.9273 11.7805V16.1975C16.9249 18.1617 15.3342 19.7542 13.3701 19.7583ZM5.72004 16.4909C5.30262 15.77 5.1524 14.9251 5.2955 14.1051C5.32341 14.1218 5.37269 14.152 5.40772 14.1722L9.19118 16.3573C9.38296 16.4695 9.62047 16.4695 9.81285 16.3573L14.4317 13.6901V15.5367C14.4329 15.5557 14.424 15.5741 14.4092 15.586L10.5847 17.7942C8.88123 18.7751 6.70569 18.192 5.72063 16.4909H5.72004ZM4.7243 8.23222C5.13993 7.51021 5.79604 6.95801 6.57743 6.67122C6.57743 6.70388 6.57565 6.76147 6.57565 6.80185V11.1725C6.57446 11.3946 6.69322 11.6006 6.88619 11.7105L11.5051 14.3771L9.90607 15.3004C9.89003 15.3111 9.86985 15.3128 9.85203 15.3051L6.02701 13.0951C4.32707 12.1107 3.744 9.93573 4.72371 8.23282L4.7243 8.23222ZM17.8619 11.2895L13.243 8.62232L14.842 7.69962C14.858 7.68893 14.8782 7.68715 14.896 7.69487L18.7211 9.90307C20.424 10.8869 21.0076 13.0654 20.0238 14.7684C19.6076 15.4892 18.952 16.0414 18.1712 16.3288V11.8275C18.173 11.6054 18.0549 11.3999 17.8625 11.2895H17.8619ZM19.4532 8.89427C19.4253 8.87705 19.376 8.84736 19.341 8.82717L15.5575 6.64213C15.3657 6.5299 15.1282 6.5299 14.9358 6.64213L10.317 9.30931V7.46271C10.3158 7.4437 10.3247 7.4253 10.3395 7.41342L14.1639 5.207C15.8674 4.22432 18.0454 4.80918 19.0275 6.51328C19.4425 7.23292 19.5927 8.07547 19.452 8.89427H19.4532ZM9.44768 12.1855L7.84808 11.2622C7.83087 11.2539 7.81958 11.2373 7.81721 11.2183V6.80125C7.8184 4.83471 9.41384 3.24105 11.3804 3.24224C12.2122 3.24224 13.0174 3.53437 13.6569 4.06638C13.6278 4.08182 13.5779 4.10973 13.5446 4.12991L9.76119 6.31496C9.56762 6.42481 9.44887 6.63025 9.45006 6.85291L9.44768 12.1843V12.1855ZM10.3164 10.3128L12.3737 9.12465L14.4311 10.3122V12.6878L12.3737 13.8753L10.3164 12.6878V10.3128Z" fill="#193718"/>
</svg>
