<svg width="64" height="42" viewBox="0 0 64 42" fill="none" xmlns="http://www.w3.org/2000/svg">
<g clip-path="url(#clip0_660_7134)">
<path d="M13.1126 0.5H16.9037C17.2194 0.5 17.5221 0.623814 17.7453 0.844205C17.9685 1.0646 18.0939 1.36351 18.0939 1.67519V5.41852C18.0939 5.7302 17.9685 6.02911 17.7453 6.2495C17.5221 6.46989 17.2194 6.59371 16.9037 6.59371H13.1126C12.9563 6.59371 12.8015 6.56331 12.6571 6.50425C12.5127 6.44519 12.3815 6.35863 12.271 6.2495C12.1604 6.14038 12.0728 6.01082 12.013 5.86824C11.9531 5.72566 11.9224 5.57285 11.9224 5.41852V1.67519C11.9224 1.36351 12.0478 1.0646 12.271 0.844205C12.4942 0.623814 12.7969 0.5 13.1126 0.5V0.5Z" fill="#262626"/>
<path fill-rule="evenodd" clip-rule="evenodd" d="M52.0706 11.5952V7.79308C52.0725 7.46853 52.2041 7.15785 52.4368 6.92867C52.6696 6.6995 52.9846 6.57041 53.3133 6.5695H62.2853C62.6089 6.56328 62.9174 6.43336 63.1459 6.20708C63.3744 5.98079 63.5051 5.6758 63.5105 5.35629V1.72357C63.5096 1.56198 63.4765 1.40215 63.413 1.2532C63.3495 1.10426 63.2569 0.969119 63.1406 0.855498C63.0242 0.741878 62.8863 0.652003 62.7348 0.591004C62.5832 0.530006 62.421 0.499079 62.2573 0.499989H53.3098C52.9841 0.50175 52.6721 0.62934 52.4405 0.855444C52.2089 1.08155 52.0761 1.3882 52.0706 1.70974V1.66135C52.0674 1.50721 52.0321 1.35537 51.967 1.21522C51.902 1.07507 51.8085 0.949601 51.6923 0.84657C51.5761 0.74354 51.4398 0.665142 51.2917 0.61623C51.1436 0.567317 50.987 0.548929 50.8314 0.562205H47.1348C46.8061 0.563112 46.4911 0.692206 46.2583 0.921377C46.0256 1.15055 45.8939 1.46124 45.8921 1.78579V17.3398C45.893 17.6649 46.0242 17.9765 46.2571 18.2064C46.4899 18.4363 46.8055 18.5659 47.1348 18.5668H50.8314C51.1601 18.565 51.4748 18.435 51.7069 18.2052C51.939 17.9754 52.0697 17.6643 52.0706 17.3398V11.5952Z" fill="#262626"/>
<path fill-rule="evenodd" clip-rule="evenodd" d="M16.8544 35.3687H7.91743C7.58905 35.3678 7.27439 35.2386 7.0422 35.0093C6.81 34.78 6.67914 34.4693 6.67822 34.1451V1.73404C6.67868 1.57245 6.6469 1.41235 6.5847 1.26289C6.5225 1.11342 6.43109 0.97752 6.31569 0.862937C6.2003 0.748354 6.06317 0.657336 5.91215 0.595079C5.76113 0.532822 5.59917 0.500545 5.43551 0.500092L1.7389 0.500092C1.40899 0.50192 1.09328 0.632843 0.860983 0.864154C0.628686 1.09547 0.498761 1.40829 0.499693 1.73404V40.2492C0.496914 40.4091 0.52618 40.568 0.585808 40.7166C0.645436 40.8653 0.734249 41.0009 0.847139 41.1156C0.960028 41.2303 1.09477 41.3218 1.2436 41.3849C1.39244 41.4479 1.55244 41.4813 1.71439 41.4831H16.8544C17.0181 41.4827 17.18 41.4504 17.3311 41.3881C17.4821 41.3259 17.6192 41.2349 17.7346 41.1203C17.85 41.0057 17.9414 40.8698 18.0036 40.7203C18.0658 40.5709 18.0976 40.4108 18.0971 40.2492V36.5923C18.0953 36.2677 17.9636 35.957 17.7309 35.7279C17.4981 35.4987 17.1831 35.3696 16.8544 35.3687V35.3687Z" fill="#262626"/>
<path fill-rule="evenodd" clip-rule="evenodd" d="M23.3413 40.2491C23.3459 40.5755 23.4802 40.8871 23.7153 41.1166C23.9504 41.3461 24.2674 41.4752 24.598 41.4761H50.8279C51.1566 41.4743 51.4712 41.3443 51.7033 41.1145C51.9354 40.8847 52.0662 40.5736 52.0671 40.2491V24.8748C52.0643 24.5518 51.9327 24.2429 51.7007 24.0151C51.4687 23.7873 51.1551 23.6591 50.8279 23.6582H41.8909C41.7288 23.66 41.5679 23.6302 41.4175 23.5705C41.267 23.5109 41.13 23.4225 41.0142 23.3104C40.8985 23.1983 40.8062 23.0648 40.7428 22.9175C40.6794 22.7702 40.6461 22.6119 40.6447 22.4519V1.73395C40.6456 1.4082 40.5157 1.09537 40.2834 0.864063C40.0511 0.632751 39.7354 0.501829 39.4055 0.5H24.584C24.2553 0.501822 23.9407 0.631793 23.7086 0.861612C23.4765 1.09143 23.3457 1.40248 23.3448 1.72704L23.3413 40.2491ZM29.5548 7.80346C29.5558 7.47923 29.6866 7.16854 29.9188 6.93927C30.151 6.71 30.4657 6.58079 30.794 6.57988H33.2445C33.5679 6.58798 33.8755 6.72035 34.1017 6.94885C34.3279 7.17735 34.4549 7.48395 34.4557 7.80346V22.4277C34.4566 22.7507 34.3285 23.0611 34.0991 23.2915C33.8697 23.5219 33.5576 23.6536 33.2305 23.6582H30.78C30.4529 23.6536 30.1408 23.5219 29.9114 23.2915C29.682 23.0611 29.5539 22.7507 29.5548 22.4277V7.80346ZM45.9061 34.4561C45.9051 34.7803 45.7743 35.091 45.5421 35.3203C45.3099 35.5496 44.9952 35.6788 44.6669 35.6797H30.7835C30.457 35.676 30.145 35.5456 29.9151 35.3167C29.6852 35.0877 29.5557 34.7785 29.5548 34.4561V30.8061C29.5558 30.4819 29.6866 30.1712 29.9188 29.9419C30.151 29.7126 30.4657 29.5834 30.794 29.5825H44.6809C45.0092 29.5834 45.3239 29.7126 45.5561 29.9419C45.7883 30.1712 45.9191 30.4819 45.9201 30.8061L45.9061 34.4561Z" fill="#262626"/>
<path d="M13.1126 8.81619H16.9037C17.2194 8.81619 17.5221 8.94001 17.7453 9.1604C17.9685 9.38079 18.0939 9.6797 18.0939 9.99138V28.9534C18.0939 29.2651 17.9685 29.564 17.7453 29.7844C17.5221 30.0048 17.2194 30.1286 16.9037 30.1286H13.1126C12.7969 30.1286 12.4942 30.0048 12.271 29.7844C12.0478 29.564 11.9224 29.2651 11.9224 28.9534V9.99138C11.9224 9.6797 12.0478 9.38079 12.271 9.1604C12.4942 8.94001 12.7969 8.81619 13.1126 8.81619V8.81619Z" fill="#262626"/>
<path d="M58.5012 21.1246H62.2924C62.608 21.1246 62.9108 21.2484 63.134 21.4688C63.3572 21.6892 63.4826 21.9881 63.4826 22.2998V40.294C63.4826 40.6057 63.3572 40.9046 63.134 41.125C62.9108 41.3454 62.608 41.4692 62.2924 41.4692H58.5012C58.1856 41.4692 57.8828 41.3454 57.6596 41.125C57.4364 40.9046 57.311 40.6057 57.311 40.294V22.2998C57.311 21.9881 57.4364 21.6892 57.6596 21.4688C57.8828 21.2484 58.1856 21.1246 58.5012 21.1246V21.1246Z" fill="#262626"/>
<path d="M13.1126 0.5H16.9037C17.2194 0.5 17.5221 0.623814 17.7453 0.844205C17.9685 1.0646 18.0939 1.36351 18.0939 1.67519V5.41852C18.0939 5.7302 17.9685 6.02911 17.7453 6.2495C17.5221 6.46989 17.2194 6.59371 16.9037 6.59371H13.1126C12.9563 6.59371 12.8015 6.56331 12.6571 6.50425C12.5127 6.44519 12.3815 6.35863 12.271 6.2495C12.1604 6.14038 12.0728 6.01082 12.013 5.86824C11.9531 5.72566 11.9224 5.57285 11.9224 5.41852V1.67519C11.9224 1.36351 12.0478 1.0646 12.271 0.844205C12.4942 0.623814 12.7969 0.5 13.1126 0.5V0.5Z" fill="#262626"/>
<path d="M58.5012 12.4662H62.2924C62.608 12.4662 62.9108 12.59 63.134 12.8104C63.3572 13.0308 63.4826 13.3297 63.4826 13.6414V17.3847C63.4826 17.6964 63.3572 17.9953 63.134 18.2157C62.9108 18.4361 62.608 18.5599 62.2924 18.5599H58.5012C58.1856 18.5599 57.8828 18.4361 57.6596 18.2157C57.4364 17.9953 57.311 17.6964 57.311 17.3847V13.6414C57.311 13.3297 57.4364 13.0308 57.6596 12.8104C57.8828 12.59 58.1856 12.4662 58.5012 12.4662V12.4662Z" fill="#262626"/>
</g>
<defs>
<clipPath id="clip0_660_7134">
<rect width="63" height="41" fill="white" transform="translate(0.5 0.5)"/>
</clipPath>
</defs>
</svg>
