<svg width="24" height="24" viewBox="0 0 24 24" fill="none" xmlns="http://www.w3.org/2000/svg">
<path d="M12 2C10.0222 2 8.08879 2.58649 6.4443 3.6853C4.79981 4.78412 3.51809 6.3459 2.76121 8.17317C2.00433 10.0004 1.8063 12.0111 2.19215 13.9509C2.578 15.8907 3.53041 17.6725 4.92894 19.0711C6.32746 20.4696 8.10929 21.422 10.0491 21.8079C11.9889 22.1937 13.9996 21.9957 15.8268 21.2388C17.6541 20.4819 19.2159 19.2002 20.3147 17.5557C21.4135 15.9112 22 13.9778 22 12C21.9971 9.34873 20.9426 6.80688 19.0679 4.93215C17.1931 3.05742 14.6513 2.00291 12 2ZM12 20C10.4178 20 8.87104 19.5308 7.55544 18.6518C6.23985 17.7727 5.21447 16.5233 4.60897 15.0615C4.00347 13.5997 3.84504 11.9911 4.15372 10.4393C4.4624 8.88743 5.22433 7.46197 6.34315 6.34315C7.46197 5.22433 8.88743 4.4624 10.4393 4.15372C11.9911 3.84504 13.5997 4.00346 15.0615 4.60896C16.5233 5.21447 17.7727 6.23984 18.6518 7.55544C19.5308 8.87103 20 10.4177 20 12C19.9974 14.1209 19.1537 16.1542 17.6539 17.6539C16.1542 19.1536 14.1209 19.9974 12 20ZM14.098 9.634L13 10.268V7C13 6.73478 12.8946 6.48043 12.7071 6.29289C12.5196 6.10536 12.2652 6 12 6C11.7348 6 11.4804 6.10536 11.2929 6.29289C11.1054 6.48043 11 6.73478 11 7V12C11 12.1755 11.0462 12.348 11.134 12.5C11.2218 12.652 11.348 12.7782 11.5 12.866C11.652 12.9538 11.8245 13 12 13C12.1755 13 12.348 12.9538 12.5 12.866L15.098 11.366C15.2126 11.3008 15.3133 11.2136 15.3941 11.1094C15.4749 11.0051 15.5343 10.886 15.5688 10.7587C15.6034 10.6314 15.6124 10.4986 15.5954 10.3678C15.5784 10.237 15.5357 10.1109 15.4698 9.99667C15.4038 9.88246 15.3159 9.78242 15.2112 9.70231C15.1064 9.6222 14.9869 9.56361 14.8594 9.5299C14.7319 9.49619 14.5989 9.48804 14.4683 9.5059C14.3376 9.52377 14.2118 9.5673 14.098 9.634Z" fill="#262626"/>
</svg>
