<svg width="24" height="24" viewBox="0 0 24 24" fill="none" xmlns="http://www.w3.org/2000/svg">
<path d="M22.601 2.062C22.556 1.89064 22.4662 1.73433 22.3409 1.60905C22.2157 1.48377 22.0594 1.39403 21.888 1.349C19.8368 0.81634 17.6768 0.8738 15.6568 1.51476C13.6368 2.15572 11.8389 3.35413 10.47 4.972L9.354 6.296L6.75 5.668C6.11676 5.44705 5.42494 5.46274 4.80236 5.71218C4.17979 5.96161 3.66852 6.42794 3.363 7.025L1.163 10.925C1.08598 11.0616 1.04214 11.2143 1.03503 11.3709C1.02791 11.5276 1.05773 11.6837 1.12206 11.8266C1.1864 11.9696 1.28345 12.0955 1.40538 12.194C1.52732 12.2926 1.67072 12.3611 1.824 12.394L4.897 13.053C4.63678 13.8453 4.45097 14.6602 4.342 15.487C4.3222 15.6388 4.33751 15.7931 4.38674 15.938C4.43598 16.083 4.51784 16.2147 4.626 16.323L7.726 19.423C7.81896 19.516 7.92934 19.5897 8.05083 19.64C8.17232 19.6903 8.30253 19.7161 8.434 19.716C8.46272 19.7161 8.49143 19.7148 8.52001 19.712C9.36549 19.636 10.2007 19.4718 11.012 19.222L11.656 22.226C11.6889 22.3793 11.7574 22.5227 11.856 22.6446C11.9545 22.7666 12.0804 22.8636 12.2234 22.9279C12.3663 22.9923 12.5224 23.0221 12.6791 23.015C12.8357 23.0079 12.9884 22.964 13.125 22.887L17.03 20.685C17.5797 20.351 18.0092 19.8511 18.2563 19.2572C18.5034 18.6634 18.5555 18.0064 18.405 17.381L17.737 14.621L18.974 13.484C20.5978 12.1187 21.8005 10.3205 22.4424 8.29852C23.0843 6.27652 23.139 4.11383 22.6 2.062H22.601ZM3.572 10.723L5.128 7.963C5.22483 7.77577 5.38958 7.63264 5.5885 7.56292C5.78743 7.4932 6.00548 7.50217 6.198 7.588L7.916 8.004L7.266 8.776C6.64953 9.5145 6.11631 10.3187 5.676 11.174L3.572 10.723ZM16.042 18.945L13.327 20.477L12.897 18.472C13.7678 18.0378 14.5792 17.4933 15.311 16.852L16.054 16.169L16.458 17.833C16.5103 18.0387 16.4984 18.2554 16.4241 18.4541C16.3497 18.6529 16.2164 18.8241 16.042 18.945V18.945ZM17.657 11.98L13.972 15.366C12.5137 16.6272 10.7149 17.4288 8.802 17.67L6.397 15.266C6.71996 13.348 7.5488 11.5508 8.79801 10.06L10.477 8.067C10.5049 8.03799 10.531 8.00726 10.555 7.975L11.99 6.27C13.0511 5.01688 14.4257 4.06779 15.9735 3.51965C17.5212 2.97151 19.1868 2.84395 20.8 3.15C21.1133 4.76824 20.987 6.44089 20.4342 7.99372C19.8815 9.54656 18.9224 10.9228 17.657 11.979V11.98ZM16.734 5.816C16.4373 5.816 16.1473 5.90397 15.9006 6.06879C15.654 6.23361 15.4617 6.46788 15.3482 6.74197C15.2347 7.01606 15.2049 7.31766 15.2628 7.60863C15.3207 7.8996 15.4636 8.16688 15.6733 8.37666C15.8831 8.58644 16.1504 8.7293 16.4414 8.78718C16.7323 8.84505 17.0339 8.81535 17.308 8.70182C17.5821 8.58829 17.8164 8.39603 17.9812 8.14935C18.146 7.90268 18.234 7.61267 18.234 7.316C18.234 6.91817 18.076 6.53664 17.7947 6.25534C17.5134 5.97403 17.1318 5.816 16.734 5.816Z" fill="#262626"/>
</svg>
