<svg width="32" height="32" viewBox="0 0 32 32" fill="none" xmlns="http://www.w3.org/2000/svg">
<rect width="32" height="32" rx="16" fill="#FFF2CC"/>
<path d="M16.0001 14.6667C15.8233 14.6667 15.6537 14.7369 15.5287 14.8619C15.4037 14.987 15.3334 15.1565 15.3334 15.3333V19.3333C15.3334 19.5101 15.4037 19.6797 15.5287 19.8047C15.6537 19.9298 15.8233 20 16.0001 20C16.1769 20 16.3465 19.9298 16.4715 19.8047C16.5965 19.6797 16.6667 19.5101 16.6667 19.3333V15.3333C16.6667 15.1565 16.5965 14.987 16.4715 14.8619C16.3465 14.7369 16.1769 14.6667 16.0001 14.6667ZM16.0001 12C15.8353 12 15.6741 12.0489 15.5371 12.1404C15.4001 12.232 15.2933 12.3622 15.2302 12.5144C15.1671 12.6667 15.1506 12.8343 15.1828 12.9959C15.2149 13.1576 15.2943 13.306 15.4108 13.4226C15.5274 13.5391 15.6759 13.6185 15.8375 13.6507C15.9992 13.6828 16.1667 13.6663 16.319 13.6032C16.4713 13.5402 16.6014 13.4333 16.693 13.2963C16.7845 13.1593 16.8334 12.9982 16.8334 12.8333C16.8334 12.6123 16.7456 12.4004 16.5893 12.2441C16.4331 12.0878 16.2211 12 16.0001 12Z" fill="#262626"/>
</svg>
