<svg width="32" height="32" viewBox="0 0 32 32" fill="none" xmlns="http://www.w3.org/2000/svg">
<rect width="32" height="32" rx="16" fill="#FFCCCC"/>
<path d="M13.9999 15.3335C14.1318 15.3335 14.2607 15.2944 14.3703 15.2211C14.4799 15.1479 14.5654 15.0438 14.6158 14.922C14.6663 14.8001 14.6795 14.6661 14.6538 14.5368C14.6281 14.4074 14.5646 14.2887 14.4713 14.1954C14.3781 14.1022 14.2593 14.0387 14.13 14.013C14.0007 13.9872 13.8666 14.0005 13.7448 14.0509C13.623 14.1014 13.5189 14.1868 13.4456 14.2964C13.3724 14.4061 13.3333 14.535 13.3333 14.6668C13.3333 14.8436 13.4035 15.0132 13.5285 15.1382C13.6535 15.2633 13.8231 15.3335 13.9999 15.3335ZM17.9999 17.3335H13.9999C13.8231 17.3335 13.6535 17.4037 13.5285 17.5288C13.4035 17.6538 13.3333 17.8234 13.3333 18.0002C13.3333 18.177 13.4035 18.3465 13.5285 18.4716C13.6535 18.5966 13.8231 18.6668 13.9999 18.6668H17.9999C18.1767 18.6668 18.3463 18.5966 18.4713 18.4716C18.5964 18.3465 18.6666 18.177 18.6666 18.0002C18.6666 17.8234 18.5964 17.6538 18.4713 17.5288C18.3463 17.4037 18.1767 17.3335 17.9999 17.3335ZM17.9999 14.0002C17.8681 14.0002 17.7392 14.0393 17.6295 14.1125C17.5199 14.1858 17.4345 14.2899 17.384 14.4117C17.3335 14.5335 17.3203 14.6676 17.3461 14.7969C17.3718 14.9262 17.4353 15.045 17.5285 15.1382C17.6218 15.2315 17.7405 15.295 17.8699 15.3207C17.9992 15.3464 18.1332 15.3332 18.255 15.2827C18.3769 15.2323 18.481 15.1468 18.5542 15.0372C18.6275 14.9276 18.6666 14.7987 18.6666 14.6668C18.6666 14.49 18.5964 14.3204 18.4713 14.1954C18.3463 14.0704 18.1767 14.0002 17.9999 14.0002ZM15.9999 9.3335C14.6814 9.3335 13.3924 9.72449 12.2961 10.457C11.1998 11.1896 10.3453 12.2308 9.84072 13.4489C9.33614 14.6671 9.20412 16.0076 9.46135 17.3008C9.71859 18.594 10.3535 19.7819 11.2859 20.7142C12.2182 21.6466 13.4061 22.2815 14.6993 22.5387C15.9925 22.796 17.333 22.6639 18.5511 22.1594C19.7693 21.6548 20.8105 20.8003 21.5431 19.704C22.2756 18.6076 22.6666 17.3187 22.6666 16.0002C22.6666 15.1247 22.4942 14.2578 22.1591 13.4489C21.8241 12.6401 21.333 11.9052 20.714 11.2861C20.0949 10.6671 19.36 10.176 18.5511 9.84097C17.7423 9.50593 16.8754 9.3335 15.9999 9.3335ZM15.9999 21.3335C14.9451 21.3335 13.9139 21.0207 13.0369 20.4347C12.1598 19.8486 11.4762 19.0157 11.0726 18.0411C10.6689 17.0666 10.5633 15.9942 10.7691 14.9597C10.9749 13.9251 11.4828 12.9748 12.2287 12.2289C12.9746 11.483 13.9249 10.9751 14.9594 10.7693C15.994 10.5635 17.0664 10.6691 18.0409 11.0728C19.0154 11.4765 19.8484 12.1601 20.4344 13.0371C21.0205 13.9142 21.3333 14.9453 21.3333 16.0002C21.3333 17.4147 20.7714 18.7712 19.7712 19.7714C18.771 20.7716 17.4144 21.3335 15.9999 21.3335Z" fill="#262626"/>
</svg>
