<svg width="32" height="32" viewBox="0 0 32 32" fill="none" xmlns="http://www.w3.org/2000/svg">
<rect width="32" height="32" rx="16" fill="#CDFFCC"/>
<g clip-path="url(#clip0_596_6559)">
<path d="M23.0672 9.37483C23.0372 9.26059 22.9774 9.15638 22.8938 9.07286C22.8103 8.98935 22.7061 8.92951 22.5919 8.89949C21.2244 8.54439 19.7844 8.5827 18.4377 9.01C17.0911 9.43731 15.8925 10.2362 14.9799 11.3148L14.2359 12.1975L12.4999 11.7788C12.0777 11.6315 11.6165 11.642 11.2015 11.8083C10.7864 11.9746 10.4456 12.2855 10.2419 12.6835L8.77521 15.2835C8.72386 15.3745 8.69464 15.4764 8.6899 15.5808C8.68515 15.6852 8.70503 15.7893 8.74792 15.8846C8.79081 15.9799 8.85551 16.0638 8.9368 16.1295C9.01809 16.1952 9.11369 16.2409 9.21588 16.2628L11.2645 16.7022C11.0911 17.2304 10.9672 17.7736 10.8945 18.3248C10.8813 18.426 10.8915 18.5289 10.9244 18.6255C10.9572 18.7221 11.0118 18.81 11.0839 18.8822L13.1505 20.9488C13.2125 21.0108 13.2861 21.06 13.3671 21.0935C13.4481 21.127 13.5349 21.1442 13.6225 21.1442C13.6417 21.1443 13.6608 21.1434 13.6799 21.1415C14.2435 21.0908 14.8003 20.9814 15.3412 20.8148L15.7705 22.8175C15.7925 22.9197 15.8382 23.0153 15.9039 23.0966C15.9696 23.1779 16.0535 23.2426 16.1488 23.2855C16.2441 23.3283 16.3482 23.3482 16.4526 23.3435C16.557 23.3387 16.6588 23.3095 16.7499 23.2582L19.3532 21.7902C19.7197 21.5675 20.006 21.2342 20.1707 20.8383C20.3355 20.4424 20.3702 20.0044 20.2699 19.5875L19.8245 17.7475L20.6492 16.9895C21.7317 16.0793 22.5336 14.8805 22.9615 13.5325C23.3894 12.1845 23.4259 10.7427 23.0665 9.37483H23.0672ZM10.3812 15.1488L11.4185 13.3088C11.4831 13.184 11.5929 13.0886 11.7255 13.0421C11.8582 12.9956 12.0035 13.0016 12.1319 13.0588L13.2772 13.3362L12.8439 13.8508C12.4329 14.3432 12.0774 14.8793 11.7839 15.4495L10.3812 15.1488ZM18.6945 20.6302L16.8845 21.6515L16.5979 20.3148C17.1784 20.0254 17.7193 19.6624 18.2072 19.2348L18.7025 18.7795L18.9719 19.8888C19.0067 20.0259 18.9988 20.1704 18.9493 20.3029C18.8997 20.4354 18.8108 20.5496 18.6945 20.6302ZM19.7712 15.9868L17.3145 18.2442C16.3423 19.0849 15.1431 19.6194 13.8679 19.7802L12.2645 18.1775C12.4799 16.8988 13.0324 15.7007 13.8652 14.7068L14.9845 13.3782C15.0031 13.3588 15.0205 13.3383 15.0365 13.3168L15.9932 12.1802C16.7006 11.3447 17.617 10.712 18.6488 10.3466C19.6807 9.98117 20.7911 9.89613 21.8665 10.1002C22.0754 11.179 21.9912 12.2941 21.6227 13.3293C21.2542 14.3645 20.6148 15.282 19.7712 15.9862V15.9868ZM19.1559 11.8775C18.9581 11.8775 18.7648 11.9361 18.6003 12.046C18.4359 12.1559 18.3077 12.3121 18.232 12.4948C18.1563 12.6775 18.1365 12.8786 18.1751 13.0726C18.2137 13.2666 18.3089 13.4447 18.4488 13.5846C18.5886 13.7245 18.7668 13.8197 18.9608 13.8583C19.1548 13.8969 19.3558 13.8771 19.5386 13.8014C19.7213 13.7257 19.8775 13.5975 19.9874 13.4331C20.0972 13.2686 20.1559 13.0753 20.1559 12.8775C20.1559 12.6123 20.0505 12.3579 19.863 12.1704C19.6755 11.9829 19.4211 11.8775 19.1559 11.8775Z" fill="#262626"/>
</g>
<defs>
<clipPath id="clip0_596_6559">
<rect width="16" height="16" fill="white" transform="translate(8 8)"/>
</clipPath>
</defs>
</svg>
