<svg width="24" height="24" viewBox="0 0 24 24" fill="none" xmlns="http://www.w3.org/2000/svg">
<path d="M12.71 12.54C12.617 12.4463 12.5064 12.3719 12.3846 12.3211C12.2627 12.2703 12.132 12.2442 12 12.2442C11.868 12.2442 11.7373 12.2703 11.6154 12.3211C11.4936 12.3719 11.383 12.4463 11.29 12.54L8.28999 15.54C8.09638 15.7283 7.98551 15.9858 7.98176 16.2559C7.97801 16.5259 8.08169 16.7864 8.26999 16.98C8.4583 17.1736 8.7158 17.2845 8.98585 17.2882C9.2559 17.292 9.51638 17.1883 9.70999 17L12 14.66L14.29 17C14.383 17.0937 14.4936 17.1681 14.6154 17.2189C14.7373 17.2697 14.868 17.2958 15 17.2958C15.132 17.2958 15.2627 17.2697 15.3846 17.2189C15.5064 17.1681 15.617 17.0937 15.71 17C15.8037 16.907 15.8781 16.7964 15.9289 16.6746C15.9797 16.5527 16.0058 16.422 16.0058 16.29C16.0058 16.158 15.9797 16.0273 15.9289 15.9054C15.8781 15.7836 15.8037 15.673 15.71 15.58L12.71 12.54ZM9.70999 11.46L12 9.16L14.29 11.46C14.383 11.5537 14.4936 11.6281 14.6154 11.6789C14.7373 11.7297 14.868 11.7558 15 11.7558C15.132 11.7558 15.2627 11.7297 15.3846 11.6789C15.5064 11.6281 15.617 11.5537 15.71 11.46C15.8037 11.367 15.8781 11.2564 15.9289 11.1346C15.9797 11.0127 16.0058 10.882 16.0058 10.75C16.0058 10.618 15.9797 10.4873 15.9289 10.3654C15.8781 10.2436 15.8037 10.133 15.71 10.04L12.71 7.04C12.617 6.94627 12.5064 6.87188 12.3846 6.82111C12.2627 6.77034 12.132 6.7442 12 6.7442C11.868 6.7442 11.7373 6.77034 11.6154 6.82111C11.4936 6.87188 11.383 6.94627 11.29 7.04L8.28999 10.04C8.10169 10.2283 7.9959 10.4837 7.9959 10.75C7.9959 11.0163 8.10169 11.2717 8.28999 11.46C8.47829 11.6483 8.73369 11.7541 8.99999 11.7541C9.26629 11.7541 9.52169 11.6483 9.70999 11.46Z" fill="#FF3344"/>
</svg>
