<svg width="24" height="24" viewBox="0 0 24 24" fill="none" xmlns="http://www.w3.org/2000/svg">
<path d="M4.79001 10.5H2.79001C2.52479 10.5 2.27044 10.6054 2.0829 10.7929C1.89537 10.9804 1.79001 11.2348 1.79001 11.5C1.79001 11.7652 1.89537 12.0196 2.0829 12.2071C2.27044 12.3946 2.52479 12.5 2.79001 12.5H4.79001C5.05523 12.5 5.30958 12.3946 5.49712 12.2071C5.68465 12.0196 5.79001 11.7652 5.79001 11.5C5.79001 11.2348 5.68465 10.9804 5.49712 10.7929C5.30958 10.6054 5.05523 10.5 4.79001 10.5ZM21.57 7.66V7.6C21.2835 7.24979 20.9215 6.96892 20.5111 6.77843C20.1006 6.58794 19.6524 6.49275 19.2 6.5H11.27C10.5352 6.4934 9.82355 6.75672 9.27001 7.24C8.75301 7.69553 8.4131 8.3187 8.31001 9L7.43001 14C7.35434 14.4318 7.37421 14.8749 7.48824 15.2982C7.60227 15.7215 7.80768 16.1146 8.09001 16.45C8.37087 16.7842 8.72129 17.0531 9.11682 17.2379C9.51234 17.4228 9.94344 17.519 10.38 17.52H18.32C19.0333 17.5308 19.727 17.2871 20.2768 16.8326C20.8266 16.3781 21.1964 15.7425 21.32 15.04L22.2 10.04C22.2693 9.6213 22.249 9.19266 22.1404 8.7824C22.0318 8.37213 21.8374 7.98957 21.57 7.66ZM18.83 8.5L15.43 11.26C15.229 11.422 14.9731 11.5 14.7159 11.4776C14.4586 11.4553 14.2201 11.3343 14.05 11.14L11.72 8.5H18.83ZM19.31 14.67C19.2695 14.9048 19.1465 15.1174 18.9632 15.2696C18.7799 15.4218 18.5482 15.5035 18.31 15.5H10.38C10.2348 15.4988 10.0916 15.4659 9.96033 15.4038C9.82908 15.3416 9.71295 15.2516 9.62001 15.14C9.52683 15.029 9.4589 14.8991 9.42091 14.7592C9.38292 14.6193 9.37579 14.4729 9.40001 14.33L10.2 9.8L12.55 12.46C13.0615 13.0414 13.778 13.4024 14.5496 13.4677C15.3212 13.5329 16.0882 13.2972 16.69 12.81L20.13 10L19.31 14.67ZM5.79001 6.5H2.79001C2.52479 6.5 2.27044 6.60536 2.0829 6.79289C1.89537 6.98043 1.79001 7.23478 1.79001 7.5C1.79001 7.76522 1.89537 8.01957 2.0829 8.20711C2.27044 8.39464 2.52479 8.5 2.79001 8.5H5.79001C6.05523 8.5 6.30958 8.39464 6.49712 8.20711C6.68465 8.01957 6.79001 7.76522 6.79001 7.5C6.79001 7.23478 6.68465 6.98043 6.49712 6.79289C6.30958 6.60536 6.05523 6.5 5.79001 6.5Z" fill="#FF3344"/>
</svg>
