<svg width="24" height="24" viewBox="0 0 24 24" fill="none" xmlns="http://www.w3.org/2000/svg">
<path d="M18 14C17.4092 14.0039 16.8265 14.1387 16.294 14.3946C15.7615 14.6505 15.2922 15.0211 14.92 15.48L9.82 13.13C10.0598 12.3957 10.0598 11.6043 9.82 10.87L14.92 8.52C15.5216 9.24597 16.3603 9.73608 17.2881 9.90384C18.216 10.0716 19.1732 9.90623 19.9909 9.4369C20.8087 8.96758 21.4344 8.22448 21.7575 7.33874C22.0807 6.45301 22.0806 5.48158 21.7573 4.59591C21.434 3.71023 20.8081 2.96724 19.9903 2.49807C19.1725 2.02889 18.2152 1.86369 17.2874 2.03162C16.3597 2.19955 15.521 2.68982 14.9195 3.41589C14.318 4.14197 13.9924 5.05718 14 6C14.003 6.23823 14.0264 6.47577 14.07 6.71L8.79 9.14C8.22708 8.58958 7.51424 8.21752 6.7408 8.07043C5.96736 7.92334 5.16772 8.00777 4.44205 8.31313C3.71638 8.6185 3.09696 9.13122 2.6614 9.78706C2.22584 10.4429 1.9935 11.2127 1.9935 12C1.9935 12.7873 2.22584 13.5571 2.6614 14.2129C3.09696 14.8688 3.71638 15.3815 4.44205 15.6869C5.16772 15.9922 5.96736 16.0767 6.7408 15.9296C7.51424 15.7825 8.22708 15.4104 8.79 14.86L14.07 17.29C14.0264 17.5242 14.003 17.7618 14 18C14 18.7911 14.2346 19.5645 14.6741 20.2223C15.1136 20.8801 15.7384 21.3928 16.4693 21.6955C17.2002 21.9983 18.0044 22.0775 18.7804 21.9231C19.5563 21.7688 20.269 21.3878 20.8284 20.8284C21.3878 20.269 21.7688 19.5563 21.9231 18.7804C22.0775 18.0044 21.9983 17.2002 21.6955 16.4693C21.3928 15.7384 20.8801 15.1136 20.2223 14.6741C19.5645 14.2346 18.7911 14 18 14ZM18 4C18.3956 4 18.7822 4.1173 19.1111 4.33706C19.44 4.55682 19.6964 4.86918 19.8478 5.23463C19.9991 5.60009 20.0387 6.00222 19.9616 6.39018C19.8844 6.77814 19.6939 7.13451 19.4142 7.41421C19.1345 7.69392 18.7781 7.8844 18.3902 7.96157C18.0022 8.03874 17.6001 7.99913 17.2346 7.84776C16.8692 7.69638 16.5568 7.44004 16.3371 7.11114C16.1173 6.78224 16 6.39556 16 6C16 5.46957 16.2107 4.96086 16.5858 4.58579C16.9609 4.21071 17.4696 4 18 4ZM6 14C5.60443 14 5.21776 13.8827 4.88886 13.6629C4.55996 13.4432 4.30361 13.1308 4.15224 12.7654C4.00086 12.3999 3.96126 11.9978 4.03843 11.6098C4.1156 11.2219 4.30608 10.8655 4.58578 10.5858C4.86549 10.3061 5.22186 10.1156 5.60982 10.0384C5.99778 9.96126 6.39991 10.0009 6.76536 10.1522C7.13082 10.3036 7.44317 10.56 7.66294 10.8889C7.8827 11.2178 8 11.6044 8 12C8 12.5304 7.78928 13.0391 7.41421 13.4142C7.03914 13.7893 6.53043 14 6 14ZM18 20C17.6044 20 17.2178 19.8827 16.8889 19.6629C16.56 19.4432 16.3036 19.1308 16.1522 18.7654C16.0009 18.3999 15.9613 17.9978 16.0384 17.6098C16.1156 17.2219 16.3061 16.8655 16.5858 16.5858C16.8655 16.3061 17.2219 16.1156 17.6098 16.0384C17.9978 15.9613 18.3999 16.0009 18.7654 16.1522C19.1308 16.3036 19.4432 16.56 19.6629 16.8889C19.8827 17.2178 20 17.6044 20 18C20 18.5304 19.7893 19.0391 19.4142 19.4142C19.0391 19.7893 18.5304 20 18 20Z" fill="#FF3344"/>
</svg>
